<?xml version="1.0" standalone="no"?>
<!DOCTYPE svg PUBLIC "-//W3C//DTD SVG 1.1//EN" "http://www.w3.org/Graphics/SVG/1.1/DTD/svg11.dtd" >
<svg xmlns="http://www.w3.org/2000/svg" xmlns:xlink="http://www.w3.org/1999/xlink" version="1.1">
<metadata>
Created by FontForge 20160407 at Sun Dec  4 21:07:59 2016
 By Jimmy Wärting
Copyright 2016 Dalton Maag Ltd. Modification of this file requires prior written permission from Dalton Maag Ltd.
</metadata>
<defs>
<font id="KingsCaslonTrial-Italic" horiz-adv-x="518" >
  <font-face 
    font-family="Kings Caslon Trial"
    font-weight="400"
    font-style="italic"
    font-stretch="normal"
    units-per-em="1000"
    panose-1="2 5 5 3 5 5 10 9 4 3"
    ascent="713"
    descent="-287"
    x-height="446"
    cap-height="673"
    bbox="-205 -251 1353 915"
    underline-thickness="32"
    underline-position="-174"
    slope="-19"
    unicode-range="U+0008-FB06"
  />
<missing-glyph horiz-adv-x="560" 
d="M50 700h460v-700h-460v700zM115 54h330v592h-330v-592z" />
    <glyph glyph-name="f_f" unicode="ff" horiz-adv-x="533" 
d="M67 386l16 45h82l18 53q41 119 107.5 170.5t145.5 51.5q32 0 61.5 -9t49.5 -21q20 14 42.5 22t50.5 8q31 0 52.5 -13t21.5 -37q0 -21 -11.5 -32.5t-30.5 -11.5t-27.5 8t-13 17t-9.5 17t-17 8q-15 0 -28.5 -16t-24 -37t-17.5 -43t-11 -34l-31 -101h99l-16 -45h-97
q-22 -66 -39 -127.5t-35.5 -121.5t-42 -119t-57.5 -118q-11 -19 -25 -36.5t-32 -31t-40 -21.5t-48 -8t-48.5 12t-22.5 36q0 21 13 31.5t30 10.5q18 0 25.5 -7t12.5 -15.5t10.5 -15.5t17.5 -7q15 0 29.5 17t27 42.5t22.5 55t18 54.5l110 369h-180q-22 -66 -41 -130.5
t-39 -126.5t-42.5 -120t-51.5 -109q-11 -19 -25 -36.5t-32 -31t-40 -21.5t-48 -8t-48.5 12t-22.5 36q0 21 13 31.5t30 10.5q18 0 25.5 -7t12.5 -15.5t10.5 -15.5t17.5 -7q15 0 29.5 17t27 42.5t22.5 55t18 54.5l110 369h-84zM239 431h180q13 44 32 98.5t51 99.5
q-8 11 -26 23t-47 12q-19 0 -41 -5t-45 -24.5t-46.5 -59t-45.5 -107.5z" />
    <glyph glyph-name="f_f_i" unicode="ffi" horiz-adv-x="777" 
d="M67 386l16 45h82l18 53q41 119 107.5 170.5t145.5 51.5q36 0 67.5 -10.5t51.5 -24.5q53 35 124 35q31 0 53 -6.5t35.5 -16.5t20 -22.5t6.5 -24.5q0 -21 -11 -32t-28 -11q-20 0 -29.5 11t-17.5 23.5t-19.5 23.5t-36.5 11q-11 0 -26.5 -3t-34 -17.5t-38 -45.5t-36.5 -87
l-24 -78h221q47 0 27 -47l-120 -286q-10 -22 -10 -31q0 -7 6 -7q9 0 23 8.5t28.5 20.5t27 24.5l20.5 20.5l23 -17q-16 -20 -37 -41t-44.5 -38.5t-49 -29t-50.5 -11.5q-16 0 -25.5 8.5t-9.5 22.5q0 13 10 38l120 292q5 14 2 21t-21 7h-155q-22 -66 -41 -130.5t-39 -126.5
t-42.5 -120t-51.5 -109q-11 -19 -25 -36.5t-32 -31t-40 -21.5t-48 -8t-48.5 12t-22.5 36q0 21 13 31.5t30 10.5q18 0 25.5 -7t12.5 -15.5t10.5 -15.5t17.5 -7q15 0 29.5 17t27 42.5t22.5 55t18 54.5l110 369h-180q-22 -66 -41 -130.5t-39 -126.5t-42.5 -120t-51.5 -109
q-11 -19 -25 -36.5t-32 -31t-40 -21.5t-48 -8t-48.5 12t-22.5 36q0 21 13 31.5t30 10.5q18 0 25.5 -7t12.5 -15.5t10.5 -15.5t17.5 -7q15 0 29.5 17t27 42.5t22.5 55t18 54.5l110 369h-84zM239 431h180l27 82q21 67 59 112q-8 12 -26 25.5t-50 13.5q-19 0 -41 -5t-45 -24.5
t-46.5 -59t-45.5 -107.5z" />
    <glyph glyph-name="f_f_l" unicode="ffl" horiz-adv-x="778" 
d="M67 386l16 45h82l18 53q41 119 107.5 170.5t145.5 51.5q38 0 71 -11.5t53 -27.5q29 20 61 29.5t67 9.5q41 0 65.5 -9t36.5 -17l66 9l7 -12l-244 -584q-5 -10 -8.5 -21.5t5.5 -11.5q8 0 21.5 8t29.5 21.5t33.5 31.5t34.5 38l23 -17q-15 -22 -38.5 -47.5t-50.5 -47t-56 -36
t-54 -14.5q-16 0 -25.5 8.5t-9.5 22.5q0 13 10 38l133 320h-188q-22 -66 -41 -130.5t-39 -126.5t-42.5 -120t-51.5 -109q-11 -19 -25 -36.5t-32 -31t-40 -21.5t-48 -8t-48.5 12t-22.5 36q0 21 13 31.5t30 10.5q18 0 25.5 -7t12.5 -15.5t10.5 -15.5t17.5 -7q15 0 29.5 17
t27 42.5t22.5 55t18 54.5l110 369h-180q-22 -66 -41 -130.5t-39 -126.5t-42.5 -120t-51.5 -109q-11 -19 -25 -36.5t-32 -31t-40 -21.5t-48 -8t-48.5 12t-22.5 36q0 21 13 31.5t30 10.5q18 0 25.5 -7t12.5 -15.5t10.5 -15.5t17.5 -7q15 0 29.5 17t27 42.5t22.5 55t18 54.5
l110 369h-84zM493 431h193l76 183q-2 3 -6.5 11.5t-14 17t-24 15t-36.5 6.5q-19 0 -40.5 -5t-44.5 -24.5t-46 -59t-45 -107.5zM239 431h180l18 53q14 43 32.5 76t39.5 59q-3 6 -9 13.5t-15.5 14.5t-23.5 12t-32 5q-19 0 -41 -5t-45 -24.5t-46.5 -59t-45.5 -107.5z" />
    <glyph glyph-name="f_b" unicode="fb" horiz-adv-x="695" 
d="M410 27q23 0 48.5 19t50.5 49t47.5 68t39.5 76t27 73.5t10 59.5q0 21 -9.5 29.5t-25.5 8.5q-17 0 -42 -17t-51.5 -45t-52.5 -64t-45 -73q-23 -45 -32 -76.5t-9 -53.5q0 -32 13.5 -43t30.5 -11zM239 431h191l79 180q-2 6 -7.5 15.5t-15.5 17.5t-24.5 14t-34.5 6
q-19 0 -40.5 -5t-44.5 -24.5t-46 -59t-45 -107.5zM67 386l16 45h82l18 53q41 119 106.5 170.5t144.5 51.5q35 0 60.5 -8t43.5 -19l66 10l7 -12l-134 -304l5 -2q35 35 71 58t75 23q16 0 31.5 -4t27.5 -13t19.5 -24.5t7.5 -38.5q0 -31 -12 -71t-33.5 -82.5t-51 -83t-64 -73
t-73.5 -52t-80 -19.5q-59 0 -81.5 24.5t-22.5 67.5q0 21 8.5 52t26.5 72l79 179h-185q-22 -66 -41 -130.5t-39 -126.5t-42.5 -120t-51.5 -109q-11 -19 -25 -36.5t-32 -31t-40 -21.5t-48 -8t-48.5 12t-22.5 36q0 21 13 31.5t30 10.5q18 0 25.5 -7t12.5 -15.5t10.5 -15.5
t17.5 -7q15 0 29.5 17t27 42.5t22.5 55t18 54.5l110 369h-84z" />
    <glyph glyph-name="f_j" unicode="fj" horiz-adv-x="490" 
d="M151 386h-84l16 45h82l27 82q30 89 87.5 141t145.5 52q31 0 53 -6.5t35.5 -16.5t20 -22.5t6.5 -24.5q0 -21 -11 -32t-28 -11q-20 0 -29.5 11t-17.5 23.5t-19.5 23.5t-36.5 11q-11 0 -26.5 -3t-34 -17.5t-38 -45.5t-36.5 -87l-24 -78h221q47 0 27 -47l-158 -402
q-41 -96 -90.5 -137.5t-97.5 -41.5q-37 0 -55.5 14.5t-18.5 37.5q0 19 10.5 30t27.5 11q31 0 36 -30q2 -10 5.5 -18t16.5 -8q12 0 23.5 9.5t22.5 25t21 35.5t19 42l155 406q5 14 2 21t-21 7h-160q-22 -66 -41 -130.5t-39 -126.5t-42.5 -120t-51.5 -109q-11 -19 -25 -36.5
t-32 -31t-40 -21.5t-48 -8t-48.5 12t-22.5 36q0 21 13 31.5t30 10.5q18 0 25.5 -7t12.5 -15.5t10.5 -15.5t17.5 -7q15 0 29.5 17t27 42.5t22.5 55t18 54.5z" />
    <glyph glyph-name="f_k" unicode="fk" horiz-adv-x="731" 
d="M151 386h-84l16 45h82l18 53q41 119 106.5 170.5t144.5 51.5q41 0 65.5 -9t36.5 -17l67 9l5 -12l-141 -325l5 -3q11 13 30 31t44 34t55.5 27t64.5 11q26 0 48 -14t22 -44q0 -36 -23 -70t-71 -59q-15 -8 -35 -15.5t-41.5 -14t-42.5 -11.5t-37 -8l41 -116q9 -26 18 -33
t20 -7q12 0 25 8t26 19t24 23t18 20l23 -17q-16 -20 -34 -40t-38 -37t-42.5 -27.5t-47.5 -10.5q-19 0 -30.5 11t-20.5 37l-56 160l-90 -206h-70l161 386h-188q-22 -66 -41 -130.5t-39 -126.5t-42.5 -120t-51.5 -109q-11 -19 -25 -36.5t-32 -31t-40 -21.5t-48 -8t-48.5 12
t-22.5 36q0 21 13 31.5t30 10.5q18 0 25.5 -7t12.5 -15.5t10.5 -15.5t17.5 -7q15 0 29.5 17t27 42.5t22.5 55t18 54.5zM431 431l77 183q-2 3 -6.5 11.5t-14 17t-24 15t-36.5 6.5q-19 0 -40.5 -5t-44.5 -24.5t-46 -59t-45 -107.5l-12 -37h192zM426 238q35 3 76 13t76.5 26.5
t59.5 38t24 48.5q0 14 -9.5 24.5t-29.5 10.5q-26 0 -56.5 -16t-50.5 -35q-23 -22 -47.5 -50.5t-42.5 -59.5z" />
    <glyph glyph-name="f_t" unicode="ft" horiz-adv-x="546" 
d="M151 386h-84l16 45h82q12 39 28 86.5t41 89.5t62 70.5t90 28.5q31 0 52.5 -13t21.5 -37q0 -21 -11.5 -32.5t-30.5 -11.5t-27.5 8t-13 17t-9.5 17t-17 8q-15 0 -28.5 -16t-24 -37t-17.5 -43t-11 -34l-31 -101h197l35 87l73 23l8 -8l-44 -102h93l-14 -45h-98l-131 -302
q-5 -10 -6 -19.5t8 -9.5q10 0 27 10t34.5 24t33 28t23.5 22l21 -20q-13 -15 -37 -36.5t-52 -40.5t-58 -32.5t-55 -13.5q-14 0 -22.5 9t-8.5 23q0 6 1.5 14.5t9.5 25.5l139 318h-191q-22 -66 -39 -127.5t-35.5 -121.5t-42 -119t-57.5 -118q-11 -19 -25 -36.5t-32 -31
t-40 -21.5t-48 -8t-48.5 12t-22.5 36q0 21 13 31.5t30 10.5q18 0 25.5 -7t12.5 -15.5t10.5 -15.5t17.5 -7q15 0 29.5 17t27 42.5t22.5 55t18 54.5z" />
    <glyph glyph-name="f_h" unicode="fh" horiz-adv-x="759" 
d="M253 0l160 386h-188q-22 -66 -41 -130.5t-39 -126.5t-42.5 -120t-51.5 -109q-11 -19 -25 -36.5t-32 -31t-40 -21.5t-48 -8t-48.5 12t-22.5 36q0 21 13 31.5t30 10.5q18 0 25.5 -7t12.5 -15.5t10.5 -15.5t17.5 -7q15 0 29.5 17t27 42.5t22.5 55t18 54.5l110 369h-84l16 45
h82l18 53q41 119 106.5 170.5t144.5 51.5q41 0 65.5 -9t36.5 -17l66 9l7 -12l-142 -333q-8 -20 -17 -37t-18 -35l5 -4q15 20 32 41t34.5 40t34 35.5t31.5 28.5q28 22 52.5 30.5t45.5 8.5q22 0 36.5 -12t14.5 -34q0 -34 -25 -90l-103 -229q-5 -10 -6.5 -18.5t7.5 -8.5
q7 0 21.5 8.5t30 20.5t29 24.5t19.5 20.5l23 -17q-11 -15 -31 -35.5t-45 -39.5t-52.5 -32t-52.5 -13q-16 0 -25.5 8.5t-9.5 22.5q0 6 2 15t7 21l116 265q5 11 8 22t3 20q0 18 -16 18q-22 0 -49 -24q-9 -8 -31 -29.5t-49.5 -53t-55.5 -69.5t-47 -77l-67 -136h-66zM239 431
h193l76 183q-2 3 -6.5 11.5t-14 17t-24 15t-36.5 6.5q-19 0 -40.5 -5t-44.5 -24.5t-46 -59t-45 -107.5z" />
    <glyph glyph-name="f_i" unicode="fi" horiz-adv-x="523" 
d="M151 386h-84l16 45h82l27 82q30 89 87.5 141t145.5 52q31 0 53 -6.5t35.5 -16.5t20 -22.5t6.5 -24.5q0 -21 -11 -32t-28 -11q-20 0 -29.5 11t-17.5 23.5t-19.5 23.5t-36.5 11q-11 0 -26.5 -3t-34 -17.5t-38 -45.5t-36.5 -87l-24 -78h221q47 0 27 -47l-120 -286
q-10 -22 -10 -31q0 -7 6 -7q9 0 23 8.5t28.5 20.5t27 24.5l20.5 20.5l23 -17q-16 -20 -37 -41t-44.5 -38.5t-49 -29t-50.5 -11.5q-16 0 -25.5 8.5t-9.5 22.5q0 13 10 38l120 292q5 14 2 21t-21 7h-155q-22 -66 -41 -130.5t-39 -126.5t-42.5 -120t-51.5 -109
q-11 -19 -25 -36.5t-32 -31t-40 -21.5t-48 -8t-48.5 12t-22.5 36q0 21 13 31.5t30 10.5q18 0 25.5 -7t12.5 -15.5t10.5 -15.5t17.5 -7q15 0 29.5 17t27 42.5t22.5 55t18 54.5z" />
    <glyph glyph-name="f_l" unicode="fl" horiz-adv-x="524" 
d="M239 431h193l76 183q-2 3 -6.5 11.5t-14 17t-24 15t-36.5 6.5q-19 0 -40.5 -5t-44.5 -24.5t-46 -59t-45 -107.5zM67 386l16 45h82l18 53q41 119 106.5 170.5t144.5 51.5q41 0 65.5 -9t36.5 -17l66 9l7 -12l-244 -584q-5 -10 -8.5 -21.5t5.5 -11.5q8 0 21.5 8t29.5 21.5
t33.5 31.5t34.5 38l23 -17q-15 -22 -38.5 -47.5t-50.5 -47t-56 -36t-54 -14.5q-16 0 -25.5 8.5t-9.5 22.5q0 13 10 38l133 320h-188q-22 -66 -41 -130.5t-39 -126.5t-42.5 -120t-51.5 -109q-11 -19 -25 -36.5t-32 -31t-40 -21.5t-48 -8t-48.5 12t-22.5 36q0 21 13 31.5
t30 10.5q18 0 25.5 -7t12.5 -15.5t10.5 -15.5t17.5 -7q15 0 29.5 17t27 42.5t22.5 55t18 54.5l110 369h-84z" />
    <glyph glyph-name=".notdef" horiz-adv-x="560" 
d="M50 700h460v-700h-460v700zM115 54h330v592h-330v-592z" />
    <glyph glyph-name=".null" horiz-adv-x="0" 
 />
    <glyph glyph-name=".null" horiz-adv-x="0" 
 />
    <glyph glyph-name=".null" horiz-adv-x="0" 
 />
    <glyph glyph-name="nonmarkingreturn" unicode="&#x9;" horiz-adv-x="184" 
 />
    <glyph glyph-name="nonmarkingreturn" unicode="&#xd;" horiz-adv-x="184" 
 />
    <glyph glyph-name="space" unicode=" " horiz-adv-x="184" 
 />
    <glyph glyph-name="exclam" unicode="!" horiz-adv-x="235" 
d="M78 196q1 6 9 38.5t19.5 78.5t25.5 99t26.5 100.5t22 83.5t12.5 48q8 31 24 38t32 7q24 0 33 -12t9 -23q0 -7 -2 -15q-8 -26 -24 -68t-42 -109q-17 -42 -34.5 -86t-32.5 -82t-26.5 -64.5t-14.5 -33.5h-37zM4 33q0 23 16 40.5t43 17.5q20 0 33 -12.5t13 -31.5
q0 -23 -17 -41.5t-42 -18.5q-23 0 -34.5 13.5t-11.5 32.5z" />
    <glyph glyph-name="quotedbl" unicode="&#x22;" horiz-adv-x="366" 
d="M154 474q1 7 4.5 23t8 37t10 43.5t10 42.5t8 35t5.5 20q5 20 19.5 25.5t26.5 5.5q18 0 25.5 -7t7.5 -15q0 -3 -1 -7q-3 -14 -15.5 -43t-27.5 -61.5t-28.5 -60.5t-19.5 -38h-33zM305 474q1 7 4.5 23t8 37t10 43.5t10 42.5t8 35t5.5 20q5 20 19.5 25.5t26.5 5.5
q18 0 25.5 -7t7.5 -15q0 -3 -1 -7q-3 -14 -15.5 -43t-27.5 -61.5t-28.5 -60.5t-19.5 -38h-33z" />
    <glyph glyph-name="numbersign" unicode="#" 
d="M22 43l78 161h-100l21 48h102l85 174h-118l21 48h120l67 138h51l-67 -138h141l67 138h51l-67 -138h109l-21 -48h-111l-85 -174h127l-21 -48h-129l-78 -161h-51l78 161h-141l-78 -161h-51zM315 252l85 174h-141l-85 -174h141z" />
    <glyph glyph-name="dollar" unicode="$" 
d="M123 -10q-35 6 -60 16t-40.5 23t-23 28t-7.5 29q0 13 9 26t32 13t34 -14.5t25 -34.5q7 -11 17.5 -22.5t28.5 -19.5l101 296q-34 36 -59.5 75t-25.5 89q0 39 15 72t41.5 56.5t63.5 37t82 13.5l25 71h43l-26 -75q55 -9 88 -35.5t33 -55.5q0 -17 -10.5 -26t-24.5 -9
q-19 0 -29.5 10.5t-19.5 24.5t-19.5 28.5t-30.5 23.5l-84 -243l11 -11q17 -18 36 -39t35.5 -45t27.5 -50.5t11 -54.5q0 -42 -15.5 -78.5t-44.5 -64t-71 -43.5t-95 -16q-8 0 -15.5 0.5t-15.5 0.5l-36 -106h-43zM271 297l-94 -274q8 -1 16.5 -1.5t18.5 -0.5q28 0 53 9.5
t43.5 27.5t29 43t10.5 57q0 29 -17 61t-43 60zM345 639h-4q-56 0 -89 -31.5t-33 -85.5q0 -23 12 -49t39 -53z" />
    <glyph glyph-name="percent" unicode="%" horiz-adv-x="794" 
d="M206 310q-48 0 -77.5 32.5t-29.5 95.5q0 40 14 82t39.5 76t62 55.5t80.5 21.5q21 0 40 -6.5t34 -20.5t23.5 -36t8.5 -53q0 -45 -14 -89t-39.5 -79.5t-61.5 -57t-80 -21.5zM215 342q29 0 51.5 23t37.5 57.5t22.5 75t7.5 75.5q0 29 -11 48.5t-37 19.5q-30 0 -52.5 -24
t-37.5 -58t-22.5 -71.5t-7.5 -65.5q0 -36 10 -58t39 -22zM563 -7q-48 0 -77.5 32.5t-29.5 95.5q0 40 14 82t39.5 76t62 55.5t80.5 21.5q21 0 40 -6.5t34 -20.5t23.5 -36t8.5 -53q0 -45 -14 -89t-39.5 -79.5t-61.5 -57t-80 -21.5zM572 25q29 0 51.5 23t37.5 57.5t22.5 75
t7.5 75.5q0 29 -11 48.5t-37 19.5q-30 0 -52.5 -24t-37.5 -58t-22.5 -71.5t-7.5 -65.5q0 -36 10 -58t39 -22zM644 666h61l-492 -666h-61z" />
    <glyph glyph-name="ampersand" unicode="&#x26;" horiz-adv-x="783" 
d="M363 608q-14 -4 -23.5 -18t-9.5 -28q0 -20 12 -34t36 -14q34 0 50 20.5t16 52.5q0 22 -8.5 39t-22 28.5t-31 17.5t-35.5 6q-33 0 -58.5 -15t-43 -39t-26 -54t-8.5 -60q0 -26 4 -45q22 5 42 5q37 0 58 -18.5t21 -41.5q0 -29 -18 -46.5t-46 -17.5q-31 0 -55 16t-41 44
q-18 -23 -24 -51.5t-6 -48.5q0 -53 20 -99t56 -80t85.5 -53.5t108.5 -19.5q32 0 74 8.5t79.5 30.5t63.5 59.5t26 94.5q0 28 -7.5 54.5t-24 47.5t-43 33.5t-63.5 12.5q-29 0 -51 -9.5t-37 -25t-22.5 -36t-7.5 -42.5q0 -21 6 -40t18 -33.5t29.5 -23t40.5 -8.5q12 0 26 4
t25 12.5t18.5 22t7.5 32.5q0 29 -16 43t-36 14q-15 0 -24 -6t-11 -12q22 -1 28 -13t6 -19q0 -14 -8.5 -22t-23.5 -8q-17 0 -28 12t-11 28q0 24 20 43.5t55 19.5q32 0 54.5 -22.5t22.5 -54.5q0 -19 -7 -37t-20.5 -32.5t-34 -23t-47.5 -8.5q-60 0 -94.5 41.5t-34.5 105.5
q0 33 15 66.5t37 54.5q19 19 40 30t45 17t50.5 9t58.5 6q25 2 53 9t51 21t38.5 36.5t15.5 57.5q0 13 -4 27t-12.5 25t-22 18t-33.5 7q-12 0 -24 -3.5t-22.5 -11t-17.5 -19t-8 -26.5q13 10 30 10t27 -10.5t10 -27.5q0 -23 -13.5 -33.5t-33.5 -10.5q-30 0 -42.5 19.5
t-12.5 40.5q0 40 29.5 68.5t81.5 28.5q48 0 83 -31.5t35 -94.5q0 -45 -17 -76.5t-46 -52.5t-66.5 -32.5t-79.5 -16.5q15 -6 30 -19.5t27 -33.5t20 -46.5t8 -59.5q0 -80 -44.5 -139.5t-118.5 -91.5q-35 -15 -71 -22t-84 -7q-64 0 -119.5 18.5t-96.5 54t-64.5 88t-23.5 120.5
q0 21 5 45.5t16 48.5t27.5 46t40.5 38q-10 29 -10 67q0 37 14 72.5t39.5 63t61 44.5t79.5 17q26 0 50 -7.5t42 -23t29 -38t11 -52.5q0 -21 -7.5 -39.5t-21 -32.5t-32.5 -22t-41 -8q-35 0 -56 21.5t-21 50.5q0 31 18 49.5t38 23.5zM222 438q8 -19 20 -30.5t30 -11.5q9 0 16 5
t7 16q0 14 -13 20t-28 6q-9 0 -16.5 -1.5t-15.5 -3.5z" />
    <glyph glyph-name="quotesingle" unicode="'" horiz-adv-x="201" 
d="M147 474q1 7 4.5 23t8 37t10 43.5t10 42.5t8 35t5.5 20q5 20 19.5 25.5t26.5 5.5q18 0 25.5 -7t7.5 -15q0 -3 -1 -7q-3 -14 -15.5 -43t-27.5 -61.5t-28.5 -60.5t-19.5 -38h-33z" />
    <glyph glyph-name="parenleft" unicode="(" horiz-adv-x="317" 
d="M191 -136q-2 2 -17.5 25t-33 63.5t-31.5 96t-14 122.5q0 74 18 141.5t43 122.5t50.5 95t39.5 59q45 62 84.5 98.5t62.5 55.5l21 -27q-50 -45 -95.5 -108t-80.5 -136.5t-55.5 -154.5t-20.5 -163q0 -51 7.5 -95.5t17.5 -79.5t20 -59.5t15 -36.5z" />
    <glyph glyph-name="parenright" unicode=")" horiz-adv-x="317" 
d="M-38 -109q50 45 95.5 108t80.5 136.5t55.5 154.5t20.5 163q0 51 -7.5 95.5t-17.5 79.5t-20 59.5t-15 36.5l31 19q2 -2 17.5 -25t33 -63.5t31.5 -96t14 -122.5q0 -74 -18.5 -141.5t-43 -122.5t-50 -95t-39.5 -59q-45 -62 -84.5 -98.5t-62.5 -55.5z" />
    <glyph glyph-name="asterisk" unicode="*" horiz-adv-x="426" 
d="M300 548l-17 -11q-17 -10 -29 -19.5t-21.5 -16.5t-18 -11.5t-17.5 -4.5q-13 0 -20.5 10.5t-7.5 22.5q0 9 5 17.5t16 13.5q10 4 18.5 5t18 2t21 2.5t26.5 6.5l18 7l-16 9q-12 7 -26 11t-25.5 8t-19 10.5t-7.5 17.5q0 14 11.5 27t28.5 13q12 0 18.5 -6t11.5 -15.5
t11.5 -20.5t17.5 -21l14 -11l2 18q2 24 0.5 37.5t-1.5 30.5t10 30.5t30 13.5q13 0 22.5 -8t9.5 -21q0 -12 -4.5 -22t-11 -20t-14 -21t-12.5 -24l-6 -14l19 11q16 9 28 19.5t21.5 19t18.5 14t18 5.5q13 0 20.5 -11.5t7.5 -23.5q0 -18 -12 -25.5t-29.5 -11t-38 -6t-37.5 -10.5
l-7 -3l14 -7q12 -7 22 -10t18.5 -5.5t16 -4.5t15.5 -6q12 -7 12 -22q0 -14 -12 -28.5t-28 -14.5q-12 0 -18 5.5t-12 14.5t-13.5 21t-22.5 25l-11 9l-2 -20q-2 -21 -0.5 -35t1.5 -29q0 -20 -9.5 -32.5t-29.5 -12.5q-14 0 -22.5 7.5t-8.5 20.5q0 12 4 21t10 17.5t12 18
t11 21.5z" />
    <glyph glyph-name="plus" unicode="+" 
d="M265 146v161h-161v42h161v161h45v-161h160v-42h-160v-161h-45z" />
    <glyph glyph-name="comma" unicode="," horiz-adv-x="260" 
d="M-7 -137q12 9 27 23t28.5 30t23 32.5t9.5 30.5q0 12 -6 16.5t-11 5.5q-17 2 -30.5 13.5t-13.5 35.5q0 27 16.5 41.5t42.5 14.5q29 0 45 -21.5t16 -52.5q0 -30 -10 -56.5t-27 -50.5t-40 -45.5t-49 -40.5z" />
    <glyph glyph-name="hyphen" unicode="-" horiz-adv-x="342" 
d="M65 279h247l-25 -66h-247z" />
    <glyph glyph-name="period" unicode="." horiz-adv-x="260" 
d="M7 41q0 26 17.5 45.5t47.5 19.5q22 0 36 -14t14 -35q0 -25 -18.5 -45.5t-46.5 -20.5q-24 0 -37 15t-13 35z" />
    <glyph glyph-name="slash" unicode="/" horiz-adv-x="347" 
d="M445 732h59l-537 -817h-59z" />
    <glyph glyph-name="zero" unicode="0" 
d="M179 -17q-62 0 -94.5 40.5t-32.5 139.5q0 48 8.5 97.5t24 97t37.5 91.5t49 81q54 73 112.5 108t110.5 35q63 0 99.5 -42.5t36.5 -137.5q0 -63 -16 -129.5t-44 -128t-66.5 -113.5t-83.5 -86q-39 -29 -72.5 -41t-68.5 -12zM193 19q40 0 74.5 29.5t63 77t51 105.5t38 115.5
t23.5 107t8 79.5q0 51 -15 77.5t-49 26.5q-40 0 -74.5 -30t-63 -77t-51 -105.5t-38 -116t-23.5 -107.5t-8 -80q0 -22 3 -40.5t10.5 -32t19.5 -21.5t31 -8z" />
    <glyph glyph-name="one" unicode="1" 
d="M43 32l72 7q29 2 42 14.5t20 32.5l156 450q3 8 6 17.5t3 14.5q0 7 -7 7q-5 0 -12.5 -2t-18.5 -5l-77 -22l-10 34q20 7 54 19.5t66 28.5q26 14 50 28t39 28h37l-187 -542q-12 -35 -16.5 -50.5t-4.5 -26.5t7.5 -18t28.5 -9l65 -6l-12 -32h-312z" />
    <glyph glyph-name="two" unicode="2" 
d="M330 69q8 0 13 3t10 8l48 56h38l-58 -136h-375q20 70 59.5 128.5t87 108.5t97.5 93t90.5 82t66.5 76.5t26 75.5q0 29 -17.5 48.5t-57.5 19.5q-38 0 -71.5 -18.5t-59 -41.5t-41.5 -43t-19 -24l-34 22q14 19 36.5 44.5t54 48t72.5 38t91 15.5q27 0 52 -7t44 -21t30.5 -35
t11.5 -50q0 -42 -24.5 -78.5t-63.5 -72t-88 -71.5t-98.5 -76.5t-94 -88t-74.5 -104.5h248z" />
    <glyph glyph-name="three" unicode="3" 
d="M174 339q44 14 89.5 34.5t82 47t59.5 59.5t23 74q0 29 -16.5 50.5t-58.5 21.5q-27 0 -53 -12.5t-48.5 -30.5t-41.5 -38t-32 -35l-29 23q7 9 27 32t50.5 47t70.5 42.5t87 18.5q59 0 90 -28.5t31 -77.5q0 -31 -13 -58t-35 -50.5t-49.5 -44t-55.5 -38.5q18 -5 34.5 -15
t29.5 -26.5t21 -39.5t8 -53q0 -50 -23.5 -96.5t-62.5 -82.5t-90 -58t-106 -22q-23 0 -50 3.5t-50.5 12.5t-39.5 23.5t-16 36.5q0 17 11.5 30t32.5 13q25 0 35 -12.5t19 -28t23 -28t47 -12.5q35 0 68 12.5t58.5 36.5t40.5 59.5t15 81.5q0 52 -22 81.5t-66 29.5
q-14 0 -27.5 -2.5t-24.5 -5.5t-19.5 -6t-11.5 -3z" />
    <glyph glyph-name="four" unicode="4" 
d="M296 193h-243l13 42l397 438h74l-150 -425h87l-18 -55h-88l-63 -193h-77zM315 248l114 330l-294 -330h180z" />
    <glyph glyph-name="five" unicode="5" 
d="M198 400q2 1 24.5 6t64.5 5q39 0 68.5 -12t50 -33t31 -50t10.5 -62q0 -51 -21 -100t-57.5 -87t-86 -61t-107.5 -23q-41 0 -69.5 6.5t-46 17.5t-25 25t-7.5 29q0 17 11 30t33 13q24 0 34.5 -13t19.5 -28.5t24 -28.5t49 -13q36 0 66.5 18.5t52.5 48.5t34.5 67t12.5 75
q0 62 -29.5 90.5t-86.5 28.5q-18 0 -36 -2.5t-32.5 -6t-25 -6t-14.5 -2.5q-10 0 -10 9q0 5 16 48l93 260h214q10 0 17.5 6t12 14t7.5 16t5 13h37l-33 -105q-3 -9 -12 -11.5t-18 -2.5h-208z" />
    <glyph glyph-name="six" unicode="6" 
d="M528 657q-87 -33 -166.5 -96.5t-140.5 -167.5q27 20 59 32t70 12q63 0 94.5 -35t31.5 -91q0 -54 -23 -112t-61 -106t-89 -79t-106 -31q-69 0 -100.5 41t-31.5 124q0 87 36.5 172t99 157.5t144.5 127.5t172 83zM193 17q37 0 73.5 30.5t65.5 75t46.5 95.5t17.5 93
q0 45 -19.5 65.5t-54.5 20.5q-49 0 -85.5 -29.5t-61 -73t-36.5 -92.5t-12 -88q0 -31 5 -50t14 -29.5t21 -14t26 -3.5z" />
    <glyph glyph-name="seven" unicode="7" 
d="M223 689h36q-1 -6 -1.5 -13.5t2 -13.5t10 -10t22.5 -4h262l9 -22q-53 -73 -104 -150t-94.5 -152.5t-77.5 -146t-52 -131.5q-11 -38 -24 -54.5t-36 -16.5q-21 0 -29.5 10.5t-8.5 27.5q0 13 3.5 25t8.5 26q14 36 43 86t64 104.5t73 108.5t70.5 99t55.5 75.5t29 38.5h-209
q-22 0 -36.5 -5t-24 -13.5t-16 -19t-12.5 -21.5h-43z" />
    <glyph glyph-name="eight" unicode="8" 
d="M235 386q-5 6 -13.5 17t-16.5 26.5t-14 34t-6 39.5q0 43 16 75t42.5 53t60.5 31.5t70 10.5q70 0 110 -34t40 -87q0 -36 -16.5 -63.5t-41.5 -49t-55 -37.5t-58 -28l28 -34q24 -29 45 -67t21 -81q0 -54 -18.5 -93.5t-48.5 -65t-68.5 -38t-78.5 -12.5q-50 0 -86.5 13.5
t-60 35.5t-35 50.5t-11.5 59.5q0 45 21.5 80t53.5 62t69.5 46.5t69.5 32.5zM275 336q-33 -17 -61 -34.5t-48.5 -39t-32 -49.5t-11.5 -65q0 -26 7.5 -49.5t22.5 -41t38 -27.5t53 -10q60 0 94.5 35t34.5 95q0 34 -11.5 62.5t-32.5 56.5zM331 397q26 15 49.5 32.5t41 37.5
t28 43t10.5 50q0 34 -21 57t-69 23q-49 0 -82 -29t-33 -75q0 -21 7 -40.5t18 -36.5t24.5 -33t26.5 -29z" />
    <glyph glyph-name="nine" unicode="9" 
d="M52 -1q87 33 166.5 96.5t140.5 167.5q-27 -20 -59 -32t-70 -12q-63 0 -94.5 35t-31.5 91q0 54 23 112t61 106t88.5 79t106.5 31q69 0 100.5 -41t31.5 -124q0 -87 -36.5 -172t-99 -157.5t-144.5 -127.5t-172 -83zM258 259q49 0 85.5 29.5t61 73t36.5 92.5t12 88
q0 31 -5.5 50t-14.5 29.5t-21 14t-25 3.5q-38 0 -74 -30.5t-65 -75t-46.5 -95.5t-17.5 -93q0 -45 19.5 -65.5t54.5 -20.5z" />
    <glyph glyph-name="colon" unicode=":" horiz-adv-x="260" 
d="M7 41q0 26 17.5 45.5t47.5 19.5q22 0 36 -14t14 -35q0 -25 -18.5 -45.5t-46.5 -20.5q-24 0 -37 15t-13 35zM112 366q0 26 17.5 45.5t47.5 19.5q22 0 36 -14t14 -35q0 -25 -18.5 -45.5t-46.5 -20.5q-24 0 -37 15t-13 35z" />
    <glyph glyph-name="semicolon" unicode=";" horiz-adv-x="260" 
d="M-7 -137q12 9 27 23t28.5 30t23 32.5t9.5 30.5q0 12 -6 16.5t-11 5.5q-17 2 -30.5 13.5t-13.5 35.5q0 27 16.5 41.5t42.5 14.5q29 0 45 -21.5t16 -52.5q0 -30 -10 -56.5t-27 -50.5t-40 -45.5t-49 -40.5zM108 366q0 26 17.5 45.5t47.5 19.5q22 0 36 -14t14 -35
q0 -25 -18.5 -45.5t-46.5 -20.5q-24 0 -37 15t-13 35z" />
    <glyph glyph-name="less" unicode="&#x3c;" 
d="M93 309v36l366 165v-53l-294 -128v-4l294 -127v-52z" />
    <glyph glyph-name="equal" unicode="=" 
d="M100 274h366v-42h-366v42zM100 424h366v-42h-366v42z" />
    <glyph glyph-name="greater" unicode="&#x3e;" 
d="M106 146v52l294 127v4l-294 128v53l366 -165v-36z" />
    <glyph glyph-name="question" unicode="?" horiz-adv-x="385" 
d="M241 168q-52 1 -86.5 26.5t-34.5 70.5q0 35 17.5 63t44 52.5t57 46.5t57 46.5t44 51.5t17.5 62q0 19 -6.5 32.5t-16 21.5t-21.5 11.5t-23 3.5q-21 0 -33.5 -8.5t-22.5 -25.5q-11 -20 -22 -27.5t-26 -7.5t-26.5 9.5t-11.5 25.5q0 28 31.5 48t94.5 20q69 0 106 -36t37 -93
q0 -39 -17.5 -69.5t-43.5 -56t-56.5 -47t-56.5 -42.5t-43.5 -42.5t-17.5 -46.5q0 -9 2.5 -18t10 -17t20.5 -13.5t33 -7.5zM89 33q0 23 16 40.5t43 17.5q20 0 33 -12.5t13 -31.5q0 -23 -17 -41.5t-42 -18.5q-22 0 -34 13.5t-12 32.5z" />
    <glyph glyph-name="at" unicode="@" horiz-adv-x="758" 
d="M578 -108q-23 -14 -48 -23.5t-51 -15t-50.5 -8t-45.5 -2.5q-62 0 -122.5 18t-108 55.5t-77 95t-29.5 136.5q0 88 32.5 159.5t87.5 122t126.5 78t148.5 27.5q69 0 124 -22t93 -58t58 -83t20 -97q0 -52 -16.5 -98.5t-46 -82t-69.5 -56t-88 -20.5q-39 0 -61.5 19.5
t-22.5 55.5v9t1 10q-34 -50 -68 -66.5t-66 -16.5q-16 0 -32 4t-29 15t-21 29t-8 47q0 43 18.5 90.5t49.5 87.5t71.5 66t83.5 26q27 0 42.5 -12t21.5 -22l13 34h62l-68 -236q-8 -27 -9 -41t-1 -22q0 -14 8.5 -24.5t33.5 -10.5q27 0 54 15t48.5 42.5t34.5 66.5t13 87
q0 50 -19 91t-52.5 70t-80 45t-101.5 16q-74 0 -132 -29.5t-98 -77.5t-61 -110t-21 -127q0 -44 15 -90.5t49 -84.5t87.5 -62t130.5 -24q59 0 97.5 12t63.5 23zM324 69q24 0 53.5 24t54.5 81q3 6 9.5 21.5t13 35t11.5 41t5 40.5q0 21 -8.5 35t-29.5 14q-23 0 -50.5 -24
t-51 -59t-39 -75t-15.5 -72q0 -20 4.5 -32t11.5 -18.5t15 -9t16 -2.5z" />
    <glyph glyph-name="A" unicode="A" horiz-adv-x="657" 
d="M-66 0l11 32q22 1 42 5.5t40.5 16.5t43 35t48.5 61l345 503l91 26l-41 -551q-3 -35 1.5 -54t15 -28.5t26 -11.5t35.5 -2l-11 -32h-274l11 32q31 0 51.5 5t32.5 15t17 26t7 37l12 128h-201l-57 -84q-6 -9 -14.5 -22.5t-17 -28t-14 -28t-5.5 -23.5q0 -9 5.5 -14t14.5 -7.5
t20.5 -3t23.5 -0.5l-11 -32h-248zM264 284h176l28 301z" />
    <glyph glyph-name="B" unicode="B" horiz-adv-x="632" 
d="M257 37q42 0 79 7.5t64.5 26t44 49.5t16.5 77q0 24 -7 47t-22 41.5t-40 29.5t-61 11h-78l-60 -179q-11 -35 -16.5 -50.5t-5.5 -26.5t8.5 -22t34.5 -11h43zM346 367q40 0 74 9t59.5 28.5t40 49.5t14.5 72q0 49 -28.5 80t-95.5 31q-34 0 -45.5 -9t-17.5 -26l-80 -235h79z
M-7 32l40 4q35 4 49 45l152 452q11 35 16 49.5t5 25.5t-7.5 19.5t-24.5 10.5l-46 3l12 32h218q54 0 94.5 -11.5t67.5 -32t40 -48t13 -59.5q0 -39 -15 -70.5t-41 -54.5t-60.5 -37.5t-72.5 -19.5q124 -40 124 -153q0 -55 -22.5 -91t-59.5 -57.5t-85.5 -30t-100.5 -8.5h-307z
" />
    <glyph glyph-name="C" unicode="C" horiz-adv-x="635" 
d="M479 71q-24 -26 -49 -43t-51.5 -27t-54.5 -14t-58 -4q-61 0 -100.5 19.5t-63 49.5t-33 67.5t-9.5 73.5q0 103 39 193.5t103 158t144 106.5t163 39q36 0 60.5 -5.5t40 -11.5t24.5 -11.5t15 -5.5q8 0 14.5 7.5t12.5 18.5h29l-75 -219h-33l4 60q2 28 1 52t-10.5 41.5
t-29.5 27.5t-56 10q-39 0 -80 -17.5t-79.5 -49t-73 -74.5t-60 -94t-40.5 -108.5t-15 -116.5q0 -39 7.5 -70.5t24.5 -54t44 -34.5t65 -12q31 0 59.5 10t52.5 26t43.5 35.5t33.5 39.5q23 31 39.5 61t27.5 59h35l-79 -254h-34z" />
    <glyph glyph-name="D" unicode="D" horiz-adv-x="716" 
d="M-7 32l40 4q35 4 49 45l152 452q11 35 16 49.5t5 25.5t-7.5 19.5t-24.5 10.5l-46 3l12 32h206q48 0 102 -13.5t99 -46.5t74.5 -89.5t29.5 -143.5q0 -60 -17 -113t-45.5 -97t-66.5 -77.5t-81 -52.5q-51 -23 -107 -31.5t-121 -8.5h-280zM260 37q87 0 151.5 32t107.5 83
t64 115.5t21 129.5q0 70 -18 116.5t-47.5 73.5t-67 38t-75.5 11q-16 0 -25.5 -4.5t-15.5 -12t-9.5 -17t-6.5 -19.5l-151 -453q-4 -12 -7 -26t-3 -20q0 -11 2.5 -20t10.5 -15t23.5 -9t41.5 -3h4z" />
    <glyph glyph-name="E" unicode="E" horiz-adv-x="651" 
d="M-18 0l11 32l40 4q35 4 49 45l152 452q11 35 16 49.5t5 25.5t-7.5 19.5t-24.5 10.5l-46 3l12 32h441l16 -134h-32l-50 76q-5 8 -11.5 11.5t-17.5 3.5h-181l-84 -253h93q32 0 54 6.5t36 18t23 27.5t16 36h34l-84 -253l-34 -1q1 8 3 26.5t2 33.5q0 32 -18 48.5t-65 16.5
h-75l-62 -188q-12 -35 -16.5 -49t-4.5 -25t8 -20.5t30 -9.5h230q11 0 16.5 3t10.5 10l90 118h31l-45 -175h-561z" />
    <glyph glyph-name="F" unicode="F" horiz-adv-x="589" 
d="M-18 0l11 32l40 4q35 4 49 45l152 452q11 35 16 49.5t5 25.5t-7.5 19.5t-24.5 10.5l-46 3l12 32h451l19 -154h-32l-62 96q-5 8 -11.5 11.5t-17.5 3.5h-181l-83 -254h91q32 0 54 6.5t36 18t23 27.5t16 36h34l-87 -263l-34 -1q0 4 1.5 12.5t2.5 19t2 20.5t1 18
q0 32 -18 48.5t-66 16.5h-71l-65 -195q-12 -35 -16 -49.5t-4 -25.5t10 -19.5t34 -10.5l56 -3l-12 -32h-278z" />
    <glyph glyph-name="G" unicode="G" horiz-adv-x="684" 
d="M494 170q6 17 10 31t4 20q0 11 -7.5 19.5t-24.5 10.5l-55 3l12 32h248l-11 -32l-32 -4q-35 -4 -49 -45l-54 -159q-8 -5 -27 -15t-47 -20.5t-64 -18.5t-77 -8q-56 0 -102 15t-78.5 45t-50 75.5t-17.5 106.5q0 111 38.5 197.5t98.5 146t133.5 90t143.5 30.5q42 0 71.5 -7.5
t50 -16.5t33.5 -16.5t21 -7.5t14 9t9 19h29l-53 -231h-34l-2 45q-1 35 -8 66t-22.5 54t-40.5 36.5t-63 13.5q-65 0 -123.5 -36t-102.5 -95.5t-70 -137t-26 -159.5q0 -34 6 -70t23.5 -65.5t49.5 -48.5t83 -19q19 0 40.5 3.5t41.5 15.5t38 34t31 59z" />
    <glyph glyph-name="H" unicode="H" horiz-adv-x="735" 
d="M-7 32l40 4q35 4 49 45l152 452q11 35 16 49.5t5 25.5t-7.5 19.5t-24.5 10.5l-46 3l12 32h257l-11 -32l-42 -4q-35 -4 -49 -45l-76 -225h291l56 166q12 35 17 49.5t5 25.5t-7.5 19.5t-24.5 10.5l-47 3l12 32h255l-11 -32l-40 -4q-35 -4 -49 -45l-152 -452
q-11 -35 -16 -49.5t-5 -25.5t7.5 -19.5t24.5 -10.5l46 -3l-12 -32h-258l11 32l43 4q35 4 49 45l81 241h-291l-61 -182q-12 -35 -17 -49.5t-5 -25.5t7.5 -19.5t24.5 -10.5l47 -3l-12 -32h-255z" />
    <glyph glyph-name="I" unicode="I" horiz-adv-x="356" 
d="M-7 32l40 4q35 4 49 45l152 452q11 35 16 49.5t5 25.5t-7.5 19.5t-24.5 10.5l-46 3l12 32h257l-11 -32l-42 -4q-35 -4 -49 -45l-152 -452q-12 -35 -17 -49.5t-5 -25.5t7.5 -19.5t24.5 -10.5l47 -3l-12 -32h-255z" />
    <glyph glyph-name="J" unicode="J" horiz-adv-x="433" 
d="M322 533q11 35 16 49.5t5 25.5t-7.5 19.5t-24.5 10.5l-46 3l12 32h256l-11 -32l-42 -4q-35 -4 -49 -45l-145 -433q-12 -36 -27 -68t-36.5 -56t-51.5 -38t-73 -14q-61 0 -91.5 27t-30.5 63q0 29 16 48.5t45 19.5q21 0 35 -10.5t14 -33.5q0 -16 -6 -24t-13.5 -13.5
t-13.5 -9.5t-6 -11q0 -12 12.5 -17t30.5 -5q37 0 55.5 22.5t32.5 64.5z" />
    <glyph glyph-name="K" unicode="K" horiz-adv-x="681" 
d="M-7 32l40 4q35 4 49 45l152 452q11 35 16 49.5t5 25.5t-7.5 19.5t-24.5 10.5l-46 3l12 32h247l-11 -32l-32 -4q-35 -4 -49 -45l-81 -240l238 209q26 23 35 34.5t9 21.5q0 18 -14.5 21t-37.5 3l11 32h217l-11 -32q-22 -1 -38 -5.5t-33 -15t-39.5 -29.5t-57.5 -50
l-168 -148l135 -297q17 -30 41.5 -47t70.5 -17l-11 -32h-269l11 32l30 2q26 2 32.5 18t-10.5 46l-99 234l-69 -61l-44 -131q-12 -35 -17 -49.5t-5 -25.5t7.5 -19.5t24.5 -10.5l44 -3l-12 -32h-252z" />
    <glyph glyph-name="L" unicode="L" horiz-adv-x="615" 
d="M-7 32l40 4q35 4 49 45l152 452q11 35 16 49.5t5 25.5t-7.5 19.5t-24.5 10.5l-46 3l12 32h262l-11 -32l-47 -4q-35 -4 -49 -45l-149 -444q-11 -35 -16 -49t-5 -25t8 -20.5t30 -9.5h211q11 0 16.5 3t10.5 10l91 118h31l-50 -175h-540z" />
    <glyph glyph-name="M" unicode="M" horiz-adv-x="871" 
d="M-80 0l11 32q26 1 48.5 6t42 18.5t37.5 37.5t35 63l201 464q-3 7 -10.5 11t-18 5.5t-22 2t-23.5 1.5l10 32h191l-18 -525l362 525h195l-11 -32l-42 -4q-35 -4 -49 -45l-153 -452q-12 -35 -15.5 -49.5t-3.5 -25.5t7 -19.5t32 -10.5l57 -3l-12 -32h-277l11 32l45 4
q23 2 35 13.5t19 31.5l184 540l-430 -616h-44l24 598l-179 -414q-12 -29 -20 -48t-12.5 -31.5t-6 -20.5t-1.5 -15q0 -42 83 -42l-11 -32h-271z" />
    <glyph glyph-name="N" unicode="N" horiz-adv-x="709" 
d="M-58 0l11 32q26 1 48 6t41.5 17.5t35.5 36.5t30 65l156 464q-12 13 -37.5 16t-48.5 4l10 32h164l147 -536l131 395q5 17 10 35t5 27q0 26 -17 36.5t-62 10.5l11 32h243l-11 -32q-26 -2 -45 -6.5t-34.5 -17t-28.5 -37t-27 -64.5l-177 -524h-46l-157 580l-143 -431
q-5 -17 -9.5 -35t-4.5 -27q0 -26 22 -36.5t67 -10.5l-11 -32h-273z" />
    <glyph glyph-name="O" unicode="O" horiz-adv-x="651" 
d="M286 -17q-48 0 -87.5 14t-68 44t-44.5 75.5t-16 108.5q0 77 27 159.5t75.5 150.5t116 111.5t148.5 43.5q106 0 160 -63.5t54 -178.5q0 -88 -29.5 -171.5t-80 -149t-116.5 -105t-139 -39.5zM281 18q44 0 82 24.5t69.5 64t55.5 90t40.5 102.5t25 101t8.5 87
q0 85 -30.5 126.5t-89.5 41.5q-39 0 -75.5 -23.5t-68 -62t-57.5 -88t-44.5 -102t-28.5 -103t-10 -90.5q0 -48 12 -80.5t30 -52t39.5 -27.5t41.5 -8z" />
    <glyph glyph-name="P" unicode="P" horiz-adv-x="585" 
d="M-18 0l11 32l40 4q35 4 49 45l152 452q11 35 16 49.5t5 25.5t-7.5 19.5t-24.5 10.5l-46 3l12 32h216q111 0 166 -44.5t55 -117.5q0 -43 -15 -79t-42 -63.5t-64.5 -45t-82.5 -23.5q-29 -4 -65 -4.5t-67 -0.5h-46l-52 -155q-11 -35 -16.5 -49.5t-5.5 -25.5t7.5 -19.5
t24.5 -10.5l46 -3l-12 -32h-254zM258 336h62q43 0 82 10t69 31.5t47.5 56.5t17.5 86q0 53 -34 85.5t-95 32.5q-32 0 -42.5 -8t-16.5 -25z" />
    <glyph glyph-name="Q" unicode="Q" horiz-adv-x="651" 
d="M162 -89q3 -1 18 -7t37 -12.5t49.5 -11.5t55.5 -5q42 0 69 6t43.5 15t25.5 20t15 22h36q-3 -15 -15 -38.5t-34.5 -46t-57 -39t-82.5 -16.5q-43 0 -71.5 17t-51.5 34q-19 14 -41 27.5t-48 13.5q-7 0 -12.5 -2t-5.5 -7q0 -6 3.5 -10t3.5 -16q0 -14 -9 -22t-23 -8t-22.5 9
t-8.5 24q0 13 6 21.5t18.5 16.5t31 16t43.5 19q26 12 58.5 25.5t65.5 27.5q-42 4 -77 20t-60 45.5t-38.5 73t-13.5 102.5q0 77 27 159.5t75.5 150.5t116 111.5t148.5 43.5q106 0 160 -63.5t54 -178.5q0 -72 -19.5 -141.5t-55 -129t-85 -105.5t-108.5 -70zM281 18
q44 0 82 24.5t69.5 64t55.5 90t40.5 102.5t25 101t8.5 87q0 85 -30.5 126.5t-89.5 41.5q-39 0 -75.5 -23.5t-68 -62t-57.5 -88t-44.5 -102t-28.5 -103t-10 -90.5q0 -48 12 -80.5t30 -52t39.5 -27.5t41.5 -8z" />
    <glyph glyph-name="R" unicode="R" horiz-adv-x="695" 
d="M-18 0l11 32l40 4q35 4 49 45l152 452q11 35 16 49.5t5 25.5t-7.5 19.5t-24.5 10.5l-46 3l12 32h220q58 0 98 -12t65.5 -32.5t37 -48t11.5 -59.5q0 -46 -15.5 -82t-42.5 -62t-64.5 -42.5t-81.5 -22.5l69 -166q16 -39 30 -61.5t30.5 -34t37.5 -15t51 -3.5l-11 -32h-179
q-4 14 -12.5 38.5t-25.5 65.5l-85 205h-73l-57 -169q-12 -35 -17 -49.5t-5 -25.5t7.5 -19.5t24.5 -10.5l47 -3l-12 -32h-255zM262 349h69q38 0 74 8t64 28t45 54t17 87q0 49 -28 80.5t-90 31.5q-17 0 -28 -1.5t-18 -6t-12 -13t-10 -22.5z" />
    <glyph glyph-name="S" unicode="S" horiz-adv-x="541" 
d="M86 234h33q-7 -41 -5 -79.5t17 -69t46 -49t82 -18.5q53 0 86 31.5t33 90.5q0 27 -8.5 49.5t-22.5 43t-31 38.5t-35 36q-19 19 -38 39.5t-34.5 44t-25 51.5t-9.5 64q0 44 16 78.5t43 58t63 35.5t77 12q34 0 58.5 -5.5t42.5 -12t30.5 -12t21.5 -5.5q11 0 18 6t14 24h29
l-71 -226h-33q5 35 5 70t-11 63t-35.5 45.5t-67.5 17.5q-53 0 -83.5 -30.5t-30.5 -85.5q0 -43 24.5 -77t66.5 -77q21 -21 41.5 -43.5t37 -48t27 -54.5t10.5 -63q0 -43 -16.5 -78.5t-45 -61t-67.5 -39.5t-85 -14q-41 0 -69 8t-48 18t-34.5 18t-27.5 8t-20 -9.5t-14 -20.5h-29
z" />
    <glyph glyph-name="T" unicode="T" horiz-adv-x="620" 
d="M101 32l60 4q35 3 49 45l184 549h-131q-12 0 -23 -11l-91 -111h-34l57 165h560l-50 -165h-30l-18 106q-2 8 -6 12t-13 4h-132l-162 -488q-11 -35 -16 -50t-5 -26t7.5 -18.5t28.5 -9.5l70 -6l-12 -32h-304z" />
    <glyph glyph-name="U" unicode="U" horiz-adv-x="672" 
d="M213 533q11 35 16 49.5t5 25.5t-7.5 19.5t-24.5 10.5l-46 3l12 32h257l-11 -32l-42 -4q-35 -4 -49 -45l-120 -357q-8 -23 -12.5 -47.5t-4.5 -45.5q0 -54 28.5 -82.5t94.5 -28.5q67 0 106 34.5t64 106.5l123 360q6 17 10.5 35t4.5 27q0 26 -17 36.5t-62 10.5l11 32h243
l-11 -32q-26 -2 -45 -6.5t-34.5 -17t-28.5 -37t-27 -64.5l-127 -360q-30 -84 -82.5 -128.5t-148.5 -44.5q-37 0 -71 7.5t-60 26.5t-41.5 50.5t-15.5 78.5q0 28 7.5 61t18.5 67z" />
    <glyph glyph-name="V" unicode="V" horiz-adv-x="664" 
d="M188 -17l25 562q1 34 -3.5 53.5t-14.5 29t-25.5 11.5t-34.5 2l11 32h274l-11 -32q-32 0 -52 -5t-32 -15t-17.5 -26t-6.5 -37l-20 -431l262 373q10 15 20.5 30.5t19.5 31t15 29.5t6 25q0 9 -5.5 14t-14.5 7.5t-20.5 3t-23.5 0.5l11 32h248l-11 -32q-22 -1 -42 -5.5
t-40.5 -16.5t-43 -35t-48.5 -61l-378 -540h-48z" />
    <glyph glyph-name="W" unicode="W" horiz-adv-x="915" 
d="M180 -17l31 580q1 28 -3.5 43.5t-14 23t-24.5 9.5t-34 2l11 32h243l-11 -32q-28 0 -43.5 -5t-23.5 -15t-10.5 -26t-3.5 -37l-25 -429l232 343l6 99q2 42 -9 56t-50 14l11 32h243l-11 -32q-32 0 -50.5 -5t-29 -15t-14.5 -26t-5 -37l-24 -414l233 356q9 15 19.5 30t18.5 30
t13.5 28t5.5 24q0 29 -60 29l11 32h238l-11 -32q-22 -1 -40.5 -5.5t-37 -16.5t-39.5 -35t-47 -61l-356 -540h-46l25 402l-272 -402h-46z" />
    <glyph glyph-name="X" unicode="X" horiz-adv-x="700" 
d="M-48 0l11 32q22 1 44 6.5t46 18t51 34.5t59 55l177 184l-75 231q-9 26 -20.5 42t-26 24.5t-32 11t-36.5 2.5l11 32h261l-11 -32q-28 0 -42 -5.5t-18.5 -16t-1.5 -25.5t9 -34l51 -157l136 141q24 25 33 40.5t9 28.5q0 16 -16.5 22t-47.5 6l11 32h255l-11 -32
q-22 -1 -42.5 -6.5t-42.5 -18.5t-47.5 -34.5t-57.5 -54.5l-163 -171l80 -244q9 -26 20.5 -42t26 -24.5t31.5 -11t37 -2.5l-11 -32h-262l11 32q28 0 42 5t19 15t2 25.5t-10 35.5l-56 170l-146 -153q-24 -25 -33.5 -40.5t-9.5 -28.5q0 -16 18.5 -22.5t49.5 -6.5l-11 -32h-271z
" />
    <glyph glyph-name="Y" unicode="Y" horiz-adv-x="687" 
d="M153 0l11 32l45 4q35 4 49 45l78 229l-90 251q-9 26 -20.5 41.5t-25 24t-30 11.5t-35.5 3l11 32h257l-11 -32q-36 0 -50 -9t-14 -26q0 -9 3 -21t8 -26l68 -201l171 185q23 26 32.5 41.5t9.5 28.5q0 16 -16.5 22t-47.5 6l11 32h255l-11 -32q-22 -1 -42.5 -6t-43 -18
t-48 -34.5t-56.5 -55.5l-194 -210l-59 -177q-12 -35 -16.5 -49.5t-4.5 -25.5t9.5 -19.5t26.5 -10.5l52 -3l-12 -32h-270z" />
    <glyph glyph-name="Z" unicode="Z" horiz-adv-x="590" 
d="M-17 0l15 45l502 585h-234q-8 0 -13 -3t-10 -8l-98 -116h-38l79 170h434l-15 -45l-500 -584h308q8 0 13 3t10 8l98 115h38l-79 -170h-510z" />
    <glyph glyph-name="bracketleft" unicode="[" horiz-adv-x="314" 
d="M292 746h169l-12 -34l-81 -3q-14 -1 -24.5 -8.5t-16.5 -24.5l-248 -722q-3 -9 -3 -15q0 -17 21 -18l80 -3l-12 -34h-169z" />
    <glyph glyph-name="backslash" unicode="\" horiz-adv-x="440" 
d="M305 -85l-150 817h53l149 -817h-52z" />
    <glyph glyph-name="bracketright" unicode="]" horiz-adv-x="314" 
d="M-98 -82l81 3q14 1 24.5 8.5t16.5 24.5l248 722q3 9 3 15q0 16 -21 18l-80 3l12 34h169l-296 -862h-169z" />
    <glyph glyph-name="asciicircum" unicode="^" horiz-adv-x="524" 
d="M118 332l185 379h36l184 -379h-52l-149 307h-4l-147 -307h-53z" />
    <glyph glyph-name="underscore" unicode="_" horiz-adv-x="500" 
d="M-90 -142h500v-32h-500v32z" />
    <glyph glyph-name="grave" unicode="`" horiz-adv-x="500" 
d="M322 489l-132 137q-16 16 -16 30q0 15 10 24t25 9q8 0 15 -3t14 -14l110 -162z" />
    <glyph glyph-name="a" unicode="a" horiz-adv-x="492" 
d="M385 382q-3 13 -14.5 24.5t-39.5 11.5q-24 0 -51 -18t-53 -47t-50 -66t-42 -74t-29 -71t-11 -58q0 -18 7.5 -28t28.5 -10q23 0 51.5 21.5t57 54t53 70.5t39.5 71zM276 123q-15 -22 -35.5 -45t-45.5 -42.5t-52.5 -32t-57.5 -12.5q-32 0 -52 16t-20 59q0 37 13.5 80
t36.5 86t54.5 82.5t67.5 70t75 49t78 18.5q35 0 50 -12.5t20 -21.5l13 25h13t21.5 0.5t21.5 0.5h12l-144 -331q-11 -24 -13 -38.5t13 -14.5q17 0 43 21.5t55 53.5l22 -18q-14 -19 -34.5 -40t-44.5 -39t-49.5 -29.5t-50.5 -11.5q-20 0 -27.5 8.5t-7.5 23.5q0 19 8 41.5
t21 49.5z" />
    <glyph glyph-name="b" unicode="b" horiz-adv-x="425" 
d="M207 373l5 -2q35 35 71 58t75 23q16 0 31.5 -4t27.5 -13t19.5 -24.5t7.5 -38.5q0 -31 -12 -71t-33.5 -82.5t-51 -83t-64 -73t-74 -52t-79.5 -19.5q-59 0 -81.5 24.5t-22.5 67.5q0 21 8.5 52t26.5 72l184 418q12 26 -13 30l-38 6l10 28h132l5 -12zM96 81q0 -32 13.5 -43
t30.5 -11q23 0 48.5 18.5t50.5 49t47.5 68.5t39.5 76t27 73t10 60q0 21 -9.5 29.5t-25.5 8.5q-17 0 -42 -17t-51.5 -45t-52.5 -64t-45 -73q-23 -45 -32 -76.5t-9 -53.5z" />
    <glyph glyph-name="c" unicode="c" horiz-adv-x="373" 
d="M317 120q-12 -20 -29 -43t-39.5 -42t-51 -31.5t-62.5 -12.5q-20 0 -40 4.5t-36 16.5t-26 33t-10 54q0 47 23 108t63.5 115.5t95.5 92t118 37.5q35 0 60 -14.5t25 -40.5q0 -17 -10.5 -32t-34.5 -15q-23 0 -33 10t-10 21q0 8 2.5 15t3.5 12.5t-2 8.5t-13 3
q-24 0 -48.5 -17.5t-48 -45.5t-43.5 -63.5t-35.5 -72t-24 -71t-8.5 -59.5q0 -28 13 -43.5t36 -15.5q32 0 68 28.5t69 77.5z" />
    <glyph glyph-name="d" unicode="d" horiz-adv-x="500" 
d="M385 382q-3 13 -14.5 24.5t-39.5 11.5q-24 0 -51 -18t-53 -47t-50 -66t-42 -74t-29 -71t-11 -58q0 -18 7.5 -28t28.5 -10q23 0 51.5 22t57 54.5t53 70.5t39.5 70q14 31 26.5 59t26.5 60zM275 123q-15 -22 -35.5 -45t-45 -42.5t-52 -32t-57.5 -12.5q-32 0 -52 16t-20 59
q0 37 13.5 80t36.5 86t54.5 82.5t67.5 70t75 49t78 18.5q17 0 29 -3.5t20.5 -8.5t13 -10.5t6.5 -9.5l85 205q11 26 -13 30l-38 6l10 28h132l5 -12l-249 -581q-5 -13 -7 -24.5t13 -11.5q17 0 43 21.5t55 53.5l22 -18q-14 -19 -34.5 -40t-44.5 -39t-49.5 -29.5t-50.5 -11.5
q-20 0 -27.5 8.5t-7.5 23.5q0 19 8 41.5t21 49.5z" />
    <glyph glyph-name="e" unicode="e" horiz-adv-x="389" 
d="M329 121q-15 -22 -36 -45t-48 -42t-58.5 -31t-65.5 -12q-17 0 -34 5t-31 16t-22.5 29.5t-8.5 45.5q0 34 10.5 74.5t30 81t46.5 78t60 67t70.5 47t78.5 17.5q45 0 65 -18.5t20 -41.5q0 -38 -21.5 -72t-60 -62.5t-92 -51t-116.5 -37.5q-4 -14 -7.5 -36t-3.5 -48
q0 -24 10.5 -38t30.5 -14q35 0 76.5 28t79.5 80zM128 203q44 13 82.5 33t67 45t45 53t16.5 56q0 17 -9.5 24.5t-25.5 7.5q-21 0 -44 -17.5t-46 -47t-45 -69.5t-41 -85z" />
    <glyph glyph-name="f" unicode="f" horiz-adv-x="279" 
d="M67 386l16 45h82q12 39 28 86.5t41 89.5t62 70.5t90 28.5q31 0 52.5 -13t21.5 -37q0 -21 -11.5 -32.5t-30.5 -11.5t-27.5 8t-13 17t-9.5 17t-17 8q-15 0 -28.5 -16t-24 -37t-17.5 -43t-11 -34l-31 -101h99l-16 -45h-97q-22 -66 -39 -127.5t-35.5 -121.5t-42 -119
t-57.5 -118q-11 -19 -25 -36.5t-32 -31t-40 -21.5t-48 -8t-48.5 12t-22.5 36q0 21 13 31.5t30 10.5q18 0 25.5 -7t12.5 -15.5t10.5 -15.5t17.5 -7q15 0 29.5 17t27 42.5t22.5 55t18 54.5l110 369h-84z" />
    <glyph glyph-name="g" unicode="g" horiz-adv-x="427" 
d="M61 -8q-45 13 -45 48q0 13 9.5 28.5t23 30.5t29.5 28t28 23q-20 14 -31.5 35.5t-11.5 62.5q0 34 15 70.5t42.5 66t65 48.5t82.5 19q29 0 54.5 -9.5t41.5 -31.5q24 17 49.5 29.5t51.5 12.5q17 0 27 -8t10 -22q0 -15 -10 -25t-33 -10q-17 0 -31 5t-26 5q-15 0 -27 -8
q5 -8 6.5 -20t1.5 -20q0 -36 -16 -73.5t-43.5 -68.5t-65.5 -51t-83 -20q-12 0 -21 0.5t-16 1.5q-19 -14 -33.5 -30.5t-14.5 -31.5q0 -9 4.5 -16t17 -13t35 -12t57.5 -14q38 -8 64.5 -17t43 -20t24 -26.5t7.5 -36.5q0 -38 -20.5 -63t-51 -39.5t-67 -20t-68.5 -5.5
q-34 0 -69.5 5t-64 16t-46.5 28.5t-18 41.5q0 19 11.5 35.5t29.5 30t39.5 24t42.5 17.5zM165 165q34 0 62 23t48 56t31 68.5t11 61.5q0 25 -12 39.5t-38 14.5q-21 0 -45.5 -17.5t-45.5 -47t-35 -68.5t-14 -82q0 -21 9 -34.5t29 -13.5zM108 -21q-8 -2 -25 -8t-33.5 -17.5
t-29 -28t-12.5 -37.5q0 -20 12 -31.5t30.5 -18.5t42 -9t46.5 -2q75 0 109.5 20.5t34.5 49.5q0 23 -16 37t-58 23z" />
    <glyph glyph-name="h" unicode="h" horiz-adv-x="511" 
d="M265 625q11 26 -13 30l-38 6l10 28h132l5 -12l-142 -333q-8 -20 -17 -37t-18 -35l5 -4q15 20 32 41t34.5 40t34 35.5t31.5 28.5q28 22 52.5 30.5t45.5 8.5q22 0 36.5 -12t14.5 -34q0 -34 -25 -90l-103 -229q-5 -10 -6.5 -18.5t7.5 -8.5q7 0 21.5 8.5t30 20.5t29 24.5
t19.5 20.5l23 -17q-11 -15 -31 -35.5t-45 -39.5t-52.5 -32t-52.5 -13q-16 0 -25.5 8.5t-9.5 22.5q0 6 2 15t7 21l116 265q5 11 8 22t3 20q0 18 -16 18q-22 0 -49 -24q-9 -8 -31 -29.5t-49.5 -53t-55.5 -69.5t-47 -77l-67 -136h-66z" />
    <glyph glyph-name="i" unicode="i" horiz-adv-x="304" 
d="M229 657q0 20 14 34.5t34 14.5t34.5 -14.5t14.5 -34.5t-14.5 -34t-34.5 -14t-34 14t-14 34zM167 318q12 26 16.5 41t4.5 21q0 13 -10 13q-5 0 -16.5 -9t-25.5 -23t-29 -32t-28 -37l-23 15q17 26 43 57t50 52q23 20 43 28t35 8q17 0 29.5 -12t12.5 -35q0 -15 -9 -40
t-18 -44l-107 -228q-5 -10 -8 -21.5t6 -11.5q8 0 21 7.5t27 19t27.5 25t22.5 24.5l23 -17q-11 -15 -30.5 -36t-44 -40t-52 -32.5t-52.5 -13.5q-16 0 -25.5 8.5t-9.5 22.5q0 6 2.5 16.5t7.5 21.5z" />
    <glyph glyph-name="j" unicode="j" horiz-adv-x="257" 
d="M163 334q6 15 9.5 28t3.5 19q0 13 -10 13q-6 0 -17.5 -9t-25 -23t-28 -32t-27.5 -37l-23 15q17 26 43 57t50 52q26 23 45 29t31 6q17 0 30 -11.5t13 -34.5q0 -15 -8.5 -40t-16.5 -44l-142 -340q-41 -96 -92 -137.5t-99 -41.5q-37 0 -57 13.5t-20 39.5q0 23 13 35t30 12
t28 -7.5t11 -26.5q0 -10 0.5 -19.5t14.5 -9.5q13 0 25 9.5t23 25t21 35.5t19 42zM218 657q0 20 14 34.5t34 14.5t34.5 -14.5t14.5 -34.5t-14.5 -34t-34.5 -14t-34 14t-14 34z" />
    <glyph glyph-name="k" unicode="k" horiz-adv-x="484" 
d="M179 238q35 3 76 13t76.5 26.5t59.5 38t24 48.5q0 14 -9.5 24.5t-29.5 10.5q-26 0 -56.5 -16t-50.5 -35q-23 -22 -47.5 -50.5t-42.5 -59.5zM265 624q11 27 -13 31l-38 6l10 28h132l5 -12l-141 -325l5 -3q11 13 30 31t44 34t55.5 27t64.5 11q26 0 48 -14t22 -44
q0 -36 -23 -70t-71 -59q-15 -8 -35 -15.5t-41.5 -14t-42.5 -11.5t-37 -8l41 -116q9 -26 18 -33t20 -7q12 0 25 8t26 19t24 23t18 20l23 -17q-16 -20 -34 -40t-38 -37t-42.5 -27.5t-47.5 -10.5q-19 0 -30.5 11t-20.5 37l-56 160l-90 -206h-70z" />
    <glyph glyph-name="l" unicode="l" horiz-adv-x="271" 
d="M265 625q11 26 -13 30l-38 6l10 28h132l5 -12l-251 -584q-5 -10 -8.5 -21.5t5.5 -11.5q8 0 21.5 8t29.5 21.5t33.5 31.5t34.5 38l23 -17q-15 -22 -38.5 -47.5t-50.5 -47t-56 -36t-54 -14.5q-16 0 -25.5 8.5t-9.5 22.5q0 6 2.5 16.5t7.5 21.5z" />
    <glyph glyph-name="m" unicode="m" horiz-adv-x="759" 
d="M167 328q7 15 10 28t3 19q0 13 -10 13q-5 0 -15.5 -8t-23.5 -21.5t-27.5 -31t-27.5 -36.5l-23 15q8 13 19.5 28.5t24 30.5t26 28.5t25.5 24.5q23 20 42 27t33 7q11 0 21 -8t10 -24q0 -17 -5 -36.5t-12 -39t-15 -38.5t-15 -35l4 -3q27 38 59 78t64 66q29 23 53.5 31.5
t45.5 8.5q22 0 37 -12t15 -34q0 -20 -9 -44t-15 -41l-30 -72l4 -3q12 19 30 43t37 47.5t37 43.5t30 31q27 24 49 32.5t45 8.5q25 0 40.5 -13t15.5 -36q0 -14 -4.5 -33t-16.5 -46l-101 -226q-10 -22 -10 -31q0 -7 6 -7q9 0 23 8.5t28.5 20.5t27 24.5l20.5 20.5l23 -17
q-16 -20 -37 -41t-44.5 -38.5t-49 -29t-50.5 -11.5q-16 0 -25.5 8.5t-9.5 22.5q0 13 10 38l115 263q5 11 8 22t3 20q0 8 -5 13t-13 5q-11 0 -22 -6.5t-25 -19.5q-7 -7 -23 -25.5t-36.5 -44.5t-43 -56.5t-43 -59.5t-37 -54t-24.5 -40l-44 -83h-67q34 72 66.5 146.5
t67.5 164.5q5 14 10.5 32.5t5.5 27.5q0 18 -20 18q-8 0 -20 -6t-26 -19q-11 -10 -34 -34.5t-48.5 -57t-50.5 -67.5t-40 -66l-69 -139h-65z" />
    <glyph glyph-name="n" unicode="n" horiz-adv-x="534" 
d="M167 328q7 15 10 28t3 19q0 13 -10 13q-5 0 -15.5 -8t-23.5 -21.5t-27.5 -31t-27.5 -36.5l-23 15q8 13 19.5 28.5t24 30.5t26 28.5t25.5 24.5q23 20 42 27t33 7q11 0 21 -8t10 -24q0 -17 -4.5 -36.5t-11.5 -39t-15 -38.5t-15 -35l4 -3q15 19 32 40t34.5 40.5t34 36
t29.5 27.5q29 23 54 31.5t46 8.5q22 0 37 -12t15 -34q0 -15 -4.5 -33.5t-12.5 -36.5l-106 -238q-10 -22 -10 -31q0 -7 6 -7q9 0 23 8.5t28.5 20.5t27 24.5l20.5 20.5l23 -17q-16 -20 -37 -41t-44.5 -38.5t-49 -29t-50.5 -11.5q-16 0 -25.5 8.5t-9.5 22.5q0 13 10 38l115 263
q5 11 8 22t3 20q0 18 -16 18q-22 0 -50 -25q-11 -10 -35 -34.5t-51 -57t-53 -67.5t-41 -66l-69 -139h-65z" />
    <glyph glyph-name="o" unicode="o" horiz-adv-x="418" 
d="M145 -9q-19 0 -38.5 5.5t-35.5 20.5t-26 40.5t-10 64.5q0 31 9 67.5t26 73t40.5 71t53.5 60.5t65 42t74 16q20 0 39.5 -5.5t35 -19.5t25 -40t9.5 -66q0 -31 -9 -67.5t-26 -73t-41.5 -70.5t-54 -60.5t-64 -42.5t-72.5 -16zM148 22q23 0 47 19.5t47 51t42.5 70.5t34.5 77
t23.5 71t8.5 54q0 20 -8.5 37.5t-36.5 17.5q-21 0 -45 -16t-46.5 -42.5t-43 -61.5t-36.5 -72t-25 -74.5t-9 -69.5q0 -62 47 -62z" />
    <glyph glyph-name="p" unicode="p" horiz-adv-x="465" 
d="M-113 -165l41 5q17 2 28 11t19 29l201 525q-25 -13 -53 -37.5t-62 -68.5l-25 20q37 50 74 81t81 45l32 82l74 25l7 -9l-34 -87q44 -1 77 -14.5t54.5 -36.5t32.5 -54t11 -67q0 -48 -18 -100t-52.5 -95t-84.5 -70.5t-113 -27.5q-50 0 -80 14l-36 -102q-2 -7 -5.5 -17.5
t-3.5 -21.5q0 -22 30 -25l55 -5l-8 -31h-249zM115 53q1 -3 3 -8t8 -9.5t17.5 -8t31.5 -3.5q43 0 78 24.5t60.5 62.5t39.5 85.5t14 92.5q0 24 -4.5 47.5t-16.5 42t-33.5 30.5t-55.5 13z" />
    <glyph glyph-name="q" unicode="q" horiz-adv-x="433" 
d="M365 377q-4 11 -19.5 26t-38.5 15q-27 0 -53 -18t-49.5 -47.5t-44 -66t-35 -74t-23 -71.5t-8.5 -58q0 -34 13.5 -44t34.5 -10q24 0 43.5 9.5t34.5 21.5t24.5 23t12.5 15zM79 -165l45 5q17 2 28 11t19 29l59 149q-4 -3 -13.5 -9.5t-23 -12.5t-30.5 -11t-37 -5
q-15 0 -32.5 4t-33 15t-25.5 32t-10 55q0 32 9.5 71t26.5 78.5t42 76.5t56 65.5t67 46t77 17.5q27 0 48.5 -10t31.5 -24l13 25h67l-198 -509q-11 -29 -15.5 -44t-4.5 -26t6 -17t22 -8l53 -5l-8 -31h-246z" />
    <glyph glyph-name="r" unicode="r" horiz-adv-x="410" 
d="M166 328q6 15 10 28t4 19q0 5 -1.5 9t-7.5 4t-16.5 -8t-23.5 -21.5t-27.5 -31t-27.5 -36.5l-23 15q8 13 19.5 28.5t24 30.5t26 28.5t25.5 24.5q23 20 42 27t33 7q13 0 22 -8.5t9 -26.5q0 -21 -8.5 -49t-17.5 -49l4 -3q13 19 29.5 43t37 44.5t45.5 34.5t55 14
q25 0 42.5 -14.5t17.5 -37.5q0 -21 -12 -34.5t-32 -13.5q-17 0 -25 6.5t-11 17.5q-2 8 -7 14t-16 6t-22.5 -9t-20.5 -18q-7 -7 -23 -25.5t-35.5 -45.5t-41 -60.5t-39.5 -70.5l-80 -167h-65z" />
    <glyph glyph-name="s" unicode="s" horiz-adv-x="326" 
d="M-30 63q0 16 10 27t26 11q17 0 28.5 -11t22.5 -32q8 -14 23 -24t44 -10q13 0 27 3t26 10t19.5 19t7.5 31q0 28 -16.5 51.5t-36 47.5t-35.5 50.5t-16 59.5q0 28 11.5 55.5t32.5 50t51 36.5t68 14q16 0 33 -4t31 -11t23 -17.5t9 -23.5t-8.5 -23t-25.5 -10q-16 0 -27 7.5
t-21.5 16.5t-22.5 16.5t-30 7.5q-11 0 -22.5 -5t-20.5 -13.5t-15 -20.5t-6 -27q0 -26 16.5 -51.5t36.5 -52t36.5 -54.5t16.5 -59q0 -29 -10.5 -54t-30 -43.5t-49 -29t-66.5 -10.5q-63 0 -101.5 21.5t-38.5 50.5z" />
    <glyph glyph-name="t" unicode="t" horiz-adv-x="293" 
d="M163 386h-61l16 45h65l35 87l73 23l8 -8l-44 -102h93l-14 -45h-98l-131 -302q-5 -10 -6 -19.5t8 -9.5q10 0 27 10t34.5 24t33 28t23.5 22l21 -20q-13 -15 -37 -36.5t-52 -40.5t-58 -32.5t-55 -13.5q-14 0 -22.5 9t-8.5 23q0 11 6 28z" />
    <glyph glyph-name="u" unicode="u" horiz-adv-x="530" 
d="M159 335q7 17 9.5 26t2.5 14q0 8 -7 8q-9 0 -23 -11t-29 -26t-28.5 -30t-20.5 -23l-23 17q16 19 37.5 43t46.5 44.5t51 34.5t51 14q16 0 25.5 -8.5t9.5 -22.5q0 -13 -10 -38l-100 -263q-5 -11 -8 -22t-3 -20q0 -18 16 -18q22 0 50 25q11 10 34 34.5t49.5 57t51.5 67.5
t40 66l69 139h65l-138 -328q-7 -15 -11 -28.5t-4 -19.5q0 -13 10 -13q5 0 15.5 7.5t24 20.5t28 30t27.5 36l23 -15q-8 -13 -19.5 -27.5t-24 -28.5t-25 -26t-22.5 -21q-27 -24 -46 -31.5t-33 -7.5t-24.5 8t-10.5 24q0 17 5.5 36.5t13.5 39t16.5 38.5t15.5 35l-4 3
q-15 -19 -31.5 -40t-33 -40.5t-32 -36.5t-28.5 -27q-29 -23 -54 -31.5t-46 -8.5q-22 0 -37 12t-15 34q0 15 4.5 33.5t12.5 36.5z" />
    <glyph glyph-name="v" unicode="v" horiz-adv-x="543" 
d="M380 443l7 -9q-14 -20 -32.5 -40.5t-49.5 -58.5q-22 -27 -45 -53t-42.5 -52.5t-32 -54t-12.5 -57.5q0 -63 74 -63q38 0 70 15t58 39t45.5 54t33 59t20 54t6.5 40q0 22 -8.5 34t-18 20.5t-17.5 18t-7 28.5q1 18 15 29.5t32 11.5q31 0 44 -24.5t13 -56.5q0 -59 -23.5 -127
t-66 -125.5t-101 -95.5t-128.5 -38q-34 0 -56.5 8.5t-35.5 22.5t-18 32.5t-5 38.5q0 32 16.5 64.5t44.5 67.5q34 44 69.5 81.5t71.5 75.5h-122q-48 0 -68.5 -15.5t-20.5 -36.5q0 -5 2 -8.5t7 -3.5t7.5 2.5t5 6t6.5 6t12 2.5q14 0 20 -8t6 -19q0 -20 -13 -29.5t-32 -9.5
q-28 0 -39.5 16.5t-11.5 38.5q0 16 8.5 37t28 39t50 30.5t74.5 12.5h159z" />
    <glyph glyph-name="w" unicode="w" horiz-adv-x="729" 
d="M179 382q-48 0 -68.5 -15.5t-20.5 -36.5q0 -5 2 -8.5t7 -3.5t7.5 2.5t5 6t6.5 6t12 2.5q14 0 20 -8t6 -19q0 -20 -13 -29.5t-32 -9.5q-28 0 -39.5 16.5t-11.5 38.5q0 16 8.5 37t28 39t50 30.5t74.5 12.5h157l7 -9q-7 -9 -19 -23.5t-24.5 -29t-23.5 -27.5t-17 -20
q-15 -19 -37.5 -44t-44 -54t-37 -60t-15.5 -61q-1 -26 13 -45t50 -19q35 0 63.5 14.5t46.5 31.5q-1 13 -1.5 22t-0.5 16q1 57 16.5 111.5t39.5 97t52.5 68.5t55.5 26t40 -14.5t12 -47.5q0 -24 -10.5 -57t-30 -70.5t-47.5 -75t-65 -70.5q3 -11 7.5 -20t12 -16.5t18.5 -11.5
t29 -4q28 0 53.5 12.5t47.5 33t39.5 47t30 54.5t19.5 56t8 51q0 26 -9.5 39.5t-21 23t-21 19.5t-9.5 29q0 15 11.5 28.5t32.5 13.5q18 0 31 -9t21.5 -24t12.5 -34t4 -39q-1 -63 -23.5 -127.5t-60 -116t-87.5 -84.5t-106 -33q-27 0 -44 7t-27 17.5t-15 22.5t-7 22
q-9 -8 -25 -19.5t-36.5 -22.5t-44.5 -19t-50 -8q-32 0 -51.5 9t-30.5 22.5t-14.5 29.5t-3.5 31q0 25 7.5 47.5t19.5 42.5t27 38.5t30 35.5q29 34 62.5 70t59.5 65h-119zM396 139q21 21 39.5 49t32 58t22 59.5t8.5 53.5q0 17 -4 27.5t-16 10.5q-13 0 -27 -19t-26.5 -50
t-20.5 -70.5t-9 -79.5q0 -7 -0.5 -18.5t1.5 -20.5z" />
    <glyph glyph-name="x" unicode="x" horiz-adv-x="494" 
d="M51 144q-5 -12 -11 -30t-6 -39q0 -11 3.5 -19.5t17.5 -8.5q13 0 31 14.5t39.5 39t45.5 56.5t50 67l-31 142q-4 18 -9 23t-11 5q-7 0 -15.5 -9.5t-17.5 -24.5t-17 -34t-15 -38l-32 8q9 32 23 60.5t30.5 49.5t35.5 33.5t39 12.5q43 0 57 -57l21 -92q33 43 59.5 71.5t49 46
t41 24.5t35.5 7q28 0 39 -16.5t11 -42.5q0 -16 -4 -33.5t-9.5 -32.5t-10.5 -25.5t-6 -13.5l-31 9q1 3 4.5 11t7 18.5t6 21.5t2.5 19t-3 19t-21 11q-13 0 -27 -6.5t-32.5 -23t-42.5 -45t-56 -71.5l41 -177q4 -19 15 -19q7 0 16.5 10.5t19 26.5t17.5 33t14 31l30 -11
q-6 -16 -18.5 -42t-30 -51t-39.5 -43t-47 -18q-22 0 -32 15t-17 43l-27 123q-34 -45 -61.5 -79t-51 -56.5t-44 -34t-39.5 -11.5q-22 0 -31.5 16t-9.5 42q0 23 6.5 49.5t19.5 52.5z" />
    <glyph glyph-name="y" unicode="y" horiz-adv-x="471" 
d="M40 279q12 33 26 64.5t30.5 55.5t36.5 38.5t45 14.5q28 0 45.5 -23t25.5 -65q6 -30 10.5 -69t8 -82t6 -87t3.5 -84q24 36 45 74t36.5 74t24.5 67.5t9 54.5q0 19 -3.5 31.5t-7 23t-7 20.5t-3.5 23q0 20 12.5 33t35.5 13t35 -14t12 -37q0 -25 -10 -64t-28.5 -86t-44.5 -99
t-56.5 -102.5t-65.5 -97t-72 -81.5q-38 -37 -83.5 -59t-87.5 -22t-59 16.5t-17 34.5q0 19 14 32t31 13t26.5 -7t17 -15t15 -15t20.5 -7q14 0 31.5 8.5t36 23t37 34t35.5 41.5q0 43 -2 95.5t-5.5 104.5t-8 98.5t-9.5 77.5q-4 22 -8 35.5t-7.5 20.5t-8 9t-10.5 2
q-9 0 -19.5 -12.5t-20.5 -31.5t-19.5 -41t-16.5 -41z" />
    <glyph glyph-name="z" unicode="z" horiz-adv-x="437" 
d="M136 133q28 -15 47 -30.5t35.5 -28.5t33.5 -21.5t40 -8.5q12 0 24.5 6t22.5 16t16 23t6 27q0 18 -13 18q-9 0 -17.5 -5.5t-24.5 -5.5q-17 0 -26 11t-9 25q0 18 14 29.5t39 11.5q28 0 49.5 -18.5t21.5 -52.5q0 -31 -12.5 -56.5t-33 -43.5t-47 -28t-55.5 -10q-30 0 -54 14
t-45 31t-38.5 31t-33.5 14q-20 0 -34 -18t-24 -39q-9 -19 -20.5 -26t-22.5 -7q-25 0 -25 23t27 46q14 12 40.5 31.5t60.5 46.5l252 200q-23 10 -41 20.5t-34.5 19.5t-33 14.5t-37.5 5.5q-26 0 -44 -16t-18 -35q0 -11 5 -15t19 -4q16 0 24 -10t8 -23q0 -20 -14 -30t-32 -10
q-25 0 -38 18t-13 44t11 48.5t29.5 39.5t43.5 26.5t54 9.5q30 0 54 -7.5t44 -17t36.5 -17t33.5 -7.5q15 0 26 10.5t15 24.5q10 29 33 29q26 0 26 -21q0 -17 -15 -27q-6 -4 -15.5 -12t-21 -18.5t-24 -21.5t-23.5 -20z" />
    <glyph glyph-name="braceleft" unicode="{" horiz-adv-x="308" 
d="M160 -106q-2 -2 -24.5 -9t-57.5 -7q-33 0 -50.5 16.5t-17.5 46.5q0 20 8 47q9 24 22 55.5t26.5 65t25.5 64.5t20 53q10 29 10 49q0 21 -14 37.5t-49 22.5l10 29q20 2 38.5 6t34.5 14.5t29.5 30.5t24.5 55l52 170q16 51 48 74.5t77 23.5q23 0 42.5 -7t24.5 -12l-13 -29
q-44 16 -75 3.5t-46 -60.5l-58 -184q-11 -33 -22.5 -53t-24.5 -31t-27 -16t-29 -9q15 -7 26 -21t11 -40q0 -20 -12 -56q-8 -25 -20.5 -57.5t-26 -65.5t-26 -64t-20.5 -53q-6 -20 -6 -34q0 -17 18 -27.5t63 2.5z" />
    <glyph glyph-name="bar" unicode="|" horiz-adv-x="323" 
d="M321 812h54l-333 -970h-54z" />
    <glyph glyph-name="braceright" unicode="}" horiz-adv-x="308" 
d="M-93 -74q44 -16 75 -3.5t46 60.5l73 224q10 33 22 53t25 31t27 16t29 9q-15 7 -26 21t-11 40q0 20 12 56q17 50 39.5 103t38.5 97q6 19 6 34q0 17 -18 27.5t-63 -2.5l-8 30q2 2 24.5 9t57.5 7q33 0 50.5 -16.5t17.5 -46.5q0 -20 -8 -47q-17 -48 -40.5 -100.5t-38.5 -97.5
q-10 -29 -10 -49q0 -21 14 -37.5t49 -22.5l-10 -29q-20 -2 -38.5 -6t-34.5 -14.5t-30 -31t-24 -54.5l-67 -210q-16 -51 -48 -74.5t-77 -23.5q-23 0 -42.5 7t-24.5 12z" />
    <glyph glyph-name="asciitilde" unicode="~" horiz-adv-x="595" 
d="M85 274q-2 22 4 46.5t20.5 45t37.5 34t56 13.5q30 0 69 -12.5t78 -27.5t73.5 -27.5t55.5 -12.5t30 14t14 46h43q0 -23 -7 -46t-19.5 -41t-31.5 -29t-44 -11q-33 0 -71.5 13t-77.5 28.5t-74.5 28.5t-61.5 13t-36 -21.5t-15 -53.5h-43z" />
    <glyph glyph-name="uni00A0" unicode="&#xa0;" horiz-adv-x="184" 
 />
    <glyph glyph-name="exclamdown" unicode="&#xa1;" horiz-adv-x="235" 
d="M148 243q-1 -6 -9 -38.5t-19.5 -78.5t-25.5 -99t-26.5 -100.5t-22 -83.5t-12.5 -48q-8 -31 -24 -38t-32 -7q-24 0 -33 12t-9 23q0 7 2 15q8 26 24 68t42 109q16 42 34 86t33 82t26.5 64.5t14.5 33.5h37zM117 392q0 23 17 41.5t42 18.5q23 0 34.5 -13.5t11.5 -32.5
q0 -23 -16 -40.5t-43 -17.5q-20 0 -33 12.5t-13 31.5z" />
    <glyph glyph-name="cent" unicode="&#xa2;" 
d="M154 -46l34 97q-18 1 -34.5 7t-29.5 18.5t-21 32.5t-8 49q0 42 19.5 97t53.5 106t80.5 91t101.5 53l39 108h38l-37 -102h9q16 0 32.5 -4t29.5 -11t21 -18t8 -24q0 -16 -10.5 -30.5t-34.5 -14.5q-23 0 -31.5 10t-8.5 21q0 7 0.5 14t0 12.5t-4 9t-11.5 3.5q-4 0 -7 -1
t-4 -1l-138 -384q31 7 66 34t64 70l28 -18q-12 -19 -29 -40t-38.5 -39.5t-48 -32t-57.5 -16.5l-34 -97h-38zM335 462q-31 -20 -59.5 -59.5t-51 -85t-36 -90.5t-13.5 -77q0 -42 29 -55z" />
    <glyph glyph-name="sterling" unicode="&#xa3;" 
d="M80 284l15 43h82q5 15 10 30.5t11.5 34.5t14.5 42t18 52q14 39 32.5 74.5t43 62t56 42t71.5 15.5q53 0 88.5 -31t35.5 -89q0 -22 -7 -43t-20.5 -37.5t-33.5 -26.5t-45 -10q-35 0 -58 22t-23 57l25 9q3 -13 11 -23q6 -8 17.5 -15t30.5 -7q27 0 44.5 20.5t17.5 57.5
q0 40 -23.5 61.5t-57.5 21.5q-35 0 -70 -34t-55 -112q-13 -49 -24.5 -91.5t-25.5 -82.5h159l-12 -43h-161q-21 -60 -41.5 -106.5t-43.5 -82.5q45 -13 90.5 -24t90.5 -11q31 0 57.5 21.5t37.5 57.5h31q-2 -32 -11 -60t-25.5 -50t-40.5 -34.5t-56 -12.5q-29 0 -55.5 7
t-51.5 18.5t-48 24.5t-45 25q-56 -75 -117 -75q-11 0 -24 3t-23.5 10.5t-17.5 19.5t-7 30q0 34 25 54.5t59 20.5q24 0 42.5 -3.5t29.5 -6.5q25 65 59 174h-82zM90 78q-14 5 -27 8.5t-24 3.5q-25 0 -34.5 -13t-9.5 -27q0 -18 9.5 -26.5t25.5 -8.5q20 0 33.5 15.5t26.5 47.5z
" />
    <glyph glyph-name="currency" unicode="&#xa4;" horiz-adv-x="577" 
d="M146 221q-21 26 -31.5 58.5t-10.5 67.5q0 73 42 127l-67 65l48 48l66 -67q26 21 58.5 31.5t67.5 10.5q71 0 127 -41l65 66l48 -48l-67 -66q42 -53 42 -126q0 -71 -41 -126l66 -66l-48 -48l-66 67q-53 -42 -126 -42q-35 0 -67 10.5t-59 31.5l-66 -67l-48 48zM319 196
q30 0 56 12t46 32.5t31.5 48t11.5 58.5t-11.5 58.5t-31.5 48t-46 32.5t-56 12t-56 -12t-46 -32.5t-31.5 -48t-11.5 -58.5t11.5 -58.5t31.5 -48t46 -32.5t56 -12z" />
    <glyph glyph-name="yen" unicode="&#xa5;" 
d="M46 0l11 32l45 4q35 4 49 45l34 100h-134l14 42h134l27 81h-141l14 42h116l-47 204q-6 25 -13.5 39.5t-18 22t-25.5 10t-34 2.5l11 32h238l-11 -32q-36 0 -50.5 -8.5t-14.5 -28.5q0 -9 3.5 -26.5t5.5 -31.5l36 -180l115 158q23 31 35.5 52.5t12.5 38.5q0 16 -15.5 21
t-44.5 5l11 32h226l-11 -32q-22 -1 -38.5 -5t-33 -16t-36 -34t-47.5 -59l-125 -164h129l-14 -42h-144l-28 -81h152l-14 -42h-152l-14 -41q-11 -35 -16 -49.5t-5 -25.5t9.5 -19.5t26.5 -10.5l52 -3l-12 -32h-268z" />
    <glyph glyph-name="brokenbar" unicode="&#xa6;" horiz-adv-x="323" 
d="M321 812h54l-111 -324h-54zM99 165h54l-111 -323h-54z" />
    <glyph glyph-name="section" unicode="&#xa7;" horiz-adv-x="515" 
d="M212 482q-7 14 -10.5 28.5t-3.5 31.5q0 38 16.5 68.5t44 51.5t64 32.5t76.5 11.5t68.5 -9.5t47 -23t27 -28.5t8.5 -27q0 -40 -39 -40q-24 0 -32 14.5t-13 28.5q-8 21 -26 37t-52 16q-48 0 -75.5 -30t-27.5 -70q0 -24 12.5 -46t30.5 -43.5t40 -43.5t40 -45t30.5 -48.5
t12.5 -53.5q0 -29 -10 -55t-27 -49t-38.5 -43.5t-45.5 -38.5q6 -14 9.5 -27.5t3.5 -28.5q0 -38 -15.5 -68.5t-41.5 -51.5t-59.5 -32t-70.5 -11q-41 0 -70.5 8.5t-48.5 22t-27.5 28.5t-8.5 29q0 41 40 41q26 0 33 -16.5t12 -36.5q5 -19 19.5 -31.5t51.5 -12.5q50 0 76.5 25
t26.5 66q0 27 -12.5 51t-31.5 46.5t-41 44.5t-41 45.5t-31.5 48t-12.5 53.5t10 53.5t26.5 46.5t39 41.5t46.5 39.5zM310 139q32 29 46.5 54t14.5 60q0 30 -15 55t-36.5 49t-45.5 47.5t-43 49.5q-26 -26 -43.5 -51t-17.5 -62q0 -30 15 -55.5t36.5 -49.5t45.5 -47.5t43 -49.5z
" />
    <glyph glyph-name="dieresis" unicode="&#xa8;" horiz-adv-x="500" 
d="M293 595q0 21 14 37t39 16q17 0 28.5 -11.5t11.5 -28.5q0 -20 -15 -36.5t-38 -16.5q-19 0 -29.5 11.5t-10.5 28.5zM111 595q0 21 14 37t39 16q17 0 28.5 -11.5t11.5 -28.5q0 -20 -15 -36.5t-38 -16.5q-19 0 -29.5 11.5t-10.5 28.5z" />
    <glyph glyph-name="copyright" unicode="&#xa9;" horiz-adv-x="843" 
d="M91 340q0 75 28.5 140.5t78 114.5t115.5 77.5t141 28.5t140.5 -28.5t114.5 -77.5t77.5 -114.5t28.5 -140.5t-28.5 -140.5t-77.5 -114t-114.5 -77t-140.5 -28.5t-141 28.5t-115.5 77t-78 114t-28.5 140.5zM454 17q66 0 124 25.5t101.5 70t68.5 103t25 124.5t-25 125
t-68.5 103t-101.5 70t-124 26t-124 -26t-101 -70t-68 -103t-25 -125t25 -124.5t68 -103t101 -70t124 -25.5zM576 181q0 5 -5 5q-3 0 -7.5 -2t-6.5 -4q-12 -6 -36 -17t-72 -11q-38 0 -73 12.5t-61 36.5t-41.5 60t-15.5 83q0 40 15.5 75.5t42 62.5t63 42.5t78.5 15.5
q31 0 55 -7.5t38 -15.5q15 -9 20 -9q4 0 4.5 2.5t1.5 4.5l4 19h25l4 -133h-25q-3 11 -9.5 30t-20.5 37.5t-37 32t-60 13.5q-35 0 -58.5 -14.5t-38.5 -38.5t-21.5 -54.5t-6.5 -62.5q0 -30 7 -60t22 -53t40 -37.5t61 -14.5q49 0 78 22.5t42 78.5h24v-120h-24z" />
    <glyph glyph-name="ordfeminine" unicode="&#xaa;" horiz-adv-x="412" 
d="M401 640q-3 8 -13.5 15t-28.5 7q-19 0 -40 -13.5t-41.5 -36t-39.5 -50t-33.5 -56t-23 -54.5t-8.5 -44q0 -27 25 -27q19 0 42.5 16.5t46.5 41.5t42.5 54t30.5 55zM468 434q-11 -15 -27 -32t-35 -31t-39.5 -23t-39.5 -9q-29 0 -29 27q0 14 6.5 31.5t15.5 38.5
q-12 -18 -28.5 -36t-37 -32.5t-43 -23.5t-45.5 -9q-26 0 -43.5 12t-17.5 47q0 43 23 95.5t60 98t83 76t91 30.5q25 0 39 -7t21 -15l8 17h56l-112 -259q-8 -17 -10 -28t8 -11q14 0 34 17.5t42 41.5z" />
    <glyph glyph-name="guillemotleft" unicode="&#xab;" horiz-adv-x="383" 
d="M45 220q-2 3 -3.5 8.5t-1.5 7.5q0 11 13 21l177 139l18 -19l-135 -149l36 -172l-27 -9zM195 220q-2 3 -3.5 8.5t-1.5 7.5q0 11 13 21l177 139l18 -19l-135 -149l36 -172l-27 -9z" />
    <glyph glyph-name="logicalnot" unicode="&#xac;" 
d="M97 349h366v-140h-43v98h-323v42z" />
    <glyph glyph-name="uni00AD" unicode="&#xad;" horiz-adv-x="342" 
d="M65 279h247l-25 -66h-247z" />
    <glyph glyph-name="registered" unicode="&#xae;" horiz-adv-x="843" 
d="M91 340q0 75 28.5 140.5t78 114.5t115.5 77.5t141 28.5t140.5 -28.5t114.5 -77.5t77.5 -114.5t28.5 -140.5t-28.5 -140.5t-77.5 -114t-114.5 -77t-140.5 -28.5t-141 28.5t-115.5 77t-78 114t-28.5 140.5zM454 17q66 0 124 25.5t101.5 70t68.5 103t25 124.5t-25 125
t-68.5 103t-101.5 70t-124 26t-124 -26t-101 -70t-68 -103t-25 -125t25 -124.5t68 -103t101 -70t124 -25.5zM288 182l28 2q11 1 15.5 5t4.5 20v275q0 17 -4.5 20.5t-16.5 5.5l-27 3v21h170q24 0 48.5 -5t45 -17t33 -31.5t12.5 -48.5q0 -25 -11 -43t-26.5 -30.5t-31 -19.5
t-24.5 -10q6 -5 12 -9t12.5 -11.5t15.5 -19t22 -30.5q9 -14 19 -31t20 -27q7 -8 16.5 -13t31.5 -6v-22h-98l-56 90q-15 24 -40.5 46t-58.5 24v-114q0 -13 3.5 -16.5t15.5 -5.5q6 -1 12 -1.5t16 -0.5v-22h-159v22zM431 347q14 0 31.5 4t32.5 14t25 25.5t10 38.5
q0 44 -25 61.5t-68 17.5h-13q-17 0 -20.5 -10.5t-3.5 -23.5v-127h31z" />
    <glyph glyph-name="macron" unicode="&#xaf;" horiz-adv-x="500" 
d="M129 620h247l-19 -56h-247z" />
    <glyph glyph-name="degree" unicode="&#xb0;" horiz-adv-x="280" 
d="M164 597q0 -28 19 -47.5t49 -19.5q26 0 44 19.5t18 47.5q0 27 -18 46.5t-44 19.5q-30 0 -49 -19.5t-19 -46.5zM119 597q0 46 32 77.5t81 31.5q22 0 41.5 -8.5t34 -23t23 -34.5t8.5 -43t-8.5 -43t-23 -35t-34 -23.5t-41.5 -8.5q-24 0 -45 8.5t-36 23.5t-23.5 35t-8.5 43z
" />
    <glyph glyph-name="plusminus" unicode="&#xb1;" 
d="M96 349h161v161h45v-161h160v-42h-160v-161h-45v161h-161v42zM96 42h366v-42h-366v42z" />
    <glyph glyph-name="twosuperior" unicode="&#xb2;" horiz-adv-x="350" 
d="M287 354l30 35h29l-43 -87h-241q10 31 27.5 58t39.5 49.5t46.5 42.5t48.5 38q46 35 74.5 59.5t28.5 52.5q0 17 -12 26.5t-34 9.5q-23 0 -43.5 -10t-36.5 -22.5t-27 -24t-14 -14.5l-25 23q12 13 28 27.5t37 27t46.5 20.5t54.5 8q43 0 68.5 -18.5t25.5 -51.5
q0 -22 -8.5 -39t-24.5 -32t-37.5 -29t-47.5 -30q-35 -21 -59.5 -38t-42 -31t-28.5 -26t-18 -24h158z" />
    <glyph glyph-name="threesuperior" unicode="&#xb3;" horiz-adv-x="350" 
d="M169 489q20 7 48 16.5t53 22.5t42.5 30t17.5 39q0 37 -44 37q-14 0 -29 -5t-30 -13.5t-28.5 -19t-22.5 -21.5l-24 20q10 13 26.5 26.5t36.5 25t43 19t48 7.5q44 0 65 -20t21 -46q0 -36 -26.5 -60t-68.5 -41q21 -5 39 -21t18 -48q0 -28 -14 -54t-39 -45.5t-59 -31
t-74 -11.5q-13 0 -30 2.5t-32.5 7.5t-26 14t-10.5 21q0 11 7.5 20.5t21.5 9.5q15 0 23 -9t13 -18t16.5 -13.5t26.5 -4.5q21 0 40.5 6.5t35 18.5t25 29.5t9.5 40.5q0 27 -13.5 41t-34.5 14q-11 0 -29 -5.5t-32 -8.5z" />
    <glyph glyph-name="acute" unicode="&#xb4;" horiz-adv-x="500" 
d="M309 672q7 11 14 14t15 3q15 0 25 -9t10 -24q0 -14 -16 -30l-132 -137l-26 21z" />
    <glyph glyph-name="mu" unicode="&#xb5;" horiz-adv-x="515" 
d="M159 443h75l-98 -290q-8 -25 -12 -41.5t-4 -30.5q0 -22 11 -31.5t39 -9.5q25 0 48 12t42 27t31.5 29t15.5 19l106 316h71l-115 -342q-7 -20 -10.5 -32.5t-3.5 -21.5t3.5 -12t10.5 -3t16 6t16.5 14t13 16t7.5 12l21 -13q-3 -5 -11 -17t-22 -25.5t-33.5 -23.5t-45.5 -10
t-39 11.5t-13 29.5q0 12 6 32q-7 -9 -20.5 -21.5t-32.5 -24t-42 -19.5t-50 -8q-23 0 -39 5t-26 13.5t-15 18.5t-6 21q-11 -30 -16.5 -61t-8.5 -60t-5.5 -54t-7.5 -43q-6 -22 -17 -34t-30 -12q-17 0 -24 13t-7 27q0 28 12.5 63t30.5 74t37.5 80.5t33.5 82.5z" />
    <glyph glyph-name="paragraph" unicode="&#xb6;" horiz-adv-x="544" 
d="M372 306h-77q-37 0 -65.5 11.5t-48 31t-29.5 46t-10 57.5q0 55 24 100.5t64.5 78t94 50t111.5 17.5h196l-11 -32l-43 -4q-35 -4 -49 -45l-188 -546q-16 -47 -33 -80.5t-38 -54.5t-49 -30.5t-66 -9.5q-21 0 -44 5.5t-43 16t-33 27t-13 38.5q0 17 10.5 27.5t27.5 10.5
q21 0 30 -11t14 -30q6 -23 20 -35t40 -12t44.5 8.5t32.5 25t25.5 42t23.5 60.5z" />
    <glyph glyph-name="periodcentered" unicode="&#xb7;" horiz-adv-x="260" 
d="M104 320q0 26 17.5 45.5t47.5 19.5q22 0 36 -14t14 -35q0 -25 -18.5 -45.5t-46.5 -20.5q-24 0 -37 15t-13 35z" />
    <glyph glyph-name="cedilla" unicode="&#xb8;" horiz-adv-x="500" 
d="M154 -161q2 -2 18 -9.5t41 -7.5q20 0 35.5 10t15.5 34q0 20 -12 27t-24 7q-16 0 -22 -4t-10 -6l-15 12l59 98h46l-40 -68q3 1 7.5 2t12.5 1q23 0 43.5 -13.5t20.5 -46.5q0 -23 -9.5 -40t-24.5 -28t-34 -16t-38 -5q-41 0 -62.5 11t-25.5 13z" />
    <glyph glyph-name="onesuperior" unicode="&#xb9;" horiz-adv-x="350" 
d="M102 328l27 2q26 2 38.5 15.5t17.5 25.5l74 195q8 21 8 27t-6 6q-2 0 -8 -1.5t-12 -3.5l-41 -11l-8 29q48 14 80 29t55 32h31l-111 -294q-3 -8 -5 -15.5t-2 -12.5q0 -9 8.5 -14t29.5 -7l24 -2l-8 -26h-202z" />
    <glyph glyph-name="ordmasculine" unicode="&#xba;" horiz-adv-x="362" 
d="M210 335q-15 0 -31.5 4.5t-30 16t-22 31.5t-8.5 51q0 36 16.5 80.5t45 83.5t67.5 65.5t84 26.5q16 0 32 -4t29 -15.5t21.5 -31.5t8.5 -52q0 -36 -16.5 -80.5t-45 -83.5t-67.5 -65.5t-83 -26.5zM212 363q18 0 36.5 15t36 39t33.5 53.5t27.5 59t18.5 54.5t7 41t-8.5 28.5
t-29.5 12.5q-24 0 -52 -26.5t-52.5 -65.5t-40.5 -84t-16 -82q0 -45 40 -45z" />
    <glyph glyph-name="guillemotright" unicode="&#xbb;" horiz-adv-x="383" 
d="M-13 66l135 149l-36 172l27 9l77 -173q2 -3 3.5 -8.5t1.5 -7.5q0 -11 -13 -21l-177 -139zM137 66l135 149l-36 172l27 9l77 -173q2 -3 3.5 -8.5t1.5 -7.5q0 -11 -13 -21l-177 -139z" />
    <glyph glyph-name="questiondown" unicode="&#xbf;" horiz-adv-x="375" 
d="M141 271q52 -1 86.5 -26.5t34.5 -70.5q0 -35 -17.5 -63t-44 -52.5t-57 -46.5t-57 -46.5t-44 -52t-17.5 -61.5q0 -20 6 -33t16 -21t22 -11.5t23 -3.5q21 0 33.5 8.5t22.5 25.5q11 20 22 27.5t26 7.5t26.5 -9.5t11.5 -25.5q0 -28 -31.5 -48t-94.5 -20q-69 0 -106 36t-37 93
q0 39 17.5 69.5t43.5 56t56.5 47t56.5 42.5t43.5 42.5t17.5 46.5q0 9 -2.5 18t-10 17t-20.5 13.5t-33 7.5zM188 392q0 23 17 41.5t42 18.5q22 0 34 -13.5t12 -32.5q0 -23 -16 -40.5t-43 -17.5q-20 0 -33 12.5t-13 31.5z" />
    <glyph glyph-name="Agrave" unicode="&#xc0;" horiz-adv-x="657" 
d="M-66 0l11 32q22 1 42 5.5t40.5 16.5t43 35t48.5 61l345 503l91 26l-41 -551q-3 -35 1.5 -54t15 -28.5t26 -11.5t35.5 -2l-11 -32h-274l11 32q31 0 51.5 5t32.5 15t17 26t7 37l12 128h-201l-57 -84q-6 -9 -14.5 -22.5t-17 -28t-14 -28t-5.5 -23.5q0 -9 5.5 -14t14.5 -7.5
t20.5 -3t23.5 -0.5l-11 -32h-248zM264 284h176l28 301zM427 829q-12 8 -16.5 16t-4.5 17q0 11 9 21.5t23 10.5q8 0 15 -3t18 -14l134 -130l-21 -25z" />
    <glyph glyph-name="Aacute" unicode="&#xc1;" horiz-adv-x="657" 
d="M-66 0l11 32q22 1 42 5.5t40.5 16.5t43 35t48.5 61l345 503l91 26l-41 -551q-3 -35 1.5 -54t15 -28.5t26 -11.5t35.5 -2l-11 -32h-274l11 32q31 0 51.5 5t32.5 15t17 26t7 37l12 128h-201l-57 -84q-6 -9 -14.5 -22.5t-17 -28t-14 -28t-5.5 -23.5q0 -9 5.5 -14t14.5 -7.5
t20.5 -3t23.5 -0.5l-11 -32h-248zM264 284h176l28 301zM461 722l-21 25l134 130q11 11 18 14t15 3q14 0 23 -10.5t9 -21.5q0 -9 -4.5 -17t-16.5 -16z" />
    <glyph glyph-name="Acircumflex" unicode="&#xc2;" horiz-adv-x="657" 
d="M-66 0l11 32q22 1 42 5.5t40.5 16.5t43 35t48.5 61l345 503l91 26l-41 -551q-3 -35 1.5 -54t15 -28.5t26 -11.5t35.5 -2l-11 -32h-274l11 32q31 0 51.5 5t32.5 15t17 26t7 37l12 128h-201l-57 -84q-6 -9 -14.5 -22.5t-17 -28t-14 -28t-5.5 -23.5q0 -9 5.5 -14t14.5 -7.5
t20.5 -3t23.5 -0.5l-11 -32h-248zM264 284h176l28 301zM404 721l-21 25l129 118q9 8 18 14.5t19 6.5q12 0 18 -6.5t11 -15.5l66 -123l-29 -17l-79 93z" />
    <glyph glyph-name="Atilde" unicode="&#xc3;" horiz-adv-x="657" 
d="M-66 0l11 32q22 1 42 5.5t40.5 16.5t43 35t48.5 61l345 503l91 26l-41 -551q-3 -35 1.5 -54t15 -28.5t26 -11.5t35.5 -2l-11 -32h-274l11 32q31 0 51.5 5t32.5 15t17 26t7 37l12 128h-201l-57 -84q-6 -9 -14.5 -22.5t-17 -28t-14 -28t-5.5 -23.5q0 -9 5.5 -14t14.5 -7.5
t20.5 -3t23.5 -0.5l-11 -32h-248zM264 284h176l28 301zM340 758q21 51 46.5 75t60.5 24q22 0 43.5 -8t41.5 -18t38.5 -18t33.5 -8q13 0 21.5 5.5t14.5 13.5t10 17t7 17l32 -12q-17 -48 -40 -71.5t-62 -23.5q-23 0 -44 8t-41 17.5t-38 17.5t-35 8q-12 0 -21 -6t-16 -15
t-12 -19t-8 -17z" />
    <glyph glyph-name="Adieresis" unicode="&#xc4;" horiz-adv-x="657" 
d="M-66 0l11 32q22 1 42 5.5t40.5 16.5t43 35t48.5 61l345 503l91 26l-41 -551q-3 -35 1.5 -54t15 -28.5t26 -11.5t35.5 -2l-11 -32h-274l11 32q31 0 51.5 5t32.5 15t17 26t7 37l12 128h-201l-57 -84q-6 -9 -14.5 -22.5t-17 -28t-14 -28t-5.5 -23.5q0 -9 5.5 -14t14.5 -7.5
t20.5 -3t23.5 -0.5l-11 -32h-248zM264 284h176l28 301zM572 796q0 21 14 37t39 16q17 0 28.5 -11.5t11.5 -28.5q0 -20 -15 -36.5t-38 -16.5q-19 0 -29.5 11.5t-10.5 28.5zM390 796q0 21 14 37t39 16q17 0 28.5 -11.5t11.5 -28.5q0 -20 -15 -36.5t-38 -16.5q-19 0 -29.5 11.5
t-10.5 28.5z" />
    <glyph glyph-name="Aring" unicode="&#xc5;" horiz-adv-x="657" 
d="M-66 0l11 32q22 1 42 5.5t40.5 16.5t43 35t48.5 61l345 503l91 26l-41 -551q-3 -35 1.5 -54t15 -28.5t26 -11.5t35.5 -2l-11 -32h-274l11 32q31 0 51.5 5t32.5 15t17 26t7 37l12 128h-201l-57 -84q-6 -9 -14.5 -22.5t-17 -28t-14 -28t-5.5 -23.5q0 -9 5.5 -14t14.5 -7.5
t20.5 -3t23.5 -0.5l-11 -32h-248zM264 284h176l28 301zM445 812q0 36 26 61.5t62 25.5q18 0 34 -7t28.5 -18.5t19.5 -27.5t7 -34q0 -36 -26.5 -61t-62.5 -25t-62 25t-26 61zM533 760q23 0 37 14.5t14 37.5t-14 38t-37 15t-36.5 -15t-13.5 -38t13.5 -37.5t36.5 -14.5z" />
    <glyph glyph-name="AE" unicode="&#xc6;" horiz-adv-x="982" 
d="M357 362h155l88 263h-46zM-47 0l11 32q28 1 49.5 8t40.5 20t37.5 33t40.5 49l334 448q14 19 14 28q0 12 -10 15t-20 4l-42 4l12 32h541l16 -134h-32l-50 76q-5 8 -11.5 11.5t-17.5 3.5h-177l-89 -268h83q34 0 57.5 7t39 20t24.5 29.5t16 36.5h34l-85 -253l-34 -1
q1 8 2.5 24t1.5 31q0 32 -18 48.5t-65 16.5h-71l-58 -173q-11 -35 -16 -49t-5 -25t8 -20.5t30 -9.5h227q11 0 16.5 3t10.5 10l90 118h31l-45 -175h-557l11 32l40 4q35 4 49 45l81 240h-172l-98 -129q-40 -52 -60 -83.5t-20 -51.5q0 -18 21 -21.5t47 -3.5l-11 -32h-252z" />
    <glyph glyph-name="Ccedilla" unicode="&#xc7;" horiz-adv-x="635" 
d="M174 -161q2 -2 18 -9.5t41 -7.5q20 0 35.5 10t15.5 34q0 20 -12 27t-24 7q-16 0 -22 -4t-10 -6l-15 12l49 82q-56 3 -92.5 22.5t-58.5 49.5t-30.5 66t-8.5 71q0 103 39 193.5t103 158t144 106.5t163 39q36 0 60.5 -5.5t40 -11.5t24.5 -11.5t15 -5.5q8 0 14.5 7.5
t12.5 18.5h29l-75 -219h-33l4 60q2 28 1 52t-10.5 41.5t-29.5 27.5t-56 10q-39 0 -80 -17.5t-79.5 -49t-73 -74.5t-60 -94t-40.5 -108.5t-15 -116.5q0 -39 7.5 -70.5t24.5 -54t44 -34.5t65 -12q31 0 59.5 10t52.5 26t43.5 35.5t33.5 39.5q23 31 39.5 61t27.5 59h35l-79 -254
h-34l2 71q-42 -46 -87 -64.5t-96 -22.5l-30 -52q3 1 7.5 2t12.5 1q23 0 43.5 -13.5t20.5 -46.5q0 -23 -9.5 -40t-24.5 -28t-34 -16t-38 -5q-41 0 -62.5 11t-25.5 13z" />
    <glyph glyph-name="Egrave" unicode="&#xc8;" horiz-adv-x="651" 
d="M-18 0l11 32l40 4q35 4 49 45l152 452q11 35 16 49.5t5 25.5t-7.5 19.5t-24.5 10.5l-46 3l12 32h441l16 -134h-32l-50 76q-5 8 -11.5 11.5t-17.5 3.5h-181l-84 -253h93q32 0 54 6.5t36 18t23 27.5t16 36h34l-84 -253l-34 -1q1 8 3 26.5t2 33.5q0 32 -18 48.5t-65 16.5
h-75l-62 -188q-12 -35 -16.5 -49t-4.5 -25t8 -20.5t30 -9.5h230q11 0 16.5 3t10.5 10l90 118h31l-45 -175h-561zM350 829q-12 8 -16.5 16t-4.5 17q0 11 9 21.5t23 10.5q8 0 15 -3t18 -14l134 -130l-21 -25z" />
    <glyph glyph-name="Eacute" unicode="&#xc9;" horiz-adv-x="651" 
d="M-18 0l11 32l40 4q35 4 49 45l152 452q11 35 16 49.5t5 25.5t-7.5 19.5t-24.5 10.5l-46 3l12 32h441l16 -134h-32l-50 76q-5 8 -11.5 11.5t-17.5 3.5h-181l-84 -253h93q32 0 54 6.5t36 18t23 27.5t16 36h34l-84 -253l-34 -1q1 8 3 26.5t2 33.5q0 32 -18 48.5t-65 16.5
h-75l-62 -188q-12 -35 -16.5 -49t-4.5 -25t8 -20.5t30 -9.5h230q11 0 16.5 3t10.5 10l90 118h31l-45 -175h-561zM435 722l-21 25l134 130q11 11 18 14t15 3q14 0 23 -10.5t9 -21.5q0 -9 -4.5 -17t-16.5 -16z" />
    <glyph glyph-name="Ecircumflex" unicode="&#xca;" horiz-adv-x="651" 
d="M-18 0l11 32l40 4q35 4 49 45l152 452q11 35 16 49.5t5 25.5t-7.5 19.5t-24.5 10.5l-46 3l12 32h441l16 -134h-32l-50 76q-5 8 -11.5 11.5t-17.5 3.5h-181l-84 -253h93q32 0 54 6.5t36 18t23 27.5t16 36h34l-84 -253l-34 -1q1 8 3 26.5t2 33.5q0 32 -18 48.5t-65 16.5
h-75l-62 -188q-12 -35 -16.5 -49t-4.5 -25t8 -20.5t30 -9.5h230q11 0 16.5 3t10.5 10l90 118h31l-45 -175h-561zM336 721l-21 25l129 118q9 8 18 14.5t19 6.5q12 0 18 -6.5t11 -15.5l66 -123l-29 -17l-79 93z" />
    <glyph glyph-name="Edieresis" unicode="&#xcb;" horiz-adv-x="651" 
d="M-18 0l11 32l40 4q35 4 49 45l152 452q11 35 16 49.5t5 25.5t-7.5 19.5t-24.5 10.5l-46 3l12 32h441l16 -134h-32l-50 76q-5 8 -11.5 11.5t-17.5 3.5h-181l-84 -253h93q32 0 54 6.5t36 18t23 27.5t16 36h34l-84 -253l-34 -1q1 8 3 26.5t2 33.5q0 32 -18 48.5t-65 16.5
h-75l-62 -188q-12 -35 -16.5 -49t-4.5 -25t8 -20.5t30 -9.5h230q11 0 16.5 3t10.5 10l90 118h31l-45 -175h-561zM500 796q0 21 14 37t39 16q17 0 28.5 -11.5t11.5 -28.5q0 -20 -15 -36.5t-38 -16.5q-19 0 -29.5 11.5t-10.5 28.5zM318 796q0 21 14 37t39 16q17 0 28.5 -11.5
t11.5 -28.5q0 -20 -15 -36.5t-38 -16.5q-19 0 -29.5 11.5t-10.5 28.5z" />
    <glyph glyph-name="Igrave" unicode="&#xcc;" horiz-adv-x="356" 
d="M-7 32l40 4q35 4 49 45l152 452q11 35 16 49.5t5 25.5t-7.5 19.5t-24.5 10.5l-46 3l12 32h257l-11 -32l-42 -4q-35 -4 -49 -45l-152 -452q-12 -35 -17 -49.5t-5 -25.5t7.5 -19.5t24.5 -10.5l47 -3l-12 -32h-255zM204 829q-12 8 -16.5 16t-4.5 17q0 11 9 21.5t23 10.5
q8 0 15 -3t18 -14l134 -130l-21 -25z" />
    <glyph glyph-name="Iacute" unicode="&#xcd;" horiz-adv-x="356" 
d="M-7 32l40 4q35 4 49 45l152 452q11 35 16 49.5t5 25.5t-7.5 19.5t-24.5 10.5l-46 3l12 32h257l-11 -32l-42 -4q-35 -4 -49 -45l-152 -452q-12 -35 -17 -49.5t-5 -25.5t7.5 -19.5t24.5 -10.5l47 -3l-12 -32h-255zM311 722l-21 25l134 130q11 11 18 14t15 3q14 0 23 -10.5
t9 -21.5q0 -9 -4.5 -17t-16.5 -16z" />
    <glyph glyph-name="Icircumflex" unicode="&#xce;" horiz-adv-x="356" 
d="M-7 32l40 4q35 4 49 45l152 452q11 35 16 49.5t5 25.5t-7.5 19.5t-24.5 10.5l-46 3l12 32h257l-11 -32l-42 -4q-35 -4 -49 -45l-152 -452q-12 -35 -17 -49.5t-5 -25.5t7.5 -19.5t24.5 -10.5l47 -3l-12 -32h-255zM217 721l-21 25l129 118q9 8 18 14.5t19 6.5q12 0 18 -6.5
t11 -15.5l66 -123l-29 -17l-79 93z" />
    <glyph glyph-name="Idieresis" unicode="&#xcf;" horiz-adv-x="356" 
d="M-7 32l40 4q35 4 49 45l152 452q11 35 16 49.5t5 25.5t-7.5 19.5t-24.5 10.5l-46 3l12 32h257l-11 -32l-42 -4q-35 -4 -49 -45l-152 -452q-12 -35 -17 -49.5t-5 -25.5t7.5 -19.5t24.5 -10.5l47 -3l-12 -32h-255zM386 796q0 21 14 37t39 16q17 0 28.5 -11.5t11.5 -28.5
q0 -20 -15 -36.5t-38 -16.5q-19 0 -29.5 11.5t-10.5 28.5zM204 796q0 21 14 37t39 16q17 0 28.5 -11.5t11.5 -28.5q0 -20 -15 -36.5t-38 -16.5q-19 0 -29.5 11.5t-10.5 28.5z" />
    <glyph glyph-name="Eth" unicode="&#xd0;" horiz-adv-x="716" 
d="M-7 32l40 4q35 4 49 45l81 242h-73l17 46h72l55 164q11 35 16 49.5t5 25.5t-7.5 19.5t-24.5 10.5l-46 3l12 32h206q48 0 102 -13.5t99 -46.5t74.5 -89.5t29.5 -143.5q0 -60 -17 -113t-45.5 -97t-66.5 -77.5t-81 -52.5q-51 -23 -107 -31.5t-121 -8.5h-280zM260 37
q87 0 151.5 32t107.5 83t64 115.5t21 129.5q0 70 -18 116.5t-47.5 73.5t-67 38t-75.5 11q-16 0 -25.5 -4.5t-15.5 -12t-9.5 -17t-6.5 -19.5l-71 -214h174l-17 -46h-173l-64 -193q-4 -12 -7 -26t-3 -20q0 -11 2.5 -20t10.5 -15t23.5 -9t41.5 -3h4z" />
    <glyph glyph-name="Ntilde" unicode="&#xd1;" horiz-adv-x="709" 
d="M-58 0l11 32q26 1 48 6t41.5 17.5t35.5 36.5t30 65l156 464q-12 13 -37.5 16t-48.5 4l10 32h164l147 -536l131 395q5 17 10 35t5 27q0 26 -17 36.5t-62 10.5l11 32h243l-11 -32q-26 -2 -45 -6.5t-34.5 -17t-28.5 -37t-27 -64.5l-177 -524h-46l-157 580l-143 -431
q-5 -17 -9.5 -35t-4.5 -27q0 -26 22 -36.5t67 -10.5l-11 -32h-273zM364 758q21 51 46.5 75t60.5 24q22 0 43.5 -8t41.5 -18t38.5 -18t33.5 -8q13 0 21.5 5.5t14.5 13.5t10 17t7 17l32 -12q-17 -48 -40 -71.5t-62 -23.5q-23 0 -44 8t-41 17.5t-38 17.5t-35 8q-12 0 -21 -6
t-16 -15t-12 -19t-8 -17z" />
    <glyph glyph-name="Ograve" unicode="&#xd2;" horiz-adv-x="651" 
d="M286 -17q-48 0 -87.5 14t-68 44t-44.5 75.5t-16 108.5q0 77 27 159.5t75.5 150.5t116 111.5t148.5 43.5q106 0 160 -63.5t54 -178.5q0 -88 -29.5 -171.5t-80 -149t-116.5 -105t-139 -39.5zM281 18q44 0 82 24.5t69.5 64t55.5 90t40.5 102.5t25 101t8.5 87
q0 85 -30.5 126.5t-89.5 41.5q-39 0 -75.5 -23.5t-68 -62t-57.5 -88t-44.5 -102t-28.5 -103t-10 -90.5q0 -48 12 -80.5t30 -52t39.5 -27.5t41.5 -8zM377 829q-12 8 -16.5 16t-4.5 17q0 11 9 21.5t23 10.5q8 0 15 -3t18 -14l134 -130l-21 -25z" />
    <glyph glyph-name="Oacute" unicode="&#xd3;" horiz-adv-x="651" 
d="M286 -17q-48 0 -87.5 14t-68 44t-44.5 75.5t-16 108.5q0 77 27 159.5t75.5 150.5t116 111.5t148.5 43.5q106 0 160 -63.5t54 -178.5q0 -88 -29.5 -171.5t-80 -149t-116.5 -105t-139 -39.5zM281 18q44 0 82 24.5t69.5 64t55.5 90t40.5 102.5t25 101t8.5 87
q0 85 -30.5 126.5t-89.5 41.5q-39 0 -75.5 -23.5t-68 -62t-57.5 -88t-44.5 -102t-28.5 -103t-10 -90.5q0 -48 12 -80.5t30 -52t39.5 -27.5t41.5 -8zM439 722l-21 25l134 130q11 11 18 14t15 3q14 0 23 -10.5t9 -21.5q0 -9 -4.5 -17t-16.5 -16z" />
    <glyph glyph-name="Ocircumflex" unicode="&#xd4;" horiz-adv-x="651" 
d="M286 -17q-48 0 -87.5 14t-68 44t-44.5 75.5t-16 108.5q0 77 27 159.5t75.5 150.5t116 111.5t148.5 43.5q106 0 160 -63.5t54 -178.5q0 -88 -29.5 -171.5t-80 -149t-116.5 -105t-139 -39.5zM281 18q44 0 82 24.5t69.5 64t55.5 90t40.5 102.5t25 101t8.5 87
q0 85 -30.5 126.5t-89.5 41.5q-39 0 -75.5 -23.5t-68 -62t-57.5 -88t-44.5 -102t-28.5 -103t-10 -90.5q0 -48 12 -80.5t30 -52t39.5 -27.5t41.5 -8zM337 721l-21 25l129 118q9 8 18 14.5t19 6.5q12 0 18 -6.5t11 -15.5l66 -123l-29 -17l-79 93z" />
    <glyph glyph-name="Otilde" unicode="&#xd5;" horiz-adv-x="651" 
d="M286 -17q-48 0 -87.5 14t-68 44t-44.5 75.5t-16 108.5q0 77 27 159.5t75.5 150.5t116 111.5t148.5 43.5q106 0 160 -63.5t54 -178.5q0 -88 -29.5 -171.5t-80 -149t-116.5 -105t-139 -39.5zM281 18q44 0 82 24.5t69.5 64t55.5 90t40.5 102.5t25 101t8.5 87
q0 85 -30.5 126.5t-89.5 41.5q-39 0 -75.5 -23.5t-68 -62t-57.5 -88t-44.5 -102t-28.5 -103t-10 -90.5q0 -48 12 -80.5t30 -52t39.5 -27.5t41.5 -8zM297 758q21 51 46.5 75t60.5 24q22 0 43.5 -8t41.5 -18t38.5 -18t33.5 -8q13 0 21.5 5.5t14.5 13.5t10 17t7 17l32 -12
q-17 -48 -40 -71.5t-62 -23.5q-23 0 -44 8t-41 17.5t-38 17.5t-35 8q-12 0 -21 -6t-16 -15t-12 -19t-8 -17z" />
    <glyph glyph-name="Odieresis" unicode="&#xd6;" horiz-adv-x="651" 
d="M286 -17q-48 0 -87.5 14t-68 44t-44.5 75.5t-16 108.5q0 77 27 159.5t75.5 150.5t116 111.5t148.5 43.5q106 0 160 -63.5t54 -178.5q0 -88 -29.5 -171.5t-80 -149t-116.5 -105t-139 -39.5zM281 18q44 0 82 24.5t69.5 64t55.5 90t40.5 102.5t25 101t8.5 87
q0 85 -30.5 126.5t-89.5 41.5q-39 0 -75.5 -23.5t-68 -62t-57.5 -88t-44.5 -102t-28.5 -103t-10 -90.5q0 -48 12 -80.5t30 -52t39.5 -27.5t41.5 -8zM525 796q0 21 14 37t39 16q17 0 28.5 -11.5t11.5 -28.5q0 -20 -15 -36.5t-38 -16.5q-19 0 -29.5 11.5t-10.5 28.5zM343 796
q0 21 14 37t39 16q17 0 28.5 -11.5t11.5 -28.5q0 -20 -15 -36.5t-38 -16.5q-19 0 -29.5 11.5t-10.5 28.5z" />
    <glyph glyph-name="multiply" unicode="&#xd7;" 
d="M145 213l114 114l-114 114l32 32l113 -114l114 113l29 -29l-113 -114l114 -113l-32 -32l-114 114l-114 -114z" />
    <glyph glyph-name="Oslash" unicode="&#xd8;" horiz-adv-x="651" 
d="M150 23q-38 29 -59 78.5t-21 123.5q0 77 27 159.5t75.5 150.5t116 111.5t148.5 43.5q53 0 95 -17l49 83l39 -23l-49 -83q40 -30 60 -81.5t20 -120.5q0 -88 -29.5 -171.5t-80 -149t-116.5 -105t-139 -39.5q-53 0 -96 17l-49 -83l-39 24zM213 41q17 -13 34 -18t34 -5
q44 0 82 24.5t69.5 64t55.5 90t40.5 102.5t25 101t8.5 87q0 68 -22 110zM510 635q-28 20 -68 20q-39 0 -75.5 -23.5t-68 -62t-57.5 -88t-44.5 -102t-28.5 -103t-10 -90.5q0 -36 6.5 -63t17.5 -46z" />
    <glyph glyph-name="Ugrave" unicode="&#xd9;" horiz-adv-x="672" 
d="M213 533q11 35 16 49.5t5 25.5t-7.5 19.5t-24.5 10.5l-46 3l12 32h257l-11 -32l-42 -4q-35 -4 -49 -45l-120 -357q-8 -23 -12.5 -47.5t-4.5 -45.5q0 -54 28.5 -82.5t94.5 -28.5q67 0 106 34.5t64 106.5l123 360q6 17 10.5 35t4.5 27q0 26 -17 36.5t-62 10.5l11 32h243
l-11 -32q-26 -2 -45 -6.5t-34.5 -17t-28.5 -37t-27 -64.5l-127 -360q-30 -84 -82.5 -128.5t-148.5 -44.5q-37 0 -71 7.5t-60 26.5t-41.5 50.5t-15.5 78.5q0 28 7.5 61t18.5 67zM363 829q-12 8 -16.5 16t-4.5 17q0 11 9 21.5t23 10.5q8 0 15 -3t18 -14l134 -130l-21 -25z" />
    <glyph glyph-name="Uacute" unicode="&#xda;" horiz-adv-x="672" 
d="M213 533q11 35 16 49.5t5 25.5t-7.5 19.5t-24.5 10.5l-46 3l12 32h257l-11 -32l-42 -4q-35 -4 -49 -45l-120 -357q-8 -23 -12.5 -47.5t-4.5 -45.5q0 -54 28.5 -82.5t94.5 -28.5q67 0 106 34.5t64 106.5l123 360q6 17 10.5 35t4.5 27q0 26 -17 36.5t-62 10.5l11 32h243
l-11 -32q-26 -2 -45 -6.5t-34.5 -17t-28.5 -37t-27 -64.5l-127 -360q-30 -84 -82.5 -128.5t-148.5 -44.5q-37 0 -71 7.5t-60 26.5t-41.5 50.5t-15.5 78.5q0 28 7.5 61t18.5 67zM475 722l-21 25l134 130q11 11 18 14t15 3q14 0 23 -10.5t9 -21.5q0 -9 -4.5 -17t-16.5 -16z
" />
    <glyph glyph-name="Ucircumflex" unicode="&#xdb;" horiz-adv-x="672" 
d="M213 533q11 35 16 49.5t5 25.5t-7.5 19.5t-24.5 10.5l-46 3l12 32h257l-11 -32l-42 -4q-35 -4 -49 -45l-120 -357q-8 -23 -12.5 -47.5t-4.5 -45.5q0 -54 28.5 -82.5t94.5 -28.5q67 0 106 34.5t64 106.5l123 360q6 17 10.5 35t4.5 27q0 26 -17 36.5t-62 10.5l11 32h243
l-11 -32q-26 -2 -45 -6.5t-34.5 -17t-28.5 -37t-27 -64.5l-127 -360q-30 -84 -82.5 -128.5t-148.5 -44.5q-37 0 -71 7.5t-60 26.5t-41.5 50.5t-15.5 78.5q0 28 7.5 61t18.5 67zM389 721l-21 25l129 118q9 8 18 14.5t19 6.5q12 0 18 -6.5t11 -15.5l66 -123l-29 -17l-79 93z
" />
    <glyph glyph-name="Udieresis" unicode="&#xdc;" horiz-adv-x="672" 
d="M213 533q11 35 16 49.5t5 25.5t-7.5 19.5t-24.5 10.5l-46 3l12 32h257l-11 -32l-42 -4q-35 -4 -49 -45l-120 -357q-8 -23 -12.5 -47.5t-4.5 -45.5q0 -54 28.5 -82.5t94.5 -28.5q67 0 106 34.5t64 106.5l123 360q6 17 10.5 35t4.5 27q0 26 -17 36.5t-62 10.5l11 32h243
l-11 -32q-26 -2 -45 -6.5t-34.5 -17t-28.5 -37t-27 -64.5l-127 -360q-30 -84 -82.5 -128.5t-148.5 -44.5q-37 0 -71 7.5t-60 26.5t-41.5 50.5t-15.5 78.5q0 28 7.5 61t18.5 67zM542 796q0 21 14 37t39 16q17 0 28.5 -11.5t11.5 -28.5q0 -20 -15 -36.5t-38 -16.5
q-19 0 -29.5 11.5t-10.5 28.5zM360 796q0 21 14 37t39 16q17 0 28.5 -11.5t11.5 -28.5q0 -20 -15 -36.5t-38 -16.5q-19 0 -29.5 11.5t-10.5 28.5z" />
    <glyph glyph-name="Yacute" unicode="&#xdd;" horiz-adv-x="687" 
d="M153 0l11 32l45 4q35 4 49 45l78 229l-90 251q-9 26 -20.5 41.5t-25 24t-30 11.5t-35.5 3l11 32h257l-11 -32q-36 0 -50 -9t-14 -26q0 -9 3 -21t8 -26l68 -201l171 185q23 26 32.5 41.5t9.5 28.5q0 16 -16.5 22t-47.5 6l11 32h255l-11 -32q-22 -1 -42.5 -6t-43 -18
t-48 -34.5t-56.5 -55.5l-194 -210l-59 -177q-12 -35 -16.5 -49.5t-4.5 -25.5t9.5 -19.5t26.5 -10.5l52 -3l-12 -32h-270zM495 722l-21 25l134 130q11 11 18 14t15 3q14 0 23 -10.5t9 -21.5q0 -9 -4.5 -17t-16.5 -16z" />
    <glyph glyph-name="Thorn" unicode="&#xde;" horiz-adv-x="585" 
d="M-7 32l40 4q35 4 49 45l152 452q11 35 16 49.5t5 25.5t-7.5 19.5t-24.5 10.5l-46 3l12 32h257l-11 -32l-42 -4q-35 -4 -49 -45l-18 -54h37q111 0 166 -44.5t55 -117.5q0 -43 -15 -79t-42 -63.5t-64.5 -45t-82.5 -23.5q-29 -4 -65 -4.5t-67 -0.5h-49l-7 -20
q-12 -35 -17 -49.5t-5 -25.5t7.5 -19.5t24.5 -10.5l47 -3l-12 -32h-255zM278 201q43 0 82 10t69 31.5t47.5 56.5t17.5 86q0 53 -34 85.5t-95 32.5q-32 0 -44 -8t-18 -25l-90 -269h65z" />
    <glyph glyph-name="germandbls" unicode="&#xdf;" horiz-adv-x="460" 
d="M136 465q16 53 37 97t52 76t72.5 49.5t98.5 17.5q34 0 58 -8.5t39.5 -22.5t22.5 -31.5t7 -35.5q0 -33 -14.5 -57.5t-36 -43.5t-46.5 -35.5t-46.5 -33t-36 -36t-14.5 -44.5q0 -16 7 -32.5t21 -42.5q10 -18 21.5 -37.5t21.5 -39t16.5 -40.5t6.5 -42q0 -28 -11 -52t-30 -42
t-46 -28t-58 -10q-62 0 -94.5 18.5t-32.5 47.5q0 15 10.5 25t26.5 10q28 0 43 -32q11 -25 24 -31t32 -6q28 0 50.5 16t22.5 50q0 15 -6 31t-15 32.5t-19.5 33.5t-20.5 35q-14 25 -25.5 50t-11.5 49q0 37 14 63.5t35.5 47.5t46.5 38t46.5 35.5t35.5 40.5t14 53
q0 30 -17.5 49.5t-63.5 19.5q-30 0 -53 -10t-41 -31t-32.5 -52.5t-28.5 -73.5q-22 -66 -44 -145.5t-46.5 -161t-53 -158t-62.5 -135.5q-11 -19 -25.5 -36.5t-32.5 -31t-40 -21.5t-48 -8t-48.5 12t-22.5 36q0 21 13 31.5t30 10.5q18 0 25.5 -7t12.5 -15.5t10.5 -15.5t17.5 -7
q15 0 29.5 17t27 42.5t22.5 55t18 54.5z" />
    <glyph glyph-name="agrave" unicode="&#xe0;" horiz-adv-x="492" 
d="M385 382q-3 13 -14.5 24.5t-39.5 11.5q-24 0 -51 -18t-53 -47t-50 -66t-42 -74t-29 -71t-11 -58q0 -18 7.5 -28t28.5 -10q23 0 51.5 21.5t57 54t53 70.5t39.5 71zM276 123q-15 -22 -35.5 -45t-45.5 -42.5t-52.5 -32t-57.5 -12.5q-32 0 -52 16t-20 59q0 37 13.5 80
t36.5 86t54.5 82.5t67.5 70t75 49t78 18.5q35 0 50 -12.5t20 -21.5l13 25h13t21.5 0.5t21.5 0.5h12l-144 -331q-11 -24 -13 -38.5t13 -14.5q17 0 43 21.5t55 53.5l22 -18q-14 -19 -34.5 -40t-44.5 -39t-49.5 -29.5t-50.5 -11.5q-20 0 -27.5 8.5t-7.5 23.5q0 19 8 41.5
t21 49.5zM412 489l-132 137q-16 16 -16 30q0 15 10 24t25 9q8 0 15 -3t14 -14l110 -162z" />
    <glyph glyph-name="aacute" unicode="&#xe1;" horiz-adv-x="492" 
d="M385 382q-3 13 -14.5 24.5t-39.5 11.5q-24 0 -51 -18t-53 -47t-50 -66t-42 -74t-29 -71t-11 -58q0 -18 7.5 -28t28.5 -10q23 0 51.5 21.5t57 54t53 70.5t39.5 71zM276 123q-15 -22 -35.5 -45t-45.5 -42.5t-52.5 -32t-57.5 -12.5q-32 0 -52 16t-20 59q0 37 13.5 80
t36.5 86t54.5 82.5t67.5 70t75 49t78 18.5q35 0 50 -12.5t20 -21.5l13 25h13t21.5 0.5t21.5 0.5h12l-144 -331q-11 -24 -13 -38.5t13 -14.5q17 0 43 21.5t55 53.5l22 -18q-14 -19 -34.5 -40t-44.5 -39t-49.5 -29.5t-50.5 -11.5q-20 0 -27.5 8.5t-7.5 23.5q0 19 8 41.5
t21 49.5zM455 672q7 11 14 14t15 3q15 0 25 -9t10 -24q0 -14 -16 -30l-132 -137l-26 21z" />
    <glyph glyph-name="acircumflex" unicode="&#xe2;" horiz-adv-x="492" 
d="M385 382q-3 13 -14.5 24.5t-39.5 11.5q-24 0 -51 -18t-53 -47t-50 -66t-42 -74t-29 -71t-11 -58q0 -18 7.5 -28t28.5 -10q23 0 51.5 21.5t57 54t53 70.5t39.5 71zM276 123q-15 -22 -35.5 -45t-45.5 -42.5t-52.5 -32t-57.5 -12.5q-32 0 -52 16t-20 59q0 37 13.5 80
t36.5 86t54.5 82.5t67.5 70t75 49t78 18.5q35 0 50 -12.5t20 -21.5l13 25h13t21.5 0.5t21.5 0.5h12l-144 -331q-11 -24 -13 -38.5t13 -14.5q17 0 43 21.5t55 53.5l22 -18q-14 -19 -34.5 -40t-44.5 -39t-49.5 -29.5t-50.5 -11.5q-20 0 -27.5 8.5t-7.5 23.5q0 19 8 41.5
t21 49.5zM239 506l139 169q10 13 19 18t19 5q12 0 20.5 -6.5t10.5 -22.5l28 -176l-33 -7l-43 129l-136 -130z" />
    <glyph glyph-name="atilde" unicode="&#xe3;" horiz-adv-x="492" 
d="M385 382q-3 13 -14.5 24.5t-39.5 11.5q-24 0 -51 -18t-53 -47t-50 -66t-42 -74t-29 -71t-11 -58q0 -18 7.5 -28t28.5 -10q23 0 51.5 21.5t57 54t53 70.5t39.5 71zM276 123q-15 -22 -35.5 -45t-45.5 -42.5t-52.5 -32t-57.5 -12.5q-32 0 -52 16t-20 59q0 37 13.5 80
t36.5 86t54.5 82.5t67.5 70t75 49t78 18.5q35 0 50 -12.5t20 -21.5l13 25h13t21.5 0.5t21.5 0.5h12l-144 -331q-11 -24 -13 -38.5t13 -14.5q17 0 43 21.5t55 53.5l22 -18q-14 -19 -34.5 -40t-44.5 -39t-49.5 -29.5t-50.5 -11.5q-20 0 -27.5 8.5t-7.5 23.5q0 19 8 41.5
t21 49.5zM187 551q21 51 46.5 75t60.5 24q22 0 43.5 -8t41.5 -18t38.5 -18t33.5 -8q13 0 21.5 5.5t14.5 13.5t10 17t7 17l32 -12q-17 -48 -40 -71.5t-62 -23.5q-23 0 -44 8t-41 17.5t-38 17.5t-35 8q-12 0 -21 -6t-16 -15t-12 -19t-8 -17z" />
    <glyph glyph-name="adieresis" unicode="&#xe4;" horiz-adv-x="492" 
d="M385 382q-3 13 -14.5 24.5t-39.5 11.5q-24 0 -51 -18t-53 -47t-50 -66t-42 -74t-29 -71t-11 -58q0 -18 7.5 -28t28.5 -10q23 0 51.5 21.5t57 54t53 70.5t39.5 71zM276 123q-15 -22 -35.5 -45t-45.5 -42.5t-52.5 -32t-57.5 -12.5q-32 0 -52 16t-20 59q0 37 13.5 80
t36.5 86t54.5 82.5t67.5 70t75 49t78 18.5q35 0 50 -12.5t20 -21.5l13 25h13t21.5 0.5t21.5 0.5h12l-144 -331q-11 -24 -13 -38.5t13 -14.5q17 0 43 21.5t55 53.5l22 -18q-14 -19 -34.5 -40t-44.5 -39t-49.5 -29.5t-50.5 -11.5q-20 0 -27.5 8.5t-7.5 23.5q0 19 8 41.5
t21 49.5zM441 595q0 21 14 37t39 16q17 0 28.5 -11.5t11.5 -28.5q0 -20 -15 -36.5t-38 -16.5q-19 0 -29.5 11.5t-10.5 28.5zM259 595q0 21 14 37t39 16q17 0 28.5 -11.5t11.5 -28.5q0 -20 -15 -36.5t-38 -16.5q-19 0 -29.5 11.5t-10.5 28.5z" />
    <glyph glyph-name="aring" unicode="&#xe5;" horiz-adv-x="492" 
d="M385 382q-3 13 -14.5 24.5t-39.5 11.5q-24 0 -51 -18t-53 -47t-50 -66t-42 -74t-29 -71t-11 -58q0 -18 7.5 -28t28.5 -10q23 0 51.5 21.5t57 54t53 70.5t39.5 71zM276 123q-15 -22 -35.5 -45t-45.5 -42.5t-52.5 -32t-57.5 -12.5q-32 0 -52 16t-20 59q0 37 13.5 80
t36.5 86t54.5 82.5t67.5 70t75 49t78 18.5q35 0 50 -12.5t20 -21.5l13 25h13t21.5 0.5t21.5 0.5h12l-144 -331q-11 -24 -13 -38.5t13 -14.5q17 0 43 21.5t55 53.5l22 -18q-14 -19 -34.5 -40t-44.5 -39t-49.5 -29.5t-50.5 -11.5q-20 0 -27.5 8.5t-7.5 23.5q0 19 8 41.5
t21 49.5zM299 620q0 36 26 61.5t62 25.5q18 0 34 -7t28.5 -18.5t19.5 -27.5t7 -34q0 -36 -26.5 -61t-62.5 -25t-62 25t-26 61zM387 568q23 0 37 14.5t14 37.5t-14 38t-37 15t-36.5 -15t-13.5 -38t13.5 -37.5t36.5 -14.5z" />
    <glyph glyph-name="ae" unicode="&#xe6;" horiz-adv-x="641" 
d="M385 382q-3 13 -14.5 24.5t-39.5 11.5q-24 0 -51 -18t-53 -47t-50 -66t-42 -74t-29 -71t-11 -58q0 -18 7.5 -28t28.5 -10q19 0 46 18.5t55.5 49t55 69.5t44.5 80zM581 121q-15 -22 -36 -45t-48 -42t-58.5 -31t-65.5 -12q-17 0 -33.5 5t-30 16t-22 29.5t-8.5 45.5
q0 14 1.5 24t3.5 15q-14 -21 -36 -44.5t-48 -44t-55.5 -33.5t-59.5 -13q-32 0 -52 16t-20 59q0 37 13.5 80t36.5 86t54.5 82.5t67.5 70t75.5 49t77.5 18.5q35 0 50.5 -13t20.5 -22l12 26h68l-16 -36q4 5 13 12.5t22 15t30.5 12.5t40.5 5q40 0 59.5 -18.5t19.5 -44.5
q0 -37 -21.5 -70.5t-60 -61.5t-92 -50.5t-116.5 -37.5q-4 -14 -7.5 -36t-3.5 -48q0 -24 10.5 -38t30.5 -14q35 0 76.5 28t79.5 80zM380 203q44 13 82.5 33t67 45t45 53t16.5 56q0 17 -9.5 24.5t-25.5 7.5q-21 0 -44 -17.5t-46 -47t-45 -69.5t-41 -85z" />
    <glyph glyph-name="ccedilla" unicode="&#xe7;" horiz-adv-x="373" 
d="M4 -161q2 -2 18 -9.5t41 -7.5q20 0 35.5 10t15.5 34q0 20 -12 27t-24 7q-16 0 -22 -4t-10 -6l-15 12l57 96q-27 8 -46 31t-19 70t23 108t63.5 115.5t95.5 92t118 37.5q35 0 60 -14.5t25 -40.5q0 -17 -10.5 -32t-34.5 -15q-23 0 -33 10t-10 21q0 8 2.5 15t3.5 12.5t-2 8.5
t-13 3q-24 0 -48.5 -17.5t-48 -45.5t-43.5 -63.5t-35.5 -72t-24 -71t-8.5 -59.5q0 -28 13 -43.5t36 -15.5q32 0 68 28.5t69 77.5l28 -18q-12 -20 -29 -43t-39.5 -42t-51 -31.5t-62.5 -12.5h-5l-34 -59q3 1 7.5 2t12.5 1q23 0 43.5 -13.5t20.5 -46.5q0 -23 -9.5 -40
t-24.5 -28t-34 -16t-38 -5q-41 0 -62.5 11t-25.5 13z" />
    <glyph glyph-name="egrave" unicode="&#xe8;" horiz-adv-x="389" 
d="M329 121q-15 -22 -36 -45t-48 -42t-58.5 -31t-65.5 -12q-17 0 -34 5t-31 16t-22.5 29.5t-8.5 45.5q0 34 10.5 74.5t30 81t46.5 78t60 67t70.5 47t78.5 17.5q45 0 65 -18.5t20 -41.5q0 -38 -21.5 -72t-60 -62.5t-92 -51t-116.5 -37.5q-4 -14 -7.5 -36t-3.5 -48
q0 -24 10.5 -38t30.5 -14q35 0 76.5 28t79.5 80zM128 203q44 13 82.5 33t67 45t45 53t16.5 56q0 17 -9.5 24.5t-25.5 7.5q-21 0 -44 -17.5t-46 -47t-45 -69.5t-41 -85zM370 489l-132 137q-16 16 -16 30q0 15 10 24t25 9q8 0 15 -3t14 -14l110 -162z" />
    <glyph glyph-name="eacute" unicode="&#xe9;" horiz-adv-x="389" 
d="M329 121q-15 -22 -36 -45t-48 -42t-58.5 -31t-65.5 -12q-17 0 -34 5t-31 16t-22.5 29.5t-8.5 45.5q0 34 10.5 74.5t30 81t46.5 78t60 67t70.5 47t78.5 17.5q45 0 65 -18.5t20 -41.5q0 -38 -21.5 -72t-60 -62.5t-92 -51t-116.5 -37.5q-4 -14 -7.5 -36t-3.5 -48
q0 -24 10.5 -38t30.5 -14q35 0 76.5 28t79.5 80zM128 203q44 13 82.5 33t67 45t45 53t16.5 56q0 17 -9.5 24.5t-25.5 7.5q-21 0 -44 -17.5t-46 -47t-45 -69.5t-41 -85zM395 672q7 11 14 14t15 3q15 0 25 -9t10 -24q0 -14 -16 -30l-132 -137l-26 21z" />
    <glyph glyph-name="ecircumflex" unicode="&#xea;" horiz-adv-x="389" 
d="M329 121q-15 -22 -36 -45t-48 -42t-58.5 -31t-65.5 -12q-17 0 -34 5t-31 16t-22.5 29.5t-8.5 45.5q0 34 10.5 74.5t30 81t46.5 78t60 67t70.5 47t78.5 17.5q45 0 65 -18.5t20 -41.5q0 -38 -21.5 -72t-60 -62.5t-92 -51t-116.5 -37.5q-4 -14 -7.5 -36t-3.5 -48
q0 -24 10.5 -38t30.5 -14q35 0 76.5 28t79.5 80zM128 203q44 13 82.5 33t67 45t45 53t16.5 56q0 17 -9.5 24.5t-25.5 7.5q-21 0 -44 -17.5t-46 -47t-45 -69.5t-41 -85zM184 506l139 169q10 13 19 18t19 5q12 0 20.5 -6.5t10.5 -22.5l28 -176l-33 -7l-43 129l-136 -130z" />
    <glyph glyph-name="edieresis" unicode="&#xeb;" horiz-adv-x="389" 
d="M329 121q-15 -22 -36 -45t-48 -42t-58.5 -31t-65.5 -12q-17 0 -34 5t-31 16t-22.5 29.5t-8.5 45.5q0 34 10.5 74.5t30 81t46.5 78t60 67t70.5 47t78.5 17.5q45 0 65 -18.5t20 -41.5q0 -38 -21.5 -72t-60 -62.5t-92 -51t-116.5 -37.5q-4 -14 -7.5 -36t-3.5 -48
q0 -24 10.5 -38t30.5 -14q35 0 76.5 28t79.5 80zM128 203q44 13 82.5 33t67 45t45 53t16.5 56q0 17 -9.5 24.5t-25.5 7.5q-21 0 -44 -17.5t-46 -47t-45 -69.5t-41 -85zM377 595q0 21 14 37t39 16q17 0 28.5 -11.5t11.5 -28.5q0 -20 -15 -36.5t-38 -16.5q-19 0 -29.5 11.5
t-10.5 28.5zM195 595q0 21 14 37t39 16q17 0 28.5 -11.5t11.5 -28.5q0 -20 -15 -36.5t-38 -16.5q-19 0 -29.5 11.5t-10.5 28.5z" />
    <glyph glyph-name="igrave" unicode="&#xec;" horiz-adv-x="304" 
d="M167 318q12 26 16.5 41t4.5 21q0 13 -10 13q-5 0 -16.5 -9t-25.5 -23t-29 -32t-28 -37l-23 15q17 26 43 57t50 52q23 20 43 28t35 8q17 0 29.5 -12t12.5 -35q0 -15 -9 -40t-18 -44l-107 -228q-5 -10 -8 -21.5t6 -11.5q8 0 21 7.5t27 19t27.5 25t22.5 24.5l23 -17
q-11 -15 -30.5 -36t-44 -40t-52 -32.5t-52.5 -13.5q-16 0 -25.5 8.5t-9.5 22.5q0 6 2.5 16.5t7.5 21.5zM268 489l-132 137q-16 16 -16 30q0 15 10 24t25 9q8 0 15 -3t14 -14l110 -162z" />
    <glyph glyph-name="iacute" unicode="&#xed;" horiz-adv-x="304" 
d="M167 318q12 26 16.5 41t4.5 21q0 13 -10 13q-5 0 -16.5 -9t-25.5 -23t-29 -32t-28 -37l-23 15q17 26 43 57t50 52q23 20 43 28t35 8q17 0 29.5 -12t12.5 -35q0 -15 -9 -40t-18 -44l-107 -228q-5 -10 -8 -21.5t6 -11.5q8 0 21 7.5t27 19t27.5 25t22.5 24.5l23 -17
q-11 -15 -30.5 -36t-44 -40t-52 -32.5t-52.5 -13.5q-16 0 -25.5 8.5t-9.5 22.5q0 6 2.5 16.5t7.5 21.5zM308 672q7 11 14 14t15 3q15 0 25 -9t10 -24q0 -14 -16 -30l-132 -137l-26 21z" />
    <glyph glyph-name="icircumflex" unicode="&#xee;" horiz-adv-x="304" 
d="M167 318q12 26 16.5 41t4.5 21q0 13 -10 13q-5 0 -16.5 -9t-25.5 -23t-29 -32t-28 -37l-23 15q17 26 43 57t50 52q23 20 43 28t35 8q17 0 29.5 -12t12.5 -35q0 -15 -9 -40t-18 -44l-107 -228q-5 -10 -8 -21.5t6 -11.5q8 0 21 7.5t27 19t27.5 25t22.5 24.5l23 -17
q-11 -15 -30.5 -36t-44 -40t-52 -32.5t-52.5 -13.5q-16 0 -25.5 8.5t-9.5 22.5q0 6 2.5 16.5t7.5 21.5zM97 506l139 169q10 13 19 18t19 5q12 0 20.5 -6.5t10.5 -22.5l28 -176l-33 -7l-43 129l-136 -130z" />
    <glyph glyph-name="idieresis" unicode="&#xef;" horiz-adv-x="304" 
d="M167 318q12 26 16.5 41t4.5 21q0 13 -10 13q-5 0 -16.5 -9t-25.5 -23t-29 -32t-28 -37l-23 15q17 26 43 57t50 52q23 20 43 28t35 8q17 0 29.5 -12t12.5 -35q0 -15 -9 -40t-18 -44l-107 -228q-5 -10 -8 -21.5t6 -11.5q8 0 21 7.5t27 19t27.5 25t22.5 24.5l23 -17
q-11 -15 -30.5 -36t-44 -40t-52 -32.5t-52.5 -13.5q-16 0 -25.5 8.5t-9.5 22.5q0 6 2.5 16.5t7.5 21.5zM288 595q0 21 14 37t39 16q17 0 28.5 -11.5t11.5 -28.5q0 -20 -15 -36.5t-38 -16.5q-19 0 -29.5 11.5t-10.5 28.5zM106 595q0 21 14 37t39 16q17 0 28.5 -11.5
t11.5 -28.5q0 -20 -15 -36.5t-38 -16.5q-19 0 -29.5 11.5t-10.5 28.5z" />
    <glyph glyph-name="eth" unicode="&#xf0;" horiz-adv-x="414" 
d="M178 518l112 72q-40 49 -109 83l17 33q82 -35 132 -90l113 72l22 -32l-111 -71q57 -85 57 -213q0 -64 -20 -131.5t-56 -123t-84.5 -91t-105.5 -35.5q-19 0 -38.5 5.5t-35.5 20.5t-26 40.5t-10 64.5q0 46 19 100.5t53 101t82 77.5t107 31q19 0 32 -5t21 -11q-2 41 -11 76
t-26 66l-112 -72zM148 22q23 0 46.5 18t45.5 47t40.5 64.5t32.5 70.5t22 65.5t8 49.5q0 26 -8.5 43.5t-36.5 17.5q-32 0 -67 -31t-64 -78t-47.5 -102t-18.5 -103q0 -62 47 -62z" />
    <glyph glyph-name="ntilde" unicode="&#xf1;" horiz-adv-x="534" 
d="M167 328q7 15 10 28t3 19q0 13 -10 13q-5 0 -15.5 -8t-23.5 -21.5t-27.5 -31t-27.5 -36.5l-23 15q8 13 19.5 28.5t24 30.5t26 28.5t25.5 24.5q23 20 42 27t33 7q11 0 21 -8t10 -24q0 -17 -4.5 -36.5t-11.5 -39t-15 -38.5t-15 -35l4 -3q15 19 32 40t34.5 40.5t34 36
t29.5 27.5q29 23 54 31.5t46 8.5q22 0 37 -12t15 -34q0 -15 -4.5 -33.5t-12.5 -36.5l-106 -238q-10 -22 -10 -31q0 -7 6 -7q9 0 23 8.5t28.5 20.5t27 24.5l20.5 20.5l23 -17q-16 -20 -37 -41t-44.5 -38.5t-49 -29t-50.5 -11.5q-16 0 -25.5 8.5t-9.5 22.5q0 13 10 38l115 263
q5 11 8 22t3 20q0 18 -16 18q-22 0 -50 -25q-11 -10 -35 -34.5t-51 -57t-53 -67.5t-41 -66l-69 -139h-65zM206 551q21 51 46.5 75t60.5 24q22 0 43.5 -8t41.5 -18t38.5 -18t33.5 -8q13 0 21.5 5.5t14.5 13.5t10 17t7 17l32 -12q-17 -48 -40 -71.5t-62 -23.5q-23 0 -44 8
t-41 17.5t-38 17.5t-35 8q-12 0 -21 -6t-16 -15t-12 -19t-8 -17z" />
    <glyph glyph-name="ograve" unicode="&#xf2;" horiz-adv-x="418" 
d="M145 -9q-19 0 -38.5 5.5t-35.5 20.5t-26 40.5t-10 64.5q0 31 9 67.5t26 73t40.5 71t53.5 60.5t65 42t74 16q20 0 39.5 -5.5t35 -19.5t25 -40t9.5 -66q0 -31 -9 -67.5t-26 -73t-41.5 -70.5t-54 -60.5t-64 -42.5t-72.5 -16zM148 22q23 0 47 19.5t47 51t42.5 70.5t34.5 77
t23.5 71t8.5 54q0 20 -8.5 37.5t-36.5 17.5q-21 0 -45 -16t-46.5 -42.5t-43 -61.5t-36.5 -72t-25 -74.5t-9 -69.5q0 -62 47 -62zM361 489l-132 137q-16 16 -16 30q0 15 10 24t25 9q8 0 15 -3t14 -14l110 -162z" />
    <glyph glyph-name="oacute" unicode="&#xf3;" horiz-adv-x="418" 
d="M145 -9q-19 0 -38.5 5.5t-35.5 20.5t-26 40.5t-10 64.5q0 31 9 67.5t26 73t40.5 71t53.5 60.5t65 42t74 16q20 0 39.5 -5.5t35 -19.5t25 -40t9.5 -66q0 -31 -9 -67.5t-26 -73t-41.5 -70.5t-54 -60.5t-64 -42.5t-72.5 -16zM148 22q23 0 47 19.5t47 51t42.5 70.5t34.5 77
t23.5 71t8.5 54q0 20 -8.5 37.5t-36.5 17.5q-21 0 -45 -16t-46.5 -42.5t-43 -61.5t-36.5 -72t-25 -74.5t-9 -69.5q0 -62 47 -62zM399 672q7 11 14 14t15 3q15 0 25 -9t10 -24q0 -14 -16 -30l-132 -137l-26 21z" />
    <glyph glyph-name="ocircumflex" unicode="&#xf4;" horiz-adv-x="418" 
d="M145 -9q-19 0 -38.5 5.5t-35.5 20.5t-26 40.5t-10 64.5q0 31 9 67.5t26 73t40.5 71t53.5 60.5t65 42t74 16q20 0 39.5 -5.5t35 -19.5t25 -40t9.5 -66q0 -31 -9 -67.5t-26 -73t-41.5 -70.5t-54 -60.5t-64 -42.5t-72.5 -16zM148 22q23 0 47 19.5t47 51t42.5 70.5t34.5 77
t23.5 71t8.5 54q0 20 -8.5 37.5t-36.5 17.5q-21 0 -45 -16t-46.5 -42.5t-43 -61.5t-36.5 -72t-25 -74.5t-9 -69.5q0 -62 47 -62zM183 506l139 169q10 13 19 18t19 5q12 0 20.5 -6.5t10.5 -22.5l28 -176l-33 -7l-43 129l-136 -130z" />
    <glyph glyph-name="otilde" unicode="&#xf5;" horiz-adv-x="418" 
d="M145 -9q-19 0 -38.5 5.5t-35.5 20.5t-26 40.5t-10 64.5q0 31 9 67.5t26 73t40.5 71t53.5 60.5t65 42t74 16q20 0 39.5 -5.5t35 -19.5t25 -40t9.5 -66q0 -31 -9 -67.5t-26 -73t-41.5 -70.5t-54 -60.5t-64 -42.5t-72.5 -16zM148 22q23 0 47 19.5t47 51t42.5 70.5t34.5 77
t23.5 71t8.5 54q0 20 -8.5 37.5t-36.5 17.5q-21 0 -45 -16t-46.5 -42.5t-43 -61.5t-36.5 -72t-25 -74.5t-9 -69.5q0 -62 47 -62zM150 551q21 51 46.5 75t60.5 24q22 0 43.5 -8t41.5 -18t38.5 -18t33.5 -8q13 0 21.5 5.5t14.5 13.5t10 17t7 17l32 -12q-17 -48 -40 -71.5
t-62 -23.5q-23 0 -44 8t-41 17.5t-38 17.5t-35 8q-12 0 -21 -6t-16 -15t-12 -19t-8 -17z" />
    <glyph glyph-name="odieresis" unicode="&#xf6;" horiz-adv-x="418" 
d="M145 -9q-19 0 -38.5 5.5t-35.5 20.5t-26 40.5t-10 64.5q0 31 9 67.5t26 73t40.5 71t53.5 60.5t65 42t74 16q20 0 39.5 -5.5t35 -19.5t25 -40t9.5 -66q0 -31 -9 -67.5t-26 -73t-41.5 -70.5t-54 -60.5t-64 -42.5t-72.5 -16zM148 22q23 0 47 19.5t47 51t42.5 70.5t34.5 77
t23.5 71t8.5 54q0 20 -8.5 37.5t-36.5 17.5q-21 0 -45 -16t-46.5 -42.5t-43 -61.5t-36.5 -72t-25 -74.5t-9 -69.5q0 -62 47 -62zM373 595q0 21 14 37t39 16q17 0 28.5 -11.5t11.5 -28.5q0 -20 -15 -36.5t-38 -16.5q-19 0 -29.5 11.5t-10.5 28.5zM191 595q0 21 14 37t39 16
q17 0 28.5 -11.5t11.5 -28.5q0 -20 -15 -36.5t-38 -16.5q-19 0 -29.5 11.5t-10.5 28.5z" />
    <glyph glyph-name="divide" unicode="&#xf7;" 
d="M232 443q0 20 13.5 33t33.5 13t33 -13t13 -33t-13 -33t-33 -13t-33.5 13t-13.5 33zM104 349h366v-42h-366v42zM232 212q0 20 13.5 33t33.5 13t33 -13t13 -33t-13 -33t-33 -13t-33.5 13t-13.5 33z" />
    <glyph glyph-name="oslash" unicode="&#xf8;" horiz-adv-x="418" 
d="M53 40q-8 15 -13 35t-5 47q0 31 9 67.5t26 73t40.5 71t53.5 60.5t65 42t74 16q14 0 28 -2.5t27 -9.5l43 56l30 -22l-44 -58q11 -15 18 -38t7 -57q0 -31 -9 -67.5t-26 -73t-41.5 -70.5t-54 -60.5t-64 -42.5t-72.5 -16q-17 0 -34.5 4.5t-32.5 15.5l-48 -63l-30 23zM351 369
l-245 -321q12 -26 42 -26q23 0 47 19.5t47 51t42.5 70.5t34.5 77t23.5 71t8.5 54v4zM335 410q-12 10 -29 10q-31 0 -65 -31t-63.5 -78.5t-50.5 -103t-25 -103.5z" />
    <glyph glyph-name="ugrave" unicode="&#xf9;" horiz-adv-x="530" 
d="M159 335q7 17 9.5 26t2.5 14q0 8 -7 8q-9 0 -23 -11t-29 -26t-28.5 -30t-20.5 -23l-23 17q16 19 37.5 43t46.5 44.5t51 34.5t51 14q16 0 25.5 -8.5t9.5 -22.5q0 -13 -10 -38l-100 -263q-5 -11 -8 -22t-3 -20q0 -18 16 -18q22 0 50 25q11 10 34 34.5t49.5 57t51.5 67.5
t40 66l69 139h65l-138 -328q-7 -15 -11 -28.5t-4 -19.5q0 -13 10 -13q5 0 15.5 7.5t24 20.5t28 30t27.5 36l23 -15q-8 -13 -19.5 -27.5t-24 -28.5t-25 -26t-22.5 -21q-27 -24 -46 -31.5t-33 -7.5t-24.5 8t-10.5 24q0 17 5.5 36.5t13.5 39t16.5 38.5t15.5 35l-4 3
q-15 -19 -31.5 -40t-33 -40.5t-32 -36.5t-28.5 -27q-29 -23 -54 -31.5t-46 -8.5q-22 0 -37 12t-15 34q0 15 4.5 33.5t12.5 36.5zM377 489l-132 137q-16 16 -16 30q0 15 10 24t25 9q8 0 15 -3t14 -14l110 -162z" />
    <glyph glyph-name="uacute" unicode="&#xfa;" horiz-adv-x="530" 
d="M159 335q7 17 9.5 26t2.5 14q0 8 -7 8q-9 0 -23 -11t-29 -26t-28.5 -30t-20.5 -23l-23 17q16 19 37.5 43t46.5 44.5t51 34.5t51 14q16 0 25.5 -8.5t9.5 -22.5q0 -13 -10 -38l-100 -263q-5 -11 -8 -22t-3 -20q0 -18 16 -18q22 0 50 25q11 10 34 34.5t49.5 57t51.5 67.5
t40 66l69 139h65l-138 -328q-7 -15 -11 -28.5t-4 -19.5q0 -13 10 -13q5 0 15.5 7.5t24 20.5t28 30t27.5 36l23 -15q-8 -13 -19.5 -27.5t-24 -28.5t-25 -26t-22.5 -21q-27 -24 -46 -31.5t-33 -7.5t-24.5 8t-10.5 24q0 17 5.5 36.5t13.5 39t16.5 38.5t15.5 35l-4 3
q-15 -19 -31.5 -40t-33 -40.5t-32 -36.5t-28.5 -27q-29 -23 -54 -31.5t-46 -8.5q-22 0 -37 12t-15 34q0 15 4.5 33.5t12.5 36.5zM442 672q7 11 14 14t15 3q15 0 25 -9t10 -24q0 -14 -16 -30l-132 -137l-26 21z" />
    <glyph glyph-name="ucircumflex" unicode="&#xfb;" horiz-adv-x="530" 
d="M159 335q7 17 9.5 26t2.5 14q0 8 -7 8q-9 0 -23 -11t-29 -26t-28.5 -30t-20.5 -23l-23 17q16 19 37.5 43t46.5 44.5t51 34.5t51 14q16 0 25.5 -8.5t9.5 -22.5q0 -13 -10 -38l-100 -263q-5 -11 -8 -22t-3 -20q0 -18 16 -18q22 0 50 25q11 10 34 34.5t49.5 57t51.5 67.5
t40 66l69 139h65l-138 -328q-7 -15 -11 -28.5t-4 -19.5q0 -13 10 -13q5 0 15.5 7.5t24 20.5t28 30t27.5 36l23 -15q-8 -13 -19.5 -27.5t-24 -28.5t-25 -26t-22.5 -21q-27 -24 -46 -31.5t-33 -7.5t-24.5 8t-10.5 24q0 17 5.5 36.5t13.5 39t16.5 38.5t15.5 35l-4 3
q-15 -19 -31.5 -40t-33 -40.5t-32 -36.5t-28.5 -27q-29 -23 -54 -31.5t-46 -8.5q-22 0 -37 12t-15 34q0 15 4.5 33.5t12.5 36.5zM238 506l139 169q10 13 19 18t19 5q12 0 20.5 -6.5t10.5 -22.5l28 -176l-33 -7l-43 129l-136 -130z" />
    <glyph glyph-name="udieresis" unicode="&#xfc;" horiz-adv-x="530" 
d="M159 335q7 17 9.5 26t2.5 14q0 8 -7 8q-9 0 -23 -11t-29 -26t-28.5 -30t-20.5 -23l-23 17q16 19 37.5 43t46.5 44.5t51 34.5t51 14q16 0 25.5 -8.5t9.5 -22.5q0 -13 -10 -38l-100 -263q-5 -11 -8 -22t-3 -20q0 -18 16 -18q22 0 50 25q11 10 34 34.5t49.5 57t51.5 67.5
t40 66l69 139h65l-138 -328q-7 -15 -11 -28.5t-4 -19.5q0 -13 10 -13q5 0 15.5 7.5t24 20.5t28 30t27.5 36l23 -15q-8 -13 -19.5 -27.5t-24 -28.5t-25 -26t-22.5 -21q-27 -24 -46 -31.5t-33 -7.5t-24.5 8t-10.5 24q0 17 5.5 36.5t13.5 39t16.5 38.5t15.5 35l-4 3
q-15 -19 -31.5 -40t-33 -40.5t-32 -36.5t-28.5 -27q-29 -23 -54 -31.5t-46 -8.5q-22 0 -37 12t-15 34q0 15 4.5 33.5t12.5 36.5zM424 595q0 21 14 37t39 16q17 0 28.5 -11.5t11.5 -28.5q0 -20 -15 -36.5t-38 -16.5q-19 0 -29.5 11.5t-10.5 28.5zM242 595q0 21 14 37t39 16
q17 0 28.5 -11.5t11.5 -28.5q0 -20 -15 -36.5t-38 -16.5q-19 0 -29.5 11.5t-10.5 28.5z" />
    <glyph glyph-name="yacute" unicode="&#xfd;" horiz-adv-x="471" 
d="M40 279q12 33 26 64.5t30.5 55.5t36.5 38.5t45 14.5q28 0 45.5 -23t25.5 -65q6 -30 10.5 -69t8 -82t6 -87t3.5 -84q24 36 45 74t36.5 74t24.5 67.5t9 54.5q0 19 -3.5 31.5t-7 23t-7 20.5t-3.5 23q0 20 12.5 33t35.5 13t35 -14t12 -37q0 -25 -10 -64t-28.5 -86t-44.5 -99
t-56.5 -102.5t-65.5 -97t-72 -81.5q-38 -37 -83.5 -59t-87.5 -22t-59 16.5t-17 34.5q0 19 14 32t31 13t26.5 -7t17 -15t15 -15t20.5 -7q14 0 31.5 8.5t36 23t37 34t35.5 41.5q0 43 -2 95.5t-5.5 104.5t-8 98.5t-9.5 77.5q-4 22 -8 35.5t-7.5 20.5t-8 9t-10.5 2
q-9 0 -19.5 -12.5t-20.5 -31.5t-19.5 -41t-16.5 -41zM390 672q7 11 14 14t15 3q15 0 25 -9t10 -24q0 -14 -16 -30l-132 -137l-26 21z" />
    <glyph glyph-name="thorn" unicode="&#xfe;" horiz-adv-x="447" 
d="M-138 -165l41 5q17 2 28 11t19 29l294 745q11 26 -13 30l-38 6l10 28h130l5 -12l-86 -221q44 -1 77 -14.5t54.5 -36.5t32.5 -54t11 -67q0 -48 -18 -100t-52.5 -95t-84.5 -70.5t-113 -27.5q-26 0 -48.5 3.5t-36.5 10.5l-41 -102q-2 -7 -5.5 -17.5t-3.5 -21.5q0 -22 30 -25
l55 -5l-8 -31h-246zM92 53q1 -2 4.5 -7t12 -10t21 -8.5t31.5 -3.5q41 0 75.5 24.5t59.5 62.5t39 85.5t14 92.5q0 24 -4.5 47.5t-17 42t-34 30.5t-55.5 13z" />
    <glyph glyph-name="ydieresis" unicode="&#xff;" horiz-adv-x="471" 
d="M40 279q12 33 26 64.5t30.5 55.5t36.5 38.5t45 14.5q28 0 45.5 -23t25.5 -65q6 -30 10.5 -69t8 -82t6 -87t3.5 -84q24 36 45 74t36.5 74t24.5 67.5t9 54.5q0 19 -3.5 31.5t-7 23t-7 20.5t-3.5 23q0 20 12.5 33t35.5 13t35 -14t12 -37q0 -25 -10 -64t-28.5 -86t-44.5 -99
t-56.5 -102.5t-65.5 -97t-72 -81.5q-38 -37 -83.5 -59t-87.5 -22t-59 16.5t-17 34.5q0 19 14 32t31 13t26.5 -7t17 -15t15 -15t20.5 -7q14 0 31.5 8.5t36 23t37 34t35.5 41.5q0 43 -2 95.5t-5.5 104.5t-8 98.5t-9.5 77.5q-4 22 -8 35.5t-7.5 20.5t-8 9t-10.5 2
q-9 0 -19.5 -12.5t-20.5 -31.5t-19.5 -41t-16.5 -41zM366 595q0 21 14 37t39 16q17 0 28.5 -11.5t11.5 -28.5q0 -20 -15 -36.5t-38 -16.5q-19 0 -29.5 11.5t-10.5 28.5zM184 595q0 21 14 37t39 16q17 0 28.5 -11.5t11.5 -28.5q0 -20 -15 -36.5t-38 -16.5q-19 0 -29.5 11.5
t-10.5 28.5z" />
    <glyph glyph-name="Amacron" unicode="&#x100;" horiz-adv-x="657" 
d="M-66 0l11 32q22 1 42 5.5t40.5 16.5t43 35t48.5 61l345 503l91 26l-41 -551q-3 -35 1.5 -54t15 -28.5t26 -11.5t35.5 -2l-11 -32h-274l11 32q31 0 51.5 5t32.5 15t17 26t7 37l12 128h-201l-57 -84q-6 -9 -14.5 -22.5t-17 -28t-14 -28t-5.5 -23.5q0 -9 5.5 -14t14.5 -7.5
t20.5 -3t23.5 -0.5l-11 -32h-248zM264 284h176l28 301zM410 829h244l-18 -56h-245z" />
    <glyph glyph-name="amacron" unicode="&#x101;" horiz-adv-x="492" 
d="M385 382q-3 13 -14.5 24.5t-39.5 11.5q-24 0 -51 -18t-53 -47t-50 -66t-42 -74t-29 -71t-11 -58q0 -18 7.5 -28t28.5 -10q23 0 51.5 21.5t57 54t53 70.5t39.5 71zM276 123q-15 -22 -35.5 -45t-45.5 -42.5t-52.5 -32t-57.5 -12.5q-32 0 -52 16t-20 59q0 37 13.5 80
t36.5 86t54.5 82.5t67.5 70t75 49t78 18.5q35 0 50 -12.5t20 -21.5l13 25h13t21.5 0.5t21.5 0.5h12l-144 -331q-11 -24 -13 -38.5t13 -14.5q17 0 43 21.5t55 53.5l22 -18q-14 -19 -34.5 -40t-44.5 -39t-49.5 -29.5t-50.5 -11.5q-20 0 -27.5 8.5t-7.5 23.5q0 19 8 41.5
t21 49.5zM276 620h247l-19 -56h-247z" />
    <glyph glyph-name="Abreve" unicode="&#x102;" horiz-adv-x="657" 
d="M-66 0l11 32q22 1 42 5.5t40.5 16.5t43 35t48.5 61l345 503l91 26l-41 -551q-3 -35 1.5 -54t15 -28.5t26 -11.5t35.5 -2l-11 -32h-274l11 32q31 0 51.5 5t32.5 15t17 26t7 37l12 128h-201l-57 -84q-6 -9 -14.5 -22.5t-17 -28t-14 -28t-5.5 -23.5q0 -9 5.5 -14t14.5 -7.5
t20.5 -3t23.5 -0.5l-11 -32h-248zM264 284h176l28 301zM429 903q-2 -45 17.5 -71t66.5 -26t82 28.5t55 72.5l32 -10q-26 -77 -74.5 -113t-102.5 -36q-62 0 -93 37t-21 118h38z" />
    <glyph glyph-name="abreve" unicode="&#x103;" horiz-adv-x="492" 
d="M385 382q-3 13 -14.5 24.5t-39.5 11.5q-24 0 -51 -18t-53 -47t-50 -66t-42 -74t-29 -71t-11 -58q0 -18 7.5 -28t28.5 -10q23 0 51.5 21.5t57 54t53 70.5t39.5 71zM276 123q-15 -22 -35.5 -45t-45.5 -42.5t-52.5 -32t-57.5 -12.5q-32 0 -52 16t-20 59q0 37 13.5 80
t36.5 86t54.5 82.5t67.5 70t75 49t78 18.5q35 0 50 -12.5t20 -21.5l13 25h13t21.5 0.5t21.5 0.5h12l-144 -331q-11 -24 -13 -38.5t13 -14.5q17 0 43 21.5t55 53.5l22 -18q-14 -19 -34.5 -40t-44.5 -39t-49.5 -29.5t-50.5 -11.5q-20 0 -27.5 8.5t-7.5 23.5q0 19 8 41.5
t21 49.5zM293 682q-2 -45 17.5 -71t66.5 -26t82 28.5t55 72.5l32 -10q-26 -77 -74.5 -113t-102.5 -36q-62 0 -93 37t-21 118h38z" />
    <glyph glyph-name="Aogonek" unicode="&#x104;" horiz-adv-x="657" 
d="M-55 32q22 1 42 5.5t40.5 16.5t43 35t48.5 61l345 503l91 26l-41 -551q-3 -35 1.5 -54t15 -28.5t26 -11.5t35.5 -2l-11 -32h-47q-14 -12 -28.5 -26.5t-26.5 -31t-20 -35t-8 -38.5q0 -19 11.5 -28.5t28.5 -9.5q23 0 38 12.5t25 26.5l25 -17q-8 -13 -18.5 -25.5t-24 -22.5
t-31 -16t-40.5 -6q-38 0 -59 17t-21 52q0 23 9 43.5t23.5 39t34 34.5t40.5 31h-185l11 32q31 0 51.5 5t32.5 15t17 26t7 37l12 128h-201l-57 -84q-6 -9 -14.5 -22.5t-17 -28t-14 -28t-5.5 -23.5q0 -9 5.5 -14t14.5 -7.5t20.5 -3t23.5 -0.5l-11 -32h-248zM440 284l28 301
l-204 -301h176z" />
    <glyph glyph-name="aogonek" unicode="&#x105;" horiz-adv-x="492" 
d="M372 -147q-8 -13 -18.5 -25.5t-24 -22.5t-31 -16t-40.5 -6q-38 0 -59 17t-21 52q0 22 8.5 42t22.5 38t33 34t39 31q-17 2 -23.5 10t-6.5 22q0 19 8 41.5t21 49.5l-4 3q-15 -22 -35.5 -45t-45.5 -42.5t-52.5 -32t-57.5 -12.5q-32 0 -52 16t-20 59q0 37 13.5 80t36.5 86
t54.5 82.5t67.5 70t75 49t78 18.5q35 0 50 -12.5t20 -21.5l13 25h13t21.5 0.5t21.5 0.5h12l-144 -331q-11 -24 -13 -38.5t13 -14.5q17 0 43 21.5t55 53.5l22 -18q-21 -29 -54.5 -60t-71.5 -48q-15 -12 -31.5 -27t-30.5 -33t-23.5 -38t-9.5 -42q0 -19 11.5 -28.5t28.5 -9.5
q23 0 38 12.5t25 26.5zM385 382q-3 13 -14.5 24.5t-39.5 11.5q-24 0 -51 -18t-53 -47t-50 -66t-42 -74t-29 -71t-11 -58q0 -18 7.5 -28t28.5 -10q23 0 51.5 21.5t57 54t53 70.5t39.5 71z" />
    <glyph glyph-name="Cacute" unicode="&#x106;" horiz-adv-x="635" 
d="M479 71q-24 -26 -49 -43t-51.5 -27t-54.5 -14t-58 -4q-61 0 -100.5 19.5t-63 49.5t-33 67.5t-9.5 73.5q0 103 39 193.5t103 158t144 106.5t163 39q36 0 60.5 -5.5t40 -11.5t24.5 -11.5t15 -5.5q8 0 14.5 7.5t12.5 18.5h29l-75 -219h-33l4 60q2 28 1 52t-10.5 41.5
t-29.5 27.5t-56 10q-39 0 -80 -17.5t-79.5 -49t-73 -74.5t-60 -94t-40.5 -108.5t-15 -116.5q0 -39 7.5 -70.5t24.5 -54t44 -34.5t65 -12q31 0 59.5 10t52.5 26t43.5 35.5t33.5 39.5q23 31 39.5 61t27.5 59h35l-79 -254h-34zM469 722l-21 25l134 130q11 11 18 14t15 3
q14 0 23 -10.5t9 -21.5q0 -9 -4.5 -17t-16.5 -16z" />
    <glyph glyph-name="cacute" unicode="&#x107;" horiz-adv-x="373" 
d="M317 120q-12 -20 -29 -43t-39.5 -42t-51 -31.5t-62.5 -12.5q-20 0 -40 4.5t-36 16.5t-26 33t-10 54q0 47 23 108t63.5 115.5t95.5 92t118 37.5q35 0 60 -14.5t25 -40.5q0 -17 -10.5 -32t-34.5 -15q-23 0 -33 10t-10 21q0 8 2.5 15t3.5 12.5t-2 8.5t-13 3
q-24 0 -48.5 -17.5t-48 -45.5t-43.5 -63.5t-35.5 -72t-24 -71t-8.5 -59.5q0 -28 13 -43.5t36 -15.5q32 0 68 28.5t69 77.5zM378 672q7 11 14 14t15 3q15 0 25 -9t10 -24q0 -14 -16 -30l-132 -137l-26 21z" />
    <glyph glyph-name="Ccircumflex" unicode="&#x108;" horiz-adv-x="635" 
d="M479 71q-24 -26 -49 -43t-51.5 -27t-54.5 -14t-58 -4q-61 0 -100.5 19.5t-63 49.5t-33 67.5t-9.5 73.5q0 103 39 193.5t103 158t144 106.5t163 39q36 0 60.5 -5.5t40 -11.5t24.5 -11.5t15 -5.5q8 0 14.5 7.5t12.5 18.5h29l-75 -219h-33l4 60q2 28 1 52t-10.5 41.5
t-29.5 27.5t-56 10q-39 0 -80 -17.5t-79.5 -49t-73 -74.5t-60 -94t-40.5 -108.5t-15 -116.5q0 -39 7.5 -70.5t24.5 -54t44 -34.5t65 -12q31 0 59.5 10t52.5 26t43.5 35.5t33.5 39.5q23 31 39.5 61t27.5 59h35l-79 -254h-34zM402 721l-21 25l129 118q9 8 18 14.5t19 6.5
q12 0 18 -6.5t11 -15.5l66 -123l-29 -17l-79 93z" />
    <glyph glyph-name="ccircumflex" unicode="&#x109;" horiz-adv-x="373" 
d="M317 120q-12 -20 -29 -43t-39.5 -42t-51 -31.5t-62.5 -12.5q-20 0 -40 4.5t-36 16.5t-26 33t-10 54q0 47 23 108t63.5 115.5t95.5 92t118 37.5q35 0 60 -14.5t25 -40.5q0 -17 -10.5 -32t-34.5 -15q-23 0 -33 10t-10 21q0 8 2.5 15t3.5 12.5t-2 8.5t-13 3
q-24 0 -48.5 -17.5t-48 -45.5t-43.5 -63.5t-35.5 -72t-24 -71t-8.5 -59.5q0 -28 13 -43.5t36 -15.5q32 0 68 28.5t69 77.5zM178 506l139 169q10 13 19 18t19 5q12 0 20.5 -6.5t10.5 -22.5l28 -176l-33 -7l-43 129l-136 -130z" />
    <glyph glyph-name="Cdotaccent" unicode="&#x10a;" horiz-adv-x="635" 
d="M479 71q-24 -26 -49 -43t-51.5 -27t-54.5 -14t-58 -4q-61 0 -100.5 19.5t-63 49.5t-33 67.5t-9.5 73.5q0 103 39 193.5t103 158t144 106.5t163 39q36 0 60.5 -5.5t40 -11.5t24.5 -11.5t15 -5.5q8 0 14.5 7.5t12.5 18.5h29l-75 -219h-33l4 60q2 28 1 52t-10.5 41.5
t-29.5 27.5t-56 10q-39 0 -80 -17.5t-79.5 -49t-73 -74.5t-60 -94t-40.5 -108.5t-15 -116.5q0 -39 7.5 -70.5t24.5 -54t44 -34.5t65 -12q31 0 59.5 10t52.5 26t43.5 35.5t33.5 39.5q23 31 39.5 61t27.5 59h35l-79 -254h-34zM485 804q0 23 16 41t43 18q20 0 32.5 -12.5
t12.5 -31.5q0 -23 -16.5 -41.5t-42.5 -18.5q-22 0 -33.5 13.5t-11.5 31.5z" />
    <glyph glyph-name="cdotaccent" unicode="&#x10b;" horiz-adv-x="373" 
d="M317 120q-12 -20 -29 -43t-39.5 -42t-51 -31.5t-62.5 -12.5q-20 0 -40 4.5t-36 16.5t-26 33t-10 54q0 47 23 108t63.5 115.5t95.5 92t118 37.5q35 0 60 -14.5t25 -40.5q0 -17 -10.5 -32t-34.5 -15q-23 0 -33 10t-10 21q0 8 2.5 15t3.5 12.5t-2 8.5t-13 3
q-24 0 -48.5 -17.5t-48 -45.5t-43.5 -63.5t-35.5 -72t-24 -71t-8.5 -59.5q0 -28 13 -43.5t36 -15.5q32 0 68 28.5t69 77.5zM282 575q0 23 16 41t43 18q20 0 32.5 -12.5t12.5 -31.5q0 -23 -16.5 -41.5t-42.5 -18.5q-22 0 -33.5 13.5t-11.5 31.5z" />
    <glyph glyph-name="Ccaron" unicode="&#x10c;" horiz-adv-x="635" 
d="M479 71q-24 -26 -49 -43t-51.5 -27t-54.5 -14t-58 -4q-61 0 -100.5 19.5t-63 49.5t-33 67.5t-9.5 73.5q0 103 39 193.5t103 158t144 106.5t163 39q36 0 60.5 -5.5t40 -11.5t24.5 -11.5t15 -5.5q8 0 14.5 7.5t12.5 18.5h29l-75 -219h-33l4 60q2 28 1 52t-10.5 41.5
t-29.5 27.5t-56 10q-39 0 -80 -17.5t-79.5 -49t-73 -74.5t-60 -94t-40.5 -108.5t-15 -116.5q0 -39 7.5 -70.5t24.5 -54t44 -34.5t65 -12q31 0 59.5 10t52.5 26t43.5 35.5t33.5 39.5q23 31 39.5 61t27.5 59h35l-79 -254h-34zM426 878l29 17l79 -93l132 95l21 -25l-129 -118
q-9 -8 -18 -14.5t-19 -6.5q-12 0 -18 6.5t-11 15.5z" />
    <glyph glyph-name="ccaron" unicode="&#x10d;" horiz-adv-x="373" 
d="M317 120q-12 -20 -29 -43t-39.5 -42t-51 -31.5t-62.5 -12.5q-20 0 -40 4.5t-36 16.5t-26 33t-10 54q0 47 23 108t63.5 115.5t95.5 92t118 37.5q35 0 60 -14.5t25 -40.5q0 -17 -10.5 -32t-34.5 -15q-23 0 -33 10t-10 21q0 8 2.5 15t3.5 12.5t-2 8.5t-13 3
q-24 0 -48.5 -17.5t-48 -45.5t-43.5 -63.5t-35.5 -72t-24 -71t-8.5 -59.5q0 -28 13 -43.5t36 -15.5q32 0 68 28.5t69 77.5zM355 508q-10 -13 -19 -18t-19 -5q-12 0 -20.5 6.5t-10.5 22.5l-28 176l33 7l43 -129l136 130l24 -21z" />
    <glyph glyph-name="Dcaron" unicode="&#x10e;" horiz-adv-x="716" 
d="M-7 32l40 4q35 4 49 45l152 452q11 35 16 49.5t5 25.5t-7.5 19.5t-24.5 10.5l-46 3l12 32h206q48 0 102 -13.5t99 -46.5t74.5 -89.5t29.5 -143.5q0 -60 -17 -113t-45.5 -97t-66.5 -77.5t-81 -52.5q-51 -23 -107 -31.5t-121 -8.5h-280zM260 37q87 0 151.5 32t107.5 83
t64 115.5t21 129.5q0 70 -18 116.5t-47.5 73.5t-67 38t-75.5 11q-16 0 -25.5 -4.5t-15.5 -12t-9.5 -17t-6.5 -19.5l-151 -453q-4 -12 -7 -26t-3 -20q0 -11 2.5 -20t10.5 -15t23.5 -9t41.5 -3h4zM355 878l29 17l79 -93l132 95l21 -25l-129 -118q-9 -8 -18 -14.5t-19 -6.5
q-12 0 -18 6.5t-11 15.5z" />
    <glyph glyph-name="dcaron" unicode="&#x10f;" horiz-adv-x="500" 
d="M385 382q-3 13 -14.5 24.5t-39.5 11.5q-24 0 -51 -18t-53 -47t-50 -66t-42 -74t-29 -71t-11 -58q0 -18 7.5 -28t28.5 -10q23 0 51.5 22t57 54.5t53 70.5t39.5 70q14 31 26.5 59t26.5 60zM275 123q-15 -22 -35.5 -45t-45 -42.5t-52 -32t-57.5 -12.5q-32 0 -52 16t-20 59
q0 37 13.5 80t36.5 86t54.5 82.5t67.5 70t75 49t78 18.5q17 0 29 -3.5t20.5 -8.5t13 -10.5t6.5 -9.5l85 205q11 26 -13 30l-38 6l10 28h132l5 -12l-249 -581q-5 -13 -7 -24.5t13 -11.5q17 0 43 21.5t55 53.5l22 -18q-14 -19 -34.5 -40t-44.5 -39t-49.5 -29.5t-50.5 -11.5
q-20 0 -27.5 8.5t-7.5 23.5q0 19 8 41.5t21 49.5zM579 489l72 167q8 19 18.5 26t22.5 7q14 0 23.5 -7.5t9.5 -20.5t-12 -31l-104 -154z" />
    <glyph glyph-name="Dcroat" unicode="&#x110;" horiz-adv-x="716" 
d="M-7 32l40 4q35 4 49 45l81 242h-73l17 46h72l55 164q11 35 16 49.5t5 25.5t-7.5 19.5t-24.5 10.5l-46 3l12 32h206q48 0 102 -13.5t99 -46.5t74.5 -89.5t29.5 -143.5q0 -60 -17 -113t-45.5 -97t-66.5 -77.5t-81 -52.5q-51 -23 -107 -31.5t-121 -8.5h-280zM260 37
q87 0 151.5 32t107.5 83t64 115.5t21 129.5q0 70 -18 116.5t-47.5 73.5t-67 38t-75.5 11q-16 0 -25.5 -4.5t-15.5 -12t-9.5 -17t-6.5 -19.5l-71 -214h174l-17 -46h-173l-64 -193q-4 -12 -7 -26t-3 -20q0 -11 2.5 -20t10.5 -15t23.5 -9t41.5 -3h4z" />
    <glyph glyph-name="dcroat" unicode="&#x111;" horiz-adv-x="500" 
d="M275 123q-15 -22 -35.5 -45t-45 -42.5t-52 -32t-57.5 -12.5q-32 0 -52 16t-20 59q0 37 13.5 80t36.5 86t54.5 82.5t67.5 70t75 49t78 18.5q17 0 29 -3.5t20.5 -8.5t13 -10.5t6.5 -9.5l45 108h-170l13 40h173l24 57q11 26 -13 30l-38 6l10 28h132l5 -12l-47 -109h79
l-13 -40h-83l-185 -432q-5 -13 -7 -24.5t13 -11.5q17 0 43 21.5t55 53.5l22 -18q-14 -19 -34.5 -40t-44.5 -39t-49.5 -29.5t-50.5 -11.5q-20 0 -27.5 8.5t-7.5 23.5q0 19 8 41.5t21 49.5zM385 382q-3 13 -14.5 24.5t-39.5 11.5q-24 0 -51 -18t-53 -47t-50 -66t-42 -74
t-29 -71t-11 -58q0 -18 7.5 -28t28.5 -10q23 0 51.5 22t57 54.5t53 70.5t39.5 70q14 31 26.5 59t26.5 60z" />
    <glyph glyph-name="Emacron" unicode="&#x112;" horiz-adv-x="651" 
d="M-18 0l11 32l40 4q35 4 49 45l152 452q11 35 16 49.5t5 25.5t-7.5 19.5t-24.5 10.5l-46 3l12 32h441l16 -134h-32l-50 76q-5 8 -11.5 11.5t-17.5 3.5h-181l-84 -253h93q32 0 54 6.5t36 18t23 27.5t16 36h34l-84 -253l-34 -1q1 8 3 26.5t2 33.5q0 32 -18 48.5t-65 16.5
h-75l-62 -188q-12 -35 -16.5 -49t-4.5 -25t8 -20.5t30 -9.5h230q11 0 16.5 3t10.5 10l90 118h31l-45 -175h-561zM343 829h244l-18 -56h-245z" />
    <glyph glyph-name="emacron" unicode="&#x113;" horiz-adv-x="389" 
d="M329 121q-15 -22 -36 -45t-48 -42t-58.5 -31t-65.5 -12q-17 0 -34 5t-31 16t-22.5 29.5t-8.5 45.5q0 34 10.5 74.5t30 81t46.5 78t60 67t70.5 47t78.5 17.5q45 0 65 -18.5t20 -41.5q0 -38 -21.5 -72t-60 -62.5t-92 -51t-116.5 -37.5q-4 -14 -7.5 -36t-3.5 -48
q0 -24 10.5 -38t30.5 -14q35 0 76.5 28t79.5 80zM128 203q44 13 82.5 33t67 45t45 53t16.5 56q0 17 -9.5 24.5t-25.5 7.5q-21 0 -44 -17.5t-46 -47t-45 -69.5t-41 -85zM203 620h247l-19 -56h-247z" />
    <glyph glyph-name="Ebreve" unicode="&#x114;" horiz-adv-x="651" 
d="M-18 0l11 32l40 4q35 4 49 45l152 452q11 35 16 49.5t5 25.5t-7.5 19.5t-24.5 10.5l-46 3l12 32h441l16 -134h-32l-50 76q-5 8 -11.5 11.5t-17.5 3.5h-181l-84 -253h93q32 0 54 6.5t36 18t23 27.5t16 36h34l-84 -253l-34 -1q1 8 3 26.5t2 33.5q0 32 -18 48.5t-65 16.5
h-75l-62 -188q-12 -35 -16.5 -49t-4.5 -25t8 -20.5t30 -9.5h230q11 0 16.5 3t10.5 10l90 118h31l-45 -175h-561zM381 903q-2 -45 17.5 -71t66.5 -26t82 28.5t55 72.5l32 -10q-26 -77 -74.5 -113t-102.5 -36q-62 0 -93 37t-21 118h38z" />
    <glyph glyph-name="ebreve" unicode="&#x115;" horiz-adv-x="389" 
d="M329 121q-15 -22 -36 -45t-48 -42t-58.5 -31t-65.5 -12q-17 0 -34 5t-31 16t-22.5 29.5t-8.5 45.5q0 34 10.5 74.5t30 81t46.5 78t60 67t70.5 47t78.5 17.5q45 0 65 -18.5t20 -41.5q0 -38 -21.5 -72t-60 -62.5t-92 -51t-116.5 -37.5q-4 -14 -7.5 -36t-3.5 -48
q0 -24 10.5 -38t30.5 -14q35 0 76.5 28t79.5 80zM128 203q44 13 82.5 33t67 45t45 53t16.5 56q0 17 -9.5 24.5t-25.5 7.5q-21 0 -44 -17.5t-46 -47t-45 -69.5t-41 -85zM239 682q-2 -45 17.5 -71t66.5 -26t82 28.5t55 72.5l32 -10q-26 -77 -74.5 -113t-102.5 -36
q-62 0 -93 37t-21 118h38z" />
    <glyph glyph-name="Edotaccent" unicode="&#x116;" horiz-adv-x="651" 
d="M-18 0l11 32l40 4q35 4 49 45l152 452q11 35 16 49.5t5 25.5t-7.5 19.5t-24.5 10.5l-46 3l12 32h441l16 -134h-32l-50 76q-5 8 -11.5 11.5t-17.5 3.5h-181l-84 -253h93q32 0 54 6.5t36 18t23 27.5t16 36h34l-84 -253l-34 -1q1 8 3 26.5t2 33.5q0 32 -18 48.5t-65 16.5
h-75l-62 -188q-12 -35 -16.5 -49t-4.5 -25t8 -20.5t30 -9.5h230q11 0 16.5 3t10.5 10l90 118h31l-45 -175h-561zM423 804q0 23 16 41t43 18q20 0 32.5 -12.5t12.5 -31.5q0 -23 -16.5 -41.5t-42.5 -18.5q-22 0 -33.5 13.5t-11.5 31.5z" />
    <glyph glyph-name="edotaccent" unicode="&#x117;" horiz-adv-x="389" 
d="M329 121q-15 -22 -36 -45t-48 -42t-58.5 -31t-65.5 -12q-17 0 -34 5t-31 16t-22.5 29.5t-8.5 45.5q0 34 10.5 74.5t30 81t46.5 78t60 67t70.5 47t78.5 17.5q45 0 65 -18.5t20 -41.5q0 -38 -21.5 -72t-60 -62.5t-92 -51t-116.5 -37.5q-4 -14 -7.5 -36t-3.5 -48
q0 -24 10.5 -38t30.5 -14q35 0 76.5 28t79.5 80zM128 203q44 13 82.5 33t67 45t45 53t16.5 56q0 17 -9.5 24.5t-25.5 7.5q-21 0 -44 -17.5t-46 -47t-45 -69.5t-41 -85zM309 575q0 23 16 41t43 18q20 0 32.5 -12.5t12.5 -31.5q0 -23 -16.5 -41.5t-42.5 -18.5
q-22 0 -33.5 13.5t-11.5 31.5z" />
    <glyph glyph-name="Eogonek" unicode="&#x118;" horiz-adv-x="651" 
d="M529 -147q-8 -13 -18.5 -25.5t-24 -22.5t-31 -16t-40.5 -6q-38 0 -59 17t-21 52q0 23 9 43.5t23.5 39t34 34.5t40.5 31h-460l11 32l40 4q35 4 49 45l152 452q11 35 16 49.5t5 25.5t-7.5 19.5t-24.5 10.5l-46 3l12 32h441l16 -134h-32l-50 76q-5 8 -11.5 11.5t-17.5 3.5
h-181l-84 -253h93q32 0 54 6.5t36 18t23 27.5t16 36h34l-84 -253l-34 -1q1 8 3 26.5t2 33.5q0 32 -18 48.5t-65 16.5h-75l-62 -188q-12 -35 -16.5 -49t-4.5 -25t8 -20.5t30 -9.5h230q11 0 16.5 3t10.5 10l90 118h31l-45 -175h-59q-14 -12 -28.5 -26.5t-26.5 -31t-20 -35
t-8 -38.5q0 -19 11.5 -28.5t28.5 -9.5q23 0 38 12.5t25 26.5z" />
    <glyph glyph-name="eogonek" unicode="&#x119;" horiz-adv-x="389" 
d="M233 -147q-8 -13 -18.5 -25.5t-24 -22.5t-31 -16t-40.5 -6q-38 0 -59 17t-21 52q0 21 7.5 40.5t20.5 36.5t30.5 33t36.5 30q-3 -1 -6.5 -1h-6.5q-17 0 -34 5t-31 16t-22.5 29.5t-8.5 45.5q0 34 10.5 74.5t30 81t46.5 78t60 67t70.5 47t78.5 17.5q45 0 65 -18.5t20 -41.5
q0 -38 -21.5 -72t-60 -62.5t-92 -51t-116.5 -37.5q-4 -14 -7.5 -36t-3.5 -48q0 -24 10.5 -38t30.5 -14q35 0 76.5 28t79.5 80l27 -20q-21 -32 -55 -64t-77 -50q-15 -12 -31 -27t-29.5 -32.5t-22.5 -37.5t-9 -41q0 -19 11.5 -28.5t28.5 -9.5q23 0 38 12.5t25 26.5zM128 203
q44 13 82.5 33t67 45t45 53t16.5 56q0 17 -9.5 24.5t-25.5 7.5q-21 0 -44 -17.5t-46 -47t-45 -69.5t-41 -85z" />
    <glyph glyph-name="Ecaron" unicode="&#x11a;" horiz-adv-x="651" 
d="M-18 0l11 32l40 4q35 4 49 45l152 452q11 35 16 49.5t5 25.5t-7.5 19.5t-24.5 10.5l-46 3l12 32h441l16 -134h-32l-50 76q-5 8 -11.5 11.5t-17.5 3.5h-181l-84 -253h93q32 0 54 6.5t36 18t23 27.5t16 36h34l-84 -253l-34 -1q1 8 3 26.5t2 33.5q0 32 -18 48.5t-65 16.5
h-75l-62 -188q-12 -35 -16.5 -49t-4.5 -25t8 -20.5t30 -9.5h230q11 0 16.5 3t10.5 10l90 118h31l-45 -175h-561zM355 878l29 17l79 -93l132 95l21 -25l-129 -118q-9 -8 -18 -14.5t-19 -6.5q-12 0 -18 6.5t-11 15.5z" />
    <glyph glyph-name="ecaron" unicode="&#x11b;" horiz-adv-x="389" 
d="M329 121q-15 -22 -36 -45t-48 -42t-58.5 -31t-65.5 -12q-17 0 -34 5t-31 16t-22.5 29.5t-8.5 45.5q0 34 10.5 74.5t30 81t46.5 78t60 67t70.5 47t78.5 17.5q45 0 65 -18.5t20 -41.5q0 -38 -21.5 -72t-60 -62.5t-92 -51t-116.5 -37.5q-4 -14 -7.5 -36t-3.5 -48
q0 -24 10.5 -38t30.5 -14q35 0 76.5 28t79.5 80zM128 203q44 13 82.5 33t67 45t45 53t16.5 56q0 17 -9.5 24.5t-25.5 7.5q-21 0 -44 -17.5t-46 -47t-45 -69.5t-41 -85zM338 508q-10 -13 -19 -18t-19 -5q-12 0 -20.5 6.5t-10.5 22.5l-28 176l33 7l43 -129l136 130l24 -21z
" />
    <glyph glyph-name="Gcircumflex" unicode="&#x11c;" horiz-adv-x="684" 
d="M494 170q6 17 10 31t4 20q0 11 -7.5 19.5t-24.5 10.5l-55 3l12 32h248l-11 -32l-32 -4q-35 -4 -49 -45l-54 -159q-8 -5 -27 -15t-47 -20.5t-64 -18.5t-77 -8q-56 0 -102 15t-78.5 45t-50 75.5t-17.5 106.5q0 111 38.5 197.5t98.5 146t133.5 90t143.5 30.5q42 0 71.5 -7.5
t50 -16.5t33.5 -16.5t21 -7.5t14 9t9 19h29l-53 -231h-34l-2 45q-1 35 -8 66t-22.5 54t-40.5 36.5t-63 13.5q-65 0 -123.5 -36t-102.5 -95.5t-70 -137t-26 -159.5q0 -34 6 -70t23.5 -65.5t49.5 -48.5t83 -19q19 0 40.5 3.5t41.5 15.5t38 34t31 59zM387 721l-21 25l129 118
q9 8 18 14.5t19 6.5q12 0 18 -6.5t11 -15.5l66 -123l-29 -17l-79 93z" />
    <glyph glyph-name="gcircumflex" unicode="&#x11d;" horiz-adv-x="427" 
d="M61 -8q-45 13 -45 48q0 13 9.5 28.5t23 30.5t29.5 28t28 23q-20 14 -31.5 35.5t-11.5 62.5q0 34 15 70.5t42.5 66t65 48.5t82.5 19q29 0 54.5 -9.5t41.5 -31.5q24 17 49.5 29.5t51.5 12.5q17 0 27 -8t10 -22q0 -15 -10 -25t-33 -10q-17 0 -31 5t-26 5q-15 0 -27 -8
q5 -8 6.5 -20t1.5 -20q0 -36 -16 -73.5t-43.5 -68.5t-65.5 -51t-83 -20q-12 0 -21 0.5t-16 1.5q-19 -14 -33.5 -30.5t-14.5 -31.5q0 -9 4.5 -16t17 -13t35 -12t57.5 -14q38 -8 64.5 -17t43 -20t24 -26.5t7.5 -36.5q0 -38 -20.5 -63t-51 -39.5t-67 -20t-68.5 -5.5
q-34 0 -69.5 5t-64 16t-46.5 28.5t-18 41.5q0 19 11.5 35.5t29.5 30t39.5 24t42.5 17.5zM165 165q34 0 62 23t48 56t31 68.5t11 61.5q0 25 -12 39.5t-38 14.5q-21 0 -45.5 -17.5t-45.5 -47t-35 -68.5t-14 -82q0 -21 9 -34.5t29 -13.5zM108 -21q-8 -2 -25 -8t-33.5 -17.5
t-29 -28t-12.5 -37.5q0 -20 12 -31.5t30.5 -18.5t42 -9t46.5 -2q75 0 109.5 20.5t34.5 49.5q0 23 -16 37t-58 23zM162 506l139 169q10 13 19 18t19 5q12 0 20.5 -6.5t10.5 -22.5l28 -176l-33 -7l-43 129l-136 -130z" />
    <glyph glyph-name="Gbreve" unicode="&#x11e;" horiz-adv-x="684" 
d="M494 170q6 17 10 31t4 20q0 11 -7.5 19.5t-24.5 10.5l-55 3l12 32h248l-11 -32l-32 -4q-35 -4 -49 -45l-54 -159q-8 -5 -27 -15t-47 -20.5t-64 -18.5t-77 -8q-56 0 -102 15t-78.5 45t-50 75.5t-17.5 106.5q0 111 38.5 197.5t98.5 146t133.5 90t143.5 30.5q42 0 71.5 -7.5
t50 -16.5t33.5 -16.5t21 -7.5t14 9t9 19h29l-53 -231h-34l-2 45q-1 35 -8 66t-22.5 54t-40.5 36.5t-63 13.5q-65 0 -123.5 -36t-102.5 -95.5t-70 -137t-26 -159.5q0 -34 6 -70t23.5 -65.5t49.5 -48.5t83 -19q19 0 40.5 3.5t41.5 15.5t38 34t31 59zM423 903q-2 -45 17.5 -71
t66.5 -26t82 28.5t55 72.5l32 -10q-26 -77 -74.5 -113t-102.5 -36q-62 0 -93 37t-21 118h38z" />
    <glyph glyph-name="gbreve" unicode="&#x11f;" horiz-adv-x="427" 
d="M61 -8q-45 13 -45 48q0 13 9.5 28.5t23 30.5t29.5 28t28 23q-20 14 -31.5 35.5t-11.5 62.5q0 34 15 70.5t42.5 66t65 48.5t82.5 19q29 0 54.5 -9.5t41.5 -31.5q24 17 49.5 29.5t51.5 12.5q17 0 27 -8t10 -22q0 -15 -10 -25t-33 -10q-17 0 -31 5t-26 5q-15 0 -27 -8
q5 -8 6.5 -20t1.5 -20q0 -36 -16 -73.5t-43.5 -68.5t-65.5 -51t-83 -20q-12 0 -21 0.5t-16 1.5q-19 -14 -33.5 -30.5t-14.5 -31.5q0 -9 4.5 -16t17 -13t35 -12t57.5 -14q38 -8 64.5 -17t43 -20t24 -26.5t7.5 -36.5q0 -38 -20.5 -63t-51 -39.5t-67 -20t-68.5 -5.5
q-34 0 -69.5 5t-64 16t-46.5 28.5t-18 41.5q0 19 11.5 35.5t29.5 30t39.5 24t42.5 17.5zM165 165q34 0 62 23t48 56t31 68.5t11 61.5q0 25 -12 39.5t-38 14.5q-21 0 -45.5 -17.5t-45.5 -47t-35 -68.5t-14 -82q0 -21 9 -34.5t29 -13.5zM108 -21q-8 -2 -25 -8t-33.5 -17.5
t-29 -28t-12.5 -37.5q0 -20 12 -31.5t30.5 -18.5t42 -9t46.5 -2q75 0 109.5 20.5t34.5 49.5q0 23 -16 37t-58 23zM214 682q-2 -45 17.5 -71t66.5 -26t82 28.5t55 72.5l32 -10q-26 -77 -74.5 -113t-102.5 -36q-62 0 -93 37t-21 118h38z" />
    <glyph glyph-name="Gdotaccent" unicode="&#x120;" horiz-adv-x="684" 
d="M494 170q6 17 10 31t4 20q0 11 -7.5 19.5t-24.5 10.5l-55 3l12 32h248l-11 -32l-32 -4q-35 -4 -49 -45l-54 -159q-8 -5 -27 -15t-47 -20.5t-64 -18.5t-77 -8q-56 0 -102 15t-78.5 45t-50 75.5t-17.5 106.5q0 111 38.5 197.5t98.5 146t133.5 90t143.5 30.5q42 0 71.5 -7.5
t50 -16.5t33.5 -16.5t21 -7.5t14 9t9 19h29l-53 -231h-34l-2 45q-1 35 -8 66t-22.5 54t-40.5 36.5t-63 13.5q-65 0 -123.5 -36t-102.5 -95.5t-70 -137t-26 -159.5q0 -34 6 -70t23.5 -65.5t49.5 -48.5t83 -19q19 0 40.5 3.5t41.5 15.5t38 34t31 59zM444 804q0 23 16 41t43 18
q20 0 32.5 -12.5t12.5 -31.5q0 -23 -16.5 -41.5t-42.5 -18.5q-22 0 -33.5 13.5t-11.5 31.5z" />
    <glyph glyph-name="gdotaccent" unicode="&#x121;" horiz-adv-x="427" 
d="M61 -8q-45 13 -45 48q0 13 9.5 28.5t23 30.5t29.5 28t28 23q-20 14 -31.5 35.5t-11.5 62.5q0 34 15 70.5t42.5 66t65 48.5t82.5 19q29 0 54.5 -9.5t41.5 -31.5q24 17 49.5 29.5t51.5 12.5q17 0 27 -8t10 -22q0 -15 -10 -25t-33 -10q-17 0 -31 5t-26 5q-15 0 -27 -8
q5 -8 6.5 -20t1.5 -20q0 -36 -16 -73.5t-43.5 -68.5t-65.5 -51t-83 -20q-12 0 -21 0.5t-16 1.5q-19 -14 -33.5 -30.5t-14.5 -31.5q0 -9 4.5 -16t17 -13t35 -12t57.5 -14q38 -8 64.5 -17t43 -20t24 -26.5t7.5 -36.5q0 -38 -20.5 -63t-51 -39.5t-67 -20t-68.5 -5.5
q-34 0 -69.5 5t-64 16t-46.5 28.5t-18 41.5q0 19 11.5 35.5t29.5 30t39.5 24t42.5 17.5zM165 165q34 0 62 23t48 56t31 68.5t11 61.5q0 25 -12 39.5t-38 14.5q-21 0 -45.5 -17.5t-45.5 -47t-35 -68.5t-14 -82q0 -21 9 -34.5t29 -13.5zM108 -21q-8 -2 -25 -8t-33.5 -17.5
t-29 -28t-12.5 -37.5q0 -20 12 -31.5t30.5 -18.5t42 -9t46.5 -2q75 0 109.5 20.5t34.5 49.5q0 23 -16 37t-58 23zM267 575q0 23 16 41t43 18q20 0 32.5 -12.5t12.5 -31.5q0 -23 -16.5 -41.5t-42.5 -18.5q-22 0 -33.5 13.5t-11.5 31.5z" />
    <glyph glyph-name="Gcommaaccent" unicode="&#x122;" horiz-adv-x="684" 
d="M494 170q6 17 10 31t4 20q0 11 -7.5 19.5t-24.5 10.5l-55 3l12 32h248l-11 -32l-32 -4q-35 -4 -49 -45l-54 -159q-8 -5 -27 -15t-47 -20.5t-64 -18.5t-77 -8q-56 0 -102 15t-78.5 45t-50 75.5t-17.5 106.5q0 111 38.5 197.5t98.5 146t133.5 90t143.5 30.5q42 0 71.5 -7.5
t50 -16.5t33.5 -16.5t21 -7.5t14 9t9 19h29l-53 -231h-34l-2 45q-1 35 -8 66t-22.5 54t-40.5 36.5t-63 13.5q-65 0 -123.5 -36t-102.5 -95.5t-70 -137t-26 -159.5q0 -34 6 -70t23.5 -65.5t49.5 -48.5t83 -19q19 0 40.5 3.5t41.5 15.5t38 34t31 59zM218 -217q38 23 52.5 38
t14.5 29q0 12 -15 15q-9 2 -21 12t-12 31q0 22 14 35t34 13q26 0 41 -19.5t15 -43.5q0 -45 -29.5 -78.5t-76.5 -58.5z" />
    <glyph glyph-name="gcommaaccent" unicode="&#x123;" horiz-adv-x="427" 
d="M61 -8q-45 13 -45 48q0 13 9.5 28.5t23 30.5t29.5 28t28 23q-20 14 -31.5 35.5t-11.5 62.5q0 34 15 70.5t42.5 66t65 48.5t82.5 19q29 0 54.5 -9.5t41.5 -31.5q24 17 49.5 29.5t51.5 12.5q17 0 27 -8t10 -22q0 -15 -10 -25t-33 -10q-17 0 -31 5t-26 5q-15 0 -27 -8
q5 -8 6.5 -20t1.5 -20q0 -36 -16 -73.5t-43.5 -68.5t-65.5 -51t-83 -20q-12 0 -21 0.5t-16 1.5q-19 -14 -33.5 -30.5t-14.5 -31.5q0 -9 4.5 -16t17 -13t35 -12t57.5 -14q38 -8 64.5 -17t43 -20t24 -26.5t7.5 -36.5q0 -38 -20.5 -63t-51 -39.5t-67 -20t-68.5 -5.5
q-34 0 -69.5 5t-64 16t-46.5 28.5t-18 41.5q0 19 11.5 35.5t29.5 30t39.5 24t42.5 17.5zM165 165q34 0 62 23t48 56t31 68.5t11 61.5q0 25 -12 39.5t-38 14.5q-21 0 -45.5 -17.5t-45.5 -47t-35 -68.5t-14 -82q0 -21 9 -34.5t29 -13.5zM108 -21q-8 -2 -25 -8t-33.5 -17.5
t-29 -28t-12.5 -37.5q0 -20 12 -31.5t30.5 -18.5t42 -9t46.5 -2q75 0 109.5 20.5t34.5 49.5q0 23 -16 37t-58 23zM372 657q-38 -23 -52.5 -36.5t-14.5 -27.5q0 -10 17 -15q11 -3 21.5 -13t10.5 -31q0 -22 -14 -35t-34 -13q-26 0 -41 19t-15 43q0 45 29.5 77t76.5 57z" />
    <glyph glyph-name="Hcircumflex" unicode="&#x124;" horiz-adv-x="735" 
d="M-7 32l40 4q35 4 49 45l152 452q11 35 16 49.5t5 25.5t-7.5 19.5t-24.5 10.5l-46 3l12 32h257l-11 -32l-42 -4q-35 -4 -49 -45l-76 -225h291l56 166q12 35 17 49.5t5 25.5t-7.5 19.5t-24.5 10.5l-47 3l12 32h255l-11 -32l-40 -4q-35 -4 -49 -45l-152 -452
q-11 -35 -16 -49.5t-5 -25.5t7.5 -19.5t24.5 -10.5l46 -3l-12 -32h-258l11 32l43 4q35 4 49 45l81 241h-291l-61 -182q-12 -35 -17 -49.5t-5 -25.5t7.5 -19.5t24.5 -10.5l47 -3l-12 -32h-255zM413 721l-21 25l129 118q9 8 18 14.5t19 6.5q12 0 18 -6.5t11 -15.5l66 -123
l-29 -17l-79 93z" />
    <glyph glyph-name="hcircumflex" unicode="&#x125;" horiz-adv-x="511" 
d="M265 625q11 26 -13 30l-38 6l10 28h132l5 -12l-142 -333q-8 -20 -17 -37t-18 -35l5 -4q15 20 32 41t34.5 40t34 35.5t31.5 28.5q28 22 52.5 30.5t45.5 8.5q22 0 36.5 -12t14.5 -34q0 -34 -25 -90l-103 -229q-5 -10 -6.5 -18.5t7.5 -8.5q7 0 21.5 8.5t30 20.5t29 24.5
t19.5 20.5l23 -17q-11 -15 -31 -35.5t-45 -39.5t-52.5 -32t-52.5 -13q-16 0 -25.5 8.5t-9.5 22.5q0 6 2 15t7 21l116 265q5 11 8 22t3 20q0 18 -16 18q-22 0 -49 -24q-9 -8 -31 -29.5t-49.5 -53t-55.5 -69.5t-47 -77l-67 -136h-66zM200 721l-21 25l129 118q9 8 18 14.5
t19 6.5q12 0 18 -6.5t11 -15.5l66 -123l-29 -17l-79 93z" />
    <glyph glyph-name="Hbar" unicode="&#x126;" horiz-adv-x="735" 
d="M-7 32l40 4q35 4 49 45l132 392h-92l15 45h92l5 15q11 35 16 49.5t5 25.5t-7.5 19.5t-24.5 10.5l-46 3l12 32h257l-11 -32l-42 -4q-35 -4 -49 -45l-25 -74h291l5 15q12 35 17 49.5t5 25.5t-7.5 19.5t-24.5 10.5l-47 3l12 32h255l-11 -32l-40 -4q-35 -4 -49 -45l-25 -74
h92l-15 -45h-92l-112 -333q-11 -35 -16 -49.5t-5 -25.5t7.5 -19.5t24.5 -10.5l46 -3l-12 -32h-258l11 32l43 4q35 4 49 45l81 241h-291l-61 -182q-12 -35 -17 -49.5t-5 -25.5t7.5 -19.5t24.5 -10.5l47 -3l-12 -32h-255zM559 367l36 106h-291l-36 -106h291z" />
    <glyph glyph-name="hbar" unicode="&#x127;" horiz-adv-x="511" 
d="M224 528h-78l13 40h82l24 57q11 26 -13 30l-38 6l10 28h132l5 -12l-47 -109h170l-13 -40h-174l-78 -184q-8 -20 -17 -37t-18 -35l5 -4q15 20 32 41t34.5 40t34 35.5t31.5 28.5q28 22 52.5 30.5t45.5 8.5q22 0 36.5 -12t14.5 -34q0 -34 -25 -90l-103 -229
q-5 -10 -6.5 -18.5t7.5 -8.5q7 0 21.5 8.5t30 20.5t29 24.5t19.5 20.5l23 -17q-11 -15 -31 -35.5t-45 -39.5t-52.5 -32t-52.5 -13q-16 0 -25.5 8.5t-9.5 22.5q0 6 2 15t7 21l116 265q5 11 8 22t3 20q0 18 -16 18q-22 0 -49 -24q-9 -8 -31 -29.5t-49.5 -53t-55.5 -69.5
t-47 -77l-67 -136h-66z" />
    <glyph glyph-name="Itilde" unicode="&#x128;" horiz-adv-x="356" 
d="M-7 32l40 4q35 4 49 45l152 452q11 35 16 49.5t5 25.5t-7.5 19.5t-24.5 10.5l-46 3l12 32h257l-11 -32l-42 -4q-35 -4 -49 -45l-152 -452q-12 -35 -17 -49.5t-5 -25.5t7.5 -19.5t24.5 -10.5l47 -3l-12 -32h-255zM158 758q21 51 46.5 75t60.5 24q22 0 43.5 -8t41.5 -18
t38.5 -18t33.5 -8q13 0 21.5 5.5t14.5 13.5t10 17t7 17l32 -12q-17 -48 -40 -71.5t-62 -23.5q-23 0 -44 8t-41 17.5t-38 17.5t-35 8q-12 0 -21 -6t-16 -15t-12 -19t-8 -17z" />
    <glyph glyph-name="itilde" unicode="&#x129;" horiz-adv-x="304" 
d="M167 318q12 26 16.5 41t4.5 21q0 13 -10 13q-5 0 -16.5 -9t-25.5 -23t-29 -32t-28 -37l-23 15q17 26 43 57t50 52q23 20 43 28t35 8q17 0 29.5 -12t12.5 -35q0 -15 -9 -40t-18 -44l-107 -228q-5 -10 -8 -21.5t6 -11.5q8 0 21 7.5t27 19t27.5 25t22.5 24.5l23 -17
q-11 -15 -30.5 -36t-44 -40t-52 -32.5t-52.5 -13.5q-16 0 -25.5 8.5t-9.5 22.5q0 6 2.5 16.5t7.5 21.5zM55 551q21 51 46.5 75t60.5 24q22 0 43.5 -8t41.5 -18t38.5 -18t33.5 -8q13 0 21.5 5.5t14.5 13.5t10 17t7 17l32 -12q-17 -48 -40 -71.5t-62 -23.5q-23 0 -44 8
t-41 17.5t-38 17.5t-35 8q-12 0 -21 -6t-16 -15t-12 -19t-8 -17z" />
    <glyph glyph-name="Imacron" unicode="&#x12a;" horiz-adv-x="356" 
d="M-7 32l40 4q35 4 49 45l152 452q11 35 16 49.5t5 25.5t-7.5 19.5t-24.5 10.5l-46 3l12 32h257l-11 -32l-42 -4q-35 -4 -49 -45l-152 -452q-12 -35 -17 -49.5t-5 -25.5t7.5 -19.5t24.5 -10.5l47 -3l-12 -32h-255zM231 829h244l-18 -56h-245z" />
    <glyph glyph-name="imacron" unicode="&#x12b;" horiz-adv-x="304" 
d="M167 318q12 26 16.5 41t4.5 21q0 13 -10 13q-5 0 -16.5 -9t-25.5 -23t-29 -32t-28 -37l-23 15q17 26 43 57t50 52q23 20 43 28t35 8q17 0 29.5 -12t12.5 -35q0 -15 -9 -40t-18 -44l-107 -228q-5 -10 -8 -21.5t6 -11.5q8 0 21 7.5t27 19t27.5 25t22.5 24.5l23 -17
q-11 -15 -30.5 -36t-44 -40t-52 -32.5t-52.5 -13.5q-16 0 -25.5 8.5t-9.5 22.5q0 6 2.5 16.5t7.5 21.5zM118 620h247l-19 -56h-247z" />
    <glyph glyph-name="Ibreve" unicode="&#x12c;" horiz-adv-x="356" 
d="M-7 32l40 4q35 4 49 45l152 452q11 35 16 49.5t5 25.5t-7.5 19.5t-24.5 10.5l-46 3l12 32h257l-11 -32l-42 -4q-35 -4 -49 -45l-152 -452q-12 -35 -17 -49.5t-5 -25.5t7.5 -19.5t24.5 -10.5l47 -3l-12 -32h-255zM256 903q-2 -45 17.5 -71t66.5 -26t82 28.5t55 72.5
l32 -10q-26 -77 -74.5 -113t-102.5 -36q-62 0 -93 37t-21 118h38z" />
    <glyph glyph-name="ibreve" unicode="&#x12d;" horiz-adv-x="304" 
d="M167 318q12 26 16.5 41t4.5 21q0 13 -10 13q-5 0 -16.5 -9t-25.5 -23t-29 -32t-28 -37l-23 15q17 26 43 57t50 52q23 20 43 28t35 8q17 0 29.5 -12t12.5 -35q0 -15 -9 -40t-18 -44l-107 -228q-5 -10 -8 -21.5t6 -11.5q8 0 21 7.5t27 19t27.5 25t22.5 24.5l23 -17
q-11 -15 -30.5 -36t-44 -40t-52 -32.5t-52.5 -13.5q-16 0 -25.5 8.5t-9.5 22.5q0 6 2.5 16.5t7.5 21.5zM149 682q-2 -45 17.5 -71t66.5 -26t82 28.5t55 72.5l32 -10q-26 -77 -74.5 -113t-102.5 -36q-62 0 -93 37t-21 118h38z" />
    <glyph glyph-name="Iogonek" unicode="&#x12e;" horiz-adv-x="356" 
d="M-7 32l40 4q35 4 49 45l152 452q11 35 16 49.5t5 25.5t-7.5 19.5t-24.5 10.5l-46 3l12 32h257l-11 -32l-42 -4q-35 -4 -49 -45l-152 -452q-12 -35 -17 -49.5t-5 -25.5t7.5 -19.5t24.5 -10.5l47 -3l-12 -32h-106q-14 -12 -28.5 -26.5t-26.5 -31t-20 -35t-8 -38.5
q0 -19 11.5 -28.5t28.5 -9.5q23 0 38 12.5t25 26.5l25 -17q-8 -13 -18.5 -25.5t-24 -22.5t-31 -16t-40.5 -6q-38 0 -59 17t-21 52q0 23 9 43.5t23.5 39t34 34.5t40.5 31h-107z" />
    <glyph glyph-name="iogonek" unicode="&#x12f;" horiz-adv-x="304" 
d="M154 -147q-8 -13 -18.5 -25.5t-24 -22.5t-31 -16t-40.5 -6q-38 0 -59 17t-21 52q0 22 8.5 42.5t23 38.5t33.5 34t39 31q-24 5 -24 30q0 6 2.5 16.5t7.5 21.5l117 252q12 26 16.5 41t4.5 21q0 13 -10 13q-5 0 -16.5 -9t-25.5 -23t-29 -32t-28 -37l-23 15q17 26 43 57
t50 52q23 20 43 28t35 8q17 0 29.5 -12t12.5 -35q0 -15 -9 -40t-18 -44l-107 -228q-5 -10 -8 -21.5t6 -11.5q8 0 21 7.5t27 19t27.5 25t22.5 24.5l23 -17q-9 -12 -23.5 -28.5t-33 -32.5t-39.5 -30.5t-42 -22.5q-15 -12 -30.5 -27t-29 -32t-22 -36.5t-8.5 -40.5
q0 -19 11.5 -28.5t28.5 -9.5q23 0 38 12.5t25 26.5zM229 657q0 20 14 34.5t34 14.5t34.5 -14.5t14.5 -34.5t-14.5 -34t-34.5 -14t-34 14t-14 34z" />
    <glyph glyph-name="Idotaccent" unicode="&#x130;" horiz-adv-x="356" 
d="M-7 32l40 4q35 4 49 45l152 452q11 35 16 49.5t5 25.5t-7.5 19.5t-24.5 10.5l-46 3l12 32h257l-11 -32l-42 -4q-35 -4 -49 -45l-152 -452q-12 -35 -17 -49.5t-5 -25.5t7.5 -19.5t24.5 -10.5l47 -3l-12 -32h-255zM300 804q0 23 16 41t43 18q20 0 32.5 -12.5t12.5 -31.5
q0 -23 -16.5 -41.5t-42.5 -18.5q-22 0 -33.5 13.5t-11.5 31.5z" />
    <glyph glyph-name="dotlessi" unicode="&#x131;" horiz-adv-x="304" 
d="M167 318q12 26 16.5 41t4.5 21q0 13 -10 13q-5 0 -16.5 -9t-25.5 -23t-29 -32t-28 -37l-23 15q17 26 43 57t50 52q23 20 43 28t35 8q17 0 29.5 -12t12.5 -35q0 -15 -9 -40t-18 -44l-107 -228q-5 -10 -8 -21.5t6 -11.5q8 0 21 7.5t27 19t27.5 25t22.5 24.5l23 -17
q-11 -15 -30.5 -36t-44 -40t-52 -32.5t-52.5 -13.5q-16 0 -25.5 8.5t-9.5 22.5q0 6 2.5 16.5t7.5 21.5z" />
    <glyph glyph-name="IJ" unicode="&#x132;" horiz-adv-x="759" 
d="M-7 32l40 4q35 4 49 45l152 452q11 35 16 49.5t5 25.5t-7.5 19.5t-24.5 10.5l-46 3l12 32h257l-11 -32l-42 -4q-35 -4 -49 -45l-152 -452q-12 -35 -17 -49.5t-5 -25.5t7.5 -19.5t24.5 -10.5l47 -3l-12 -32h-255zM648 533q11 35 16 49.5t5 25.5t-7.5 19.5t-24.5 10.5
l-46 3l12 32h256l-11 -32l-42 -4q-35 -4 -49 -45l-145 -433q-12 -36 -27 -68t-36.5 -56t-51.5 -38t-73 -14q-61 0 -91.5 27t-30.5 63q0 29 16 48.5t45 19.5q21 0 35 -10.5t14 -33.5q0 -16 -6 -24t-13.5 -13.5t-13.5 -9.5t-6 -11q0 -12 12.5 -17t30.5 -5q37 0 55.5 22.5
t32.5 64.5z" />
    <glyph glyph-name="ij" unicode="&#x133;" horiz-adv-x="540" 
d="M229 657q0 20 14 34.5t34 14.5t34.5 -14.5t14.5 -34.5t-14.5 -34t-34.5 -14t-34 14t-14 34zM167 318q12 26 16.5 41t4.5 21q0 13 -10 13q-5 0 -16.5 -9t-25.5 -23t-29 -32t-28 -37l-23 15q17 26 43 57t50 52q23 20 43 28t35 8q17 0 29.5 -12t12.5 -35q0 -15 -9 -40
t-18 -44l-107 -228q-5 -10 -8 -21.5t6 -11.5q8 0 21 7.5t27 19t27.5 25t22.5 24.5l23 -17q-11 -15 -30.5 -36t-44 -40t-52 -32.5t-52.5 -13.5q-16 0 -25.5 8.5t-9.5 22.5q0 6 2.5 16.5t7.5 21.5zM446 334q6 15 9.5 28t3.5 19q0 13 -10 13q-6 0 -17.5 -9t-25 -23t-28 -32
t-27.5 -37l-23 15q17 26 43 57t50 52q26 23 45 29t31 6q17 0 30 -11.5t13 -34.5q0 -15 -8.5 -40t-16.5 -44l-142 -340q-41 -96 -92 -137.5t-99 -41.5q-37 0 -57 13.5t-20 39.5q0 23 13 35t30 12t28 -7.5t11 -26.5q0 -10 0.5 -19.5t14.5 -9.5q13 0 25 9.5t23 25t21 35.5
t19 42zM501 657q0 20 14 34.5t34 14.5t34.5 -14.5t14.5 -34.5t-14.5 -34t-34.5 -14t-34 14t-14 34z" />
    <glyph glyph-name="Jcircumflex" unicode="&#x134;" horiz-adv-x="433" 
d="M322 533q11 35 16 49.5t5 25.5t-7.5 19.5t-24.5 10.5l-46 3l12 32h256l-11 -32l-42 -4q-35 -4 -49 -45l-145 -433q-12 -36 -27 -68t-36.5 -56t-51.5 -38t-73 -14q-61 0 -91.5 27t-30.5 63q0 29 16 48.5t45 19.5q21 0 35 -10.5t14 -33.5q0 -16 -6 -24t-13.5 -13.5
t-13.5 -9.5t-6 -11q0 -12 12.5 -17t30.5 -5q37 0 55.5 22.5t32.5 64.5zM306 721l-21 25l129 118q9 8 18 14.5t19 6.5q12 0 18 -6.5t11 -15.5l66 -123l-29 -17l-79 93z" />
    <glyph glyph-name="jcircumflex" unicode="&#x135;" horiz-adv-x="257" 
d="M163 334q6 15 9.5 28t3.5 19q0 13 -10 13q-6 0 -17.5 -9t-25 -23t-28 -32t-27.5 -37l-23 15q17 26 43 57t50 52q26 23 45 29t31 6q17 0 30 -11.5t13 -34.5q0 -15 -8.5 -40t-16.5 -44l-142 -340q-41 -96 -92 -137.5t-99 -41.5q-37 0 -57 13.5t-20 39.5q0 23 13 35t30 12
t28 -7.5t11 -26.5q0 -10 0.5 -19.5t14.5 -9.5q13 0 25 9.5t23 25t21 35.5t19 42zM86 506l139 169q10 13 19 18t19 5q12 0 20.5 -6.5t10.5 -22.5l28 -176l-33 -7l-43 129l-136 -130z" />
    <glyph glyph-name="Kcommaaccent" unicode="&#x136;" horiz-adv-x="681" 
d="M-7 32l40 4q35 4 49 45l152 452q11 35 16 49.5t5 25.5t-7.5 19.5t-24.5 10.5l-46 3l12 32h247l-11 -32l-32 -4q-35 -4 -49 -45l-81 -240l238 209q26 23 35 34.5t9 21.5q0 18 -14.5 21t-37.5 3l11 32h217l-11 -32q-22 -1 -38 -5.5t-33 -15t-39.5 -29.5t-57.5 -50
l-168 -148l135 -297q17 -30 41.5 -47t70.5 -17l-11 -32h-269l11 32l30 2q26 2 32.5 18t-10.5 46l-99 234l-69 -61l-44 -131q-12 -35 -17 -49.5t-5 -25.5t7.5 -19.5t24.5 -10.5l44 -3l-12 -32h-252zM208 -217q38 23 52.5 38t14.5 29q0 12 -15 15q-9 2 -21 12t-12 31
q0 22 14 35t34 13q26 0 41 -19.5t15 -43.5q0 -45 -29.5 -78.5t-76.5 -58.5z" />
    <glyph glyph-name="kcommaaccent" unicode="&#x137;" horiz-adv-x="484" 
d="M179 238q35 3 76 13t76.5 26.5t59.5 38t24 48.5q0 14 -9.5 24.5t-29.5 10.5q-26 0 -56.5 -16t-50.5 -35q-23 -22 -47.5 -50.5t-42.5 -59.5zM265 624q11 27 -13 31l-38 6l10 28h132l5 -12l-141 -325l5 -3q11 13 30 31t44 34t55.5 27t64.5 11q26 0 48 -14t22 -44
q0 -36 -23 -70t-71 -59q-15 -8 -35 -15.5t-41.5 -14t-42.5 -11.5t-37 -8l41 -116q9 -26 18 -33t20 -7q12 0 25 8t26 19t24 23t18 20l23 -17q-16 -20 -34 -40t-38 -37t-42.5 -27.5t-47.5 -10.5q-19 0 -30.5 11t-20.5 37l-56 160l-90 -206h-70zM80 -217q38 23 52.5 38t14.5 29
q0 12 -15 15q-9 2 -21 12t-12 31q0 22 14 35t34 13q26 0 41 -19.5t15 -43.5q0 -45 -29.5 -78.5t-76.5 -58.5z" />
    <glyph glyph-name="kgreenlandic" unicode="&#x138;" horiz-adv-x="492" 
d="M175 228q35 3 77 15t78 30t60.5 41.5t24.5 50.5q0 14 -8 24.5t-31 10.5q-15 0 -30 -6t-30 -15.5t-28 -20.5t-23 -20q-23 -22 -47.5 -50.5t-42.5 -59.5zM163 378q11 27 -13 31l-38 6l10 28h127l5 -12l-38 -89l5 -3q11 13 30.5 32.5t45.5 37.5t57 31t65 13q29 0 49.5 -14.5
t20.5 -46.5q0 -34 -21.5 -66.5t-68.5 -60.5q-15 -9 -36 -18t-44.5 -17t-45.5 -14.5t-38 -9.5l42 -106q11 -26 20.5 -33t20.5 -7q12 0 25 8t26 19t24 23t18 20l23 -17q-16 -20 -34 -40t-38 -37t-42.5 -27.5t-47.5 -10.5q-19 0 -31.5 11t-22.5 37l-57 150l-86 -196h-70z" />
    <glyph glyph-name="Lacute" unicode="&#x139;" horiz-adv-x="615" 
d="M-7 32l40 4q35 4 49 45l152 452q11 35 16 49.5t5 25.5t-7.5 19.5t-24.5 10.5l-46 3l12 32h262l-11 -32l-47 -4q-35 -4 -49 -45l-149 -444q-11 -35 -16 -49t-5 -25t8 -20.5t30 -9.5h211q11 0 16.5 3t10.5 10l91 118h31l-50 -175h-540zM317 722l-21 25l134 130q11 11 18 14
t15 3q14 0 23 -10.5t9 -21.5q0 -9 -4.5 -17t-16.5 -16z" />
    <glyph glyph-name="lacute" unicode="&#x13a;" horiz-adv-x="271" 
d="M265 625q11 26 -13 30l-38 6l10 28h132l5 -12l-251 -584q-5 -10 -8.5 -21.5t5.5 -11.5q8 0 21.5 8t29.5 21.5t33.5 31.5t34.5 38l23 -17q-15 -22 -38.5 -47.5t-50.5 -47t-56 -36t-54 -14.5q-16 0 -25.5 8.5t-9.5 22.5q0 6 2.5 16.5t7.5 21.5zM296 722l-21 25l134 130
q11 11 18 14t15 3q14 0 23 -10.5t9 -21.5q0 -9 -4.5 -17t-16.5 -16z" />
    <glyph glyph-name="Lcommaaccent" unicode="&#x13b;" horiz-adv-x="615" 
d="M-7 32l40 4q35 4 49 45l152 452q11 35 16 49.5t5 25.5t-7.5 19.5t-24.5 10.5l-46 3l12 32h262l-11 -32l-47 -4q-35 -4 -49 -45l-149 -444q-11 -35 -16 -49t-5 -25t8 -20.5t30 -9.5h211q11 0 16.5 3t10.5 10l91 118h31l-50 -175h-540zM175 -217q38 23 52.5 38t14.5 29
q0 12 -15 15q-9 2 -21 12t-12 31q0 22 14 35t34 13q26 0 41 -19.5t15 -43.5q0 -45 -29.5 -78.5t-76.5 -58.5z" />
    <glyph glyph-name="lcommaaccent" unicode="&#x13c;" horiz-adv-x="271" 
d="M265 625q11 26 -13 30l-38 6l10 28h132l5 -12l-251 -584q-5 -10 -8.5 -21.5t5.5 -11.5q8 0 21.5 8t29.5 21.5t33.5 31.5t34.5 38l23 -17q-15 -22 -38.5 -47.5t-50.5 -47t-56 -36t-54 -14.5q-16 0 -25.5 8.5t-9.5 22.5q0 6 2.5 16.5t7.5 21.5zM-38 -217q38 23 52.5 38
t14.5 29q0 12 -15 15q-9 2 -21 12t-12 31q0 22 14 35t34 13q26 0 41 -19.5t15 -43.5q0 -45 -29.5 -78.5t-76.5 -58.5z" />
    <glyph glyph-name="Lcaron" unicode="&#x13d;" horiz-adv-x="615" 
d="M-7 32l40 4q35 4 49 45l152 452q11 35 16 49.5t5 25.5t-7.5 19.5t-24.5 10.5l-46 3l12 32h262l-11 -32l-47 -4q-35 -4 -49 -45l-149 -444q-11 -35 -16 -49t-5 -25t8 -20.5t30 -9.5h211q11 0 16.5 3t10.5 10l91 118h31l-50 -175h-540zM465 489l72 167q8 19 18.5 26t22.5 7
q14 0 23.5 -7.5t9.5 -20.5t-12 -31l-104 -154z" />
    <glyph glyph-name="lcaron" unicode="&#x13e;" horiz-adv-x="271" 
d="M265 625q11 26 -13 30l-38 6l10 28h132l5 -12l-251 -584q-5 -10 -8.5 -21.5t5.5 -11.5q8 0 21.5 8t29.5 21.5t33.5 31.5t34.5 38l23 -17q-15 -22 -38.5 -47.5t-50.5 -47t-56 -36t-54 -14.5q-16 0 -25.5 8.5t-9.5 22.5q0 6 2.5 16.5t7.5 21.5zM352 489l72 167
q8 19 18.5 26t22.5 7q14 0 23.5 -7.5t9.5 -20.5t-12 -31l-104 -154z" />
    <glyph glyph-name="Ldot" unicode="&#x13f;" horiz-adv-x="615" 
d="M-7 32l40 4q35 4 49 45l152 452q11 35 16 49.5t5 25.5t-7.5 19.5t-24.5 10.5l-46 3l12 32h262l-11 -32l-47 -4q-35 -4 -49 -45l-149 -444q-11 -35 -16 -49t-5 -25t8 -20.5t30 -9.5h211q11 0 16.5 3t10.5 10l91 118h31l-50 -175h-540zM409 346q0 23 16 41t43 18
q20 0 32.5 -12.5t12.5 -31.5q0 -23 -16.5 -41.5t-42.5 -18.5q-22 0 -33.5 13.5t-11.5 31.5z" />
    <glyph glyph-name="ldot" unicode="&#x140;" horiz-adv-x="304" 
d="M265 625q11 26 -13 30l-38 6l10 28h132l5 -12l-251 -584q-5 -10 -8.5 -21.5t5.5 -11.5q8 0 21.5 8t29.5 21.5t33.5 31.5t34.5 38l23 -17q-15 -22 -38.5 -47.5t-50.5 -47t-56 -36t-54 -14.5q-16 0 -25.5 8.5t-9.5 22.5q0 6 2.5 16.5t7.5 21.5zM288 353q0 23 16 41t43 18
q20 0 32.5 -12.5t12.5 -31.5q0 -23 -16.5 -41.5t-42.5 -18.5q-22 0 -33.5 13.5t-11.5 31.5z" />
    <glyph glyph-name="Lslash" unicode="&#x141;" horiz-adv-x="615" 
d="M-7 32l40 4q35 4 49 45l80 238l-127 -40l-12 42l156 49l55 163q11 35 16 49.5t5 25.5t-7.5 19.5t-24.5 10.5l-46 3l12 32h262l-11 -32l-47 -4q-35 -4 -49 -45l-64 -190l168 53l12 -42l-197 -62l-68 -203q-11 -35 -16 -49t-5 -25t8 -20.5t30 -9.5h211q11 0 16.5 3t10.5 10
l91 118h31l-50 -175h-540z" />
    <glyph glyph-name="lslash" unicode="&#x142;" horiz-adv-x="271" 
d="M133 318l-75 -31l-15 35l111 46l111 257q11 26 -13 30l-38 6l10 28h132l5 -12l-117 -273l81 34l15 -35l-118 -48l-112 -262q-5 -10 -8.5 -21.5t5.5 -11.5q8 0 21.5 8t29.5 21.5t33.5 31.5t34.5 38l23 -17q-15 -22 -38.5 -47.5t-50.5 -47t-56 -36t-54 -14.5
q-16 0 -25.5 8.5t-9.5 22.5q0 6 2.5 16.5t7.5 21.5z" />
    <glyph glyph-name="Nacute" unicode="&#x143;" horiz-adv-x="709" 
d="M-58 0l11 32q26 1 48 6t41.5 17.5t35.5 36.5t30 65l156 464q-12 13 -37.5 16t-48.5 4l10 32h164l147 -536l131 395q5 17 10 35t5 27q0 26 -17 36.5t-62 10.5l11 32h243l-11 -32q-26 -2 -45 -6.5t-34.5 -17t-28.5 -37t-27 -64.5l-177 -524h-46l-157 580l-143 -431
q-5 -17 -9.5 -35t-4.5 -27q0 -26 22 -36.5t67 -10.5l-11 -32h-273zM498 722l-21 25l134 130q11 11 18 14t15 3q14 0 23 -10.5t9 -21.5q0 -9 -4.5 -17t-16.5 -16z" />
    <glyph glyph-name="nacute" unicode="&#x144;" horiz-adv-x="534" 
d="M167 328q7 15 10 28t3 19q0 13 -10 13q-5 0 -15.5 -8t-23.5 -21.5t-27.5 -31t-27.5 -36.5l-23 15q8 13 19.5 28.5t24 30.5t26 28.5t25.5 24.5q23 20 42 27t33 7q11 0 21 -8t10 -24q0 -17 -4.5 -36.5t-11.5 -39t-15 -38.5t-15 -35l4 -3q15 19 32 40t34.5 40.5t34 36
t29.5 27.5q29 23 54 31.5t46 8.5q22 0 37 -12t15 -34q0 -15 -4.5 -33.5t-12.5 -36.5l-106 -238q-10 -22 -10 -31q0 -7 6 -7q9 0 23 8.5t28.5 20.5t27 24.5l20.5 20.5l23 -17q-16 -20 -37 -41t-44.5 -38.5t-49 -29t-50.5 -11.5q-16 0 -25.5 8.5t-9.5 22.5q0 13 10 38l115 263
q5 11 8 22t3 20q0 18 -16 18q-22 0 -50 -25q-11 -10 -35 -34.5t-51 -57t-53 -67.5t-41 -66l-69 -139h-65zM430 672q7 11 14 14t15 3q15 0 25 -9t10 -24q0 -14 -16 -30l-132 -137l-26 21z" />
    <glyph glyph-name="Ncommaaccent" unicode="&#x145;" horiz-adv-x="709" 
d="M-58 0l11 32q26 1 48 6t41.5 17.5t35.5 36.5t30 65l156 464q-12 13 -37.5 16t-48.5 4l10 32h164l147 -536l131 395q5 17 10 35t5 27q0 26 -17 36.5t-62 10.5l11 32h243l-11 -32q-26 -2 -45 -6.5t-34.5 -17t-28.5 -37t-27 -64.5l-177 -524h-46l-157 580l-143 -431
q-5 -17 -9.5 -35t-4.5 -27q0 -26 22 -36.5t67 -10.5l-11 -32h-273zM204 -217q38 23 52.5 38t14.5 29q0 12 -15 15q-9 2 -21 12t-12 31q0 22 14 35t34 13q26 0 41 -19.5t15 -43.5q0 -45 -29.5 -78.5t-76.5 -58.5z" />
    <glyph glyph-name="ncommaaccent" unicode="&#x146;" horiz-adv-x="534" 
d="M167 328q7 15 10 28t3 19q0 13 -10 13q-5 0 -15.5 -8t-23.5 -21.5t-27.5 -31t-27.5 -36.5l-23 15q8 13 19.5 28.5t24 30.5t26 28.5t25.5 24.5q23 20 42 27t33 7q11 0 21 -8t10 -24q0 -17 -4.5 -36.5t-11.5 -39t-15 -38.5t-15 -35l4 -3q15 19 32 40t34.5 40.5t34 36
t29.5 27.5q29 23 54 31.5t46 8.5q22 0 37 -12t15 -34q0 -15 -4.5 -33.5t-12.5 -36.5l-106 -238q-10 -22 -10 -31q0 -7 6 -7q9 0 23 8.5t28.5 20.5t27 24.5l20.5 20.5l23 -17q-16 -20 -37 -41t-44.5 -38.5t-49 -29t-50.5 -11.5q-16 0 -25.5 8.5t-9.5 22.5q0 13 10 38l115 263
q5 11 8 22t3 20q0 18 -16 18q-22 0 -50 -25q-11 -10 -35 -34.5t-51 -57t-53 -67.5t-41 -66l-69 -139h-65zM103 -217q38 23 52.5 38t14.5 29q0 12 -15 15q-9 2 -21 12t-12 31q0 22 14 35t34 13q26 0 41 -19.5t15 -43.5q0 -45 -29.5 -78.5t-76.5 -58.5z" />
    <glyph glyph-name="Ncaron" unicode="&#x147;" horiz-adv-x="709" 
d="M-58 0l11 32q26 1 48 6t41.5 17.5t35.5 36.5t30 65l156 464q-12 13 -37.5 16t-48.5 4l10 32h164l147 -536l131 395q5 17 10 35t5 27q0 26 -17 36.5t-62 10.5l11 32h243l-11 -32q-26 -2 -45 -6.5t-34.5 -17t-28.5 -37t-27 -64.5l-177 -524h-46l-157 580l-143 -431
q-5 -17 -9.5 -35t-4.5 -27q0 -26 22 -36.5t67 -10.5l-11 -32h-273zM423 878l29 17l79 -93l132 95l21 -25l-129 -118q-9 -8 -18 -14.5t-19 -6.5q-12 0 -18 6.5t-11 15.5z" />
    <glyph glyph-name="ncaron" unicode="&#x148;" horiz-adv-x="534" 
d="M167 328q7 15 10 28t3 19q0 13 -10 13q-5 0 -15.5 -8t-23.5 -21.5t-27.5 -31t-27.5 -36.5l-23 15q8 13 19.5 28.5t24 30.5t26 28.5t25.5 24.5q23 20 42 27t33 7q11 0 21 -8t10 -24q0 -17 -4.5 -36.5t-11.5 -39t-15 -38.5t-15 -35l4 -3q15 19 32 40t34.5 40.5t34 36
t29.5 27.5q29 23 54 31.5t46 8.5q22 0 37 -12t15 -34q0 -15 -4.5 -33.5t-12.5 -36.5l-106 -238q-10 -22 -10 -31q0 -7 6 -7q9 0 23 8.5t28.5 20.5t27 24.5l20.5 20.5l23 -17q-16 -20 -37 -41t-44.5 -38.5t-49 -29t-50.5 -11.5q-16 0 -25.5 8.5t-9.5 22.5q0 13 10 38l115 263
q5 11 8 22t3 20q0 18 -16 18q-22 0 -50 -25q-11 -10 -35 -34.5t-51 -57t-53 -67.5t-41 -66l-69 -139h-65zM391 508q-10 -13 -19 -18t-19 -5q-12 0 -20.5 6.5t-10.5 22.5l-28 176l33 7l43 -129l136 130l24 -21z" />
    <glyph glyph-name="napostrophe" unicode="&#x149;" horiz-adv-x="534" 
d="M167 328q7 15 10 28t3 19q0 13 -10 13q-5 0 -15.5 -8t-23.5 -21.5t-27.5 -31t-27.5 -36.5l-23 15q8 13 19.5 28.5t24 30.5t26 28.5t25.5 24.5q23 20 42 27t33 7q11 0 21 -8t10 -24q0 -17 -4.5 -36.5t-11.5 -39t-15 -38.5t-15 -35l4 -3q15 19 32 40t34.5 40.5t34 36
t29.5 27.5q29 23 54 31.5t46 8.5q22 0 37 -12t15 -34q0 -15 -4.5 -33.5t-12.5 -36.5l-106 -238q-10 -22 -10 -31q0 -7 6 -7q9 0 23 8.5t28.5 20.5t27 24.5l20.5 20.5l23 -17q-16 -20 -37 -41t-44.5 -38.5t-49 -29t-50.5 -11.5q-16 0 -25.5 8.5t-9.5 22.5q0 13 10 38l115 263
q5 11 8 22t3 20q0 18 -16 18q-22 0 -50 -25q-11 -10 -35 -34.5t-51 -57t-53 -67.5t-41 -66l-69 -139h-65zM85 489q57 40 57 75q0 9 -4.5 12t-10.5 4q-10 2 -21.5 10t-11.5 28q0 21 13 32.5t33 11.5q23 0 36.5 -16.5t13.5 -42.5q0 -44 -25 -78.5t-63 -58.5z" />
    <glyph glyph-name="Eng" unicode="&#x14a;" horiz-adv-x="709" 
d="M-47 32q26 1 48 6t41.5 17.5t35.5 36.5t30 65l156 464q-12 13 -37.5 16t-48.5 4l10 32h164l147 -536l131 395q5 17 10 35t5 27q0 26 -17 36.5t-62 10.5l11 32h243l-11 -32q-26 -2 -45 -6.5t-34.5 -17t-28.5 -37t-27 -64.5l-179 -534q-17 -50 -39.5 -84t-47.5 -55
t-51.5 -30.5t-50.5 -9.5q-37 0 -57 13.5t-20 39.5q0 23 13 35t30 12t28 -7.5t11 -26.5q0 -10 0.5 -19.5t14.5 -9.5q26 0 47.5 31t36.5 76l29 86l-145 539l-143 -431q-5 -17 -9.5 -35t-4.5 -27q0 -26 22 -36.5t67 -10.5l-11 -32h-273z" />
    <glyph glyph-name="eng" unicode="&#x14b;" horiz-adv-x="494" 
d="M167 328q7 15 10 28t3 19q0 13 -10 13q-5 0 -15.5 -8t-23.5 -21.5t-27.5 -31t-27.5 -36.5l-23 15q8 13 19.5 28.5t24 30.5t26 28.5t25.5 24.5q23 20 42 27t33 7q11 0 21 -8t10 -24q0 -17 -4.5 -36.5t-11.5 -39t-15 -38.5t-15 -35l4 -3q15 19 32 40t34.5 40.5t34 36
t29.5 27.5q29 23 54 31.5t46 8.5q22 0 37 -12t15 -34q0 -15 -4.5 -33.5t-12.5 -36.5l-153 -354q-41 -96 -90.5 -137.5t-97.5 -41.5q-37 0 -57 13.5t-20 39.5q0 23 13 35t30 12t28 -7.5t11 -26.5q0 -10 0.5 -19.5t14.5 -9.5q13 0 25 9.5t23 25t21 35.5t19 42l151 370
q8 20 11 30t3 19q0 18 -18 18q-20 0 -48 -25q-11 -10 -35 -34.5t-51 -57t-53 -67.5t-41 -66l-69 -139h-65z" />
    <glyph glyph-name="Omacron" unicode="&#x14c;" horiz-adv-x="651" 
d="M286 -17q-48 0 -87.5 14t-68 44t-44.5 75.5t-16 108.5q0 77 27 159.5t75.5 150.5t116 111.5t148.5 43.5q106 0 160 -63.5t54 -178.5q0 -88 -29.5 -171.5t-80 -149t-116.5 -105t-139 -39.5zM281 18q44 0 82 24.5t69.5 64t55.5 90t40.5 102.5t25 101t8.5 87
q0 85 -30.5 126.5t-89.5 41.5q-39 0 -75.5 -23.5t-68 -62t-57.5 -88t-44.5 -102t-28.5 -103t-10 -90.5q0 -48 12 -80.5t30 -52t39.5 -27.5t41.5 -8zM371 829h244l-18 -56h-245z" />
    <glyph glyph-name="omacron" unicode="&#x14d;" horiz-adv-x="418" 
d="M145 -9q-19 0 -38.5 5.5t-35.5 20.5t-26 40.5t-10 64.5q0 31 9 67.5t26 73t40.5 71t53.5 60.5t65 42t74 16q20 0 39.5 -5.5t35 -19.5t25 -40t9.5 -66q0 -31 -9 -67.5t-26 -73t-41.5 -70.5t-54 -60.5t-64 -42.5t-72.5 -16zM148 22q23 0 47 19.5t47 51t42.5 70.5t34.5 77
t23.5 71t8.5 54q0 20 -8.5 37.5t-36.5 17.5q-21 0 -45 -16t-46.5 -42.5t-43 -61.5t-36.5 -72t-25 -74.5t-9 -69.5q0 -62 47 -62zM223 620h247l-19 -56h-247z" />
    <glyph glyph-name="Obreve" unicode="&#x14e;" horiz-adv-x="651" 
d="M286 -17q-48 0 -87.5 14t-68 44t-44.5 75.5t-16 108.5q0 77 27 159.5t75.5 150.5t116 111.5t148.5 43.5q106 0 160 -63.5t54 -178.5q0 -88 -29.5 -171.5t-80 -149t-116.5 -105t-139 -39.5zM281 18q44 0 82 24.5t69.5 64t55.5 90t40.5 102.5t25 101t8.5 87
q0 85 -30.5 126.5t-89.5 41.5q-39 0 -75.5 -23.5t-68 -62t-57.5 -88t-44.5 -102t-28.5 -103t-10 -90.5q0 -48 12 -80.5t30 -52t39.5 -27.5t41.5 -8zM397 903q-2 -45 17.5 -71t66.5 -26t82 28.5t55 72.5l32 -10q-26 -77 -74.5 -113t-102.5 -36q-62 0 -93 37t-21 118h38z" />
    <glyph glyph-name="obreve" unicode="&#x14f;" horiz-adv-x="418" 
d="M145 -9q-19 0 -38.5 5.5t-35.5 20.5t-26 40.5t-10 64.5q0 31 9 67.5t26 73t40.5 71t53.5 60.5t65 42t74 16q20 0 39.5 -5.5t35 -19.5t25 -40t9.5 -66q0 -31 -9 -67.5t-26 -73t-41.5 -70.5t-54 -60.5t-64 -42.5t-72.5 -16zM148 22q23 0 47 19.5t47 51t42.5 70.5t34.5 77
t23.5 71t8.5 54q0 20 -8.5 37.5t-36.5 17.5q-21 0 -45 -16t-46.5 -42.5t-43 -61.5t-36.5 -72t-25 -74.5t-9 -69.5q0 -62 47 -62zM249 682q-2 -45 17.5 -71t66.5 -26t82 28.5t55 72.5l32 -10q-26 -77 -74.5 -113t-102.5 -36q-62 0 -93 37t-21 118h38z" />
    <glyph glyph-name="Ohungarumlaut" unicode="&#x150;" horiz-adv-x="651" 
d="M286 -17q-48 0 -87.5 14t-68 44t-44.5 75.5t-16 108.5q0 77 27 159.5t75.5 150.5t116 111.5t148.5 43.5q106 0 160 -63.5t54 -178.5q0 -88 -29.5 -171.5t-80 -149t-116.5 -105t-139 -39.5zM281 18q44 0 82 24.5t69.5 64t55.5 90t40.5 102.5t25 101t8.5 87
q0 85 -30.5 126.5t-89.5 41.5q-39 0 -75.5 -23.5t-68 -62t-57.5 -88t-44.5 -102t-28.5 -103t-10 -90.5q0 -48 12 -80.5t30 -52t39.5 -27.5t41.5 -8zM362 722l-21 25l134 130q11 11 18 14t15 3q14 0 23 -10.5t9 -21.5q0 -9 -4.5 -17t-16.5 -16zM519 722l-21 25l134 130
q11 11 18 14t15 3q14 0 23 -10.5t9 -21.5q0 -9 -4.5 -17t-16.5 -16z" />
    <glyph glyph-name="ohungarumlaut" unicode="&#x151;" horiz-adv-x="418" 
d="M145 -9q-19 0 -38.5 5.5t-35.5 20.5t-26 40.5t-10 64.5q0 31 9 67.5t26 73t40.5 71t53.5 60.5t65 42t74 16q20 0 39.5 -5.5t35 -19.5t25 -40t9.5 -66q0 -31 -9 -67.5t-26 -73t-41.5 -70.5t-54 -60.5t-64 -42.5t-72.5 -16zM148 22q23 0 47 19.5t47 51t42.5 70.5t34.5 77
t23.5 71t8.5 54q0 20 -8.5 37.5t-36.5 17.5q-21 0 -45 -16t-46.5 -42.5t-43 -61.5t-36.5 -72t-25 -74.5t-9 -69.5q0 -62 47 -62zM318 672q7 11 14 14t15 3q15 0 25 -9t10 -24q0 -14 -16 -30l-132 -137l-26 21zM464 672q7 11 14 14t15 3q15 0 25 -9t10 -24q0 -14 -16 -30
l-132 -137l-26 21z" />
    <glyph glyph-name="OE" unicode="&#x152;" horiz-adv-x="1005" 
d="M400 0q-5 -1 -31 -4t-66 -3q-52 0 -95 13.5t-73.5 42.5t-47.5 75t-17 111q0 77 27.5 156.5t79.5 143.5t125.5 104.5t166.5 40.5q24 0 47.5 -1.5t45.5 -5.5h422l16 -134h-32l-50 76q-5 8 -11.5 11.5t-17.5 3.5h-181l-85 -253h74q32 0 54 6.5t36 18t23 27.5t16 36h34
l-84 -253l-34 -1q1 8 3 26.5t2 33.5q0 32 -18 48.5t-65 16.5h-56l-61 -188q-11 -35 -16 -49t-5 -25t8 -20.5t30 -9.5h230q11 0 16.5 3t10.5 10l90 118h31l-45 -175h-497zM581 512q8 23 10.5 35.5t2.5 23.5q0 33 -26.5 52t-94.5 19v1q-51 0 -94 -19.5t-77 -52.5t-60.5 -76.5
t-43.5 -92.5t-26 -100t-9 -99q0 -32 6.5 -63t21.5 -55t40 -39t62 -15q57 0 97.5 17t57.5 68z" />
    <glyph glyph-name="oe" unicode="&#x153;" horiz-adv-x="639" 
d="M579 121q-15 -22 -36 -45t-48 -42t-58.5 -31t-65.5 -12q-44 0 -62.5 22t-23.5 50q-9 -11 -22 -23.5t-30 -23t-39 -18t-49 -7.5q-19 0 -38.5 5.5t-35.5 20.5t-26 40.5t-10 64.5q0 31 9 67.5t26 73t40.5 71t53.5 60.5t65 42t74 16q93 0 101 -89q28 34 71 61.5t96 27.5
q45 0 65 -18.5t20 -41.5q0 -38 -21.5 -72t-59.5 -62.5t-91.5 -51t-117.5 -37.5q-5 -17 -8 -41t-3 -43q0 -24 10.5 -38t30.5 -14q35 0 76.5 28t79.5 80zM148 22q23 0 47 19.5t47 51t42.5 70.5t34.5 77t23.5 71t8.5 54q0 20 -8.5 37.5t-36.5 17.5q-21 0 -45 -16t-46.5 -42.5
t-43 -61.5t-36.5 -72t-25 -74.5t-9 -69.5q0 -62 47 -62zM378 203q44 13 82.5 33t67 45t45 53t16.5 56q0 17 -9.5 24.5t-25.5 7.5q-21 0 -44 -17.5t-46 -47t-45 -69.5t-41 -85z" />
    <glyph glyph-name="Racute" unicode="&#x154;" horiz-adv-x="695" 
d="M-18 0l11 32l40 4q35 4 49 45l152 452q11 35 16 49.5t5 25.5t-7.5 19.5t-24.5 10.5l-46 3l12 32h220q58 0 98 -12t65.5 -32.5t37 -48t11.5 -59.5q0 -46 -15.5 -82t-42.5 -62t-64.5 -42.5t-81.5 -22.5l69 -166q16 -39 30 -61.5t30.5 -34t37.5 -15t51 -3.5l-11 -32h-179
q-4 14 -12.5 38.5t-25.5 65.5l-85 205h-73l-57 -169q-12 -35 -17 -49.5t-5 -25.5t7.5 -19.5t24.5 -10.5l47 -3l-12 -32h-255zM262 349h69q38 0 74 8t64 28t45 54t17 87q0 49 -28 80.5t-90 31.5q-17 0 -28 -1.5t-18 -6t-12 -13t-10 -22.5zM412 722l-21 25l134 130
q11 11 18 14t15 3q14 0 23 -10.5t9 -21.5q0 -9 -4.5 -17t-16.5 -16z" />
    <glyph glyph-name="racute" unicode="&#x155;" horiz-adv-x="410" 
d="M166 328q6 15 10 28t4 19q0 5 -1.5 9t-7.5 4t-16.5 -8t-23.5 -21.5t-27.5 -31t-27.5 -36.5l-23 15q8 13 19.5 28.5t24 30.5t26 28.5t25.5 24.5q23 20 42 27t33 7q13 0 22 -8.5t9 -26.5q0 -21 -8.5 -49t-17.5 -49l4 -3q13 19 29.5 43t37 44.5t45.5 34.5t55 14
q25 0 42.5 -14.5t17.5 -37.5q0 -21 -12 -34.5t-32 -13.5q-17 0 -25 6.5t-11 17.5q-2 8 -7 14t-16 6t-22.5 -9t-20.5 -18q-7 -7 -23 -25.5t-35.5 -45.5t-41 -60.5t-39.5 -70.5l-80 -167h-65zM396 672q7 11 14 14t15 3q15 0 25 -9t10 -24q0 -14 -16 -30l-132 -137l-26 21z" />
    <glyph glyph-name="Rcommaaccent" unicode="&#x156;" horiz-adv-x="695" 
d="M-18 0l11 32l40 4q35 4 49 45l152 452q11 35 16 49.5t5 25.5t-7.5 19.5t-24.5 10.5l-46 3l12 32h220q58 0 98 -12t65.5 -32.5t37 -48t11.5 -59.5q0 -46 -15.5 -82t-42.5 -62t-64.5 -42.5t-81.5 -22.5l69 -166q16 -39 30 -61.5t30.5 -34t37.5 -15t51 -3.5l-11 -32h-179
q-4 14 -12.5 38.5t-25.5 65.5l-85 205h-73l-57 -169q-12 -35 -17 -49.5t-5 -25.5t7.5 -19.5t24.5 -10.5l47 -3l-12 -32h-255zM262 349h69q38 0 74 8t64 28t45 54t17 87q0 49 -28 80.5t-90 31.5q-17 0 -28 -1.5t-18 -6t-12 -13t-10 -22.5zM225 -217q38 23 52.5 38t14.5 29
q0 12 -15 15q-9 2 -21 12t-12 31q0 22 14 35t34 13q26 0 41 -19.5t15 -43.5q0 -45 -29.5 -78.5t-76.5 -58.5z" />
    <glyph glyph-name="rcommaaccent" unicode="&#x157;" horiz-adv-x="410" 
d="M166 328q6 15 10 28t4 19q0 5 -1.5 9t-7.5 4t-16.5 -8t-23.5 -21.5t-27.5 -31t-27.5 -36.5l-23 15q8 13 19.5 28.5t24 30.5t26 28.5t25.5 24.5q23 20 42 27t33 7q13 0 22 -8.5t9 -26.5q0 -21 -8.5 -49t-17.5 -49l4 -3q13 19 29.5 43t37 44.5t45.5 34.5t55 14
q25 0 42.5 -14.5t17.5 -37.5q0 -21 -12 -34.5t-32 -13.5q-17 0 -25 6.5t-11 17.5q-2 8 -7 14t-16 6t-22.5 -9t-20.5 -18q-7 -7 -23 -25.5t-35.5 -45.5t-41 -60.5t-39.5 -70.5l-80 -167h-65zM-29 -217q38 23 52.5 38t14.5 29q0 12 -15 15q-9 2 -21 12t-12 31q0 22 14 35
t34 13q26 0 41 -19.5t15 -43.5q0 -45 -29.5 -78.5t-76.5 -58.5z" />
    <glyph glyph-name="Rcaron" unicode="&#x158;" horiz-adv-x="695" 
d="M-18 0l11 32l40 4q35 4 49 45l152 452q11 35 16 49.5t5 25.5t-7.5 19.5t-24.5 10.5l-46 3l12 32h220q58 0 98 -12t65.5 -32.5t37 -48t11.5 -59.5q0 -46 -15.5 -82t-42.5 -62t-64.5 -42.5t-81.5 -22.5l69 -166q16 -39 30 -61.5t30.5 -34t37.5 -15t51 -3.5l-11 -32h-179
q-4 14 -12.5 38.5t-25.5 65.5l-85 205h-73l-57 -169q-12 -35 -17 -49.5t-5 -25.5t7.5 -19.5t24.5 -10.5l47 -3l-12 -32h-255zM262 349h69q38 0 74 8t64 28t45 54t17 87q0 49 -28 80.5t-90 31.5q-17 0 -28 -1.5t-18 -6t-12 -13t-10 -22.5zM353 878l29 17l79 -93l132 95
l21 -25l-129 -118q-9 -8 -18 -14.5t-19 -6.5q-12 0 -18 6.5t-11 15.5z" />
    <glyph glyph-name="rcaron" unicode="&#x159;" horiz-adv-x="410" 
d="M166 328q6 15 10 28t4 19q0 5 -1.5 9t-7.5 4t-16.5 -8t-23.5 -21.5t-27.5 -31t-27.5 -36.5l-23 15q8 13 19.5 28.5t24 30.5t26 28.5t25.5 24.5q23 20 42 27t33 7q13 0 22 -8.5t9 -26.5q0 -21 -8.5 -49t-17.5 -49l4 -3q13 19 29.5 43t37 44.5t45.5 34.5t55 14
q25 0 42.5 -14.5t17.5 -37.5q0 -21 -12 -34.5t-32 -13.5q-17 0 -25 6.5t-11 17.5q-2 8 -7 14t-16 6t-22.5 -9t-20.5 -18q-7 -7 -23 -25.5t-35.5 -45.5t-41 -60.5t-39.5 -70.5l-80 -167h-65zM339 508q-10 -13 -19 -18t-19 -5q-12 0 -20.5 6.5t-10.5 22.5l-28 176l33 7
l43 -129l136 130l24 -21z" />
    <glyph glyph-name="Sacute" unicode="&#x15a;" horiz-adv-x="541" 
d="M86 234h33q-7 -41 -5 -79.5t17 -69t46 -49t82 -18.5q53 0 86 31.5t33 90.5q0 27 -8.5 49.5t-22.5 43t-31 38.5t-35 36q-19 19 -38 39.5t-34.5 44t-25 51.5t-9.5 64q0 44 16 78.5t43 58t63 35.5t77 12q34 0 58.5 -5.5t42.5 -12t30.5 -12t21.5 -5.5q11 0 18 6t14 24h29
l-71 -226h-33q5 35 5 70t-11 63t-35.5 45.5t-67.5 17.5q-53 0 -83.5 -30.5t-30.5 -85.5q0 -43 24.5 -77t66.5 -77q21 -21 41.5 -43.5t37 -48t27 -54.5t10.5 -63q0 -43 -16.5 -78.5t-45 -61t-67.5 -39.5t-85 -14q-41 0 -69 8t-48 18t-34.5 18t-27.5 8t-20 -9.5t-14 -20.5h-29
zM392 722l-21 25l134 130q11 11 18 14t15 3q14 0 23 -10.5t9 -21.5q0 -9 -4.5 -17t-16.5 -16z" />
    <glyph glyph-name="sacute" unicode="&#x15b;" horiz-adv-x="326" 
d="M-30 63q0 16 10 27t26 11q17 0 28.5 -11t22.5 -32q8 -14 23 -24t44 -10q13 0 27 3t26 10t19.5 19t7.5 31q0 28 -16.5 51.5t-36 47.5t-35.5 50.5t-16 59.5q0 28 11.5 55.5t32.5 50t51 36.5t68 14q16 0 33 -4t31 -11t23 -17.5t9 -23.5t-8.5 -23t-25.5 -10q-16 0 -27 7.5
t-21.5 16.5t-22.5 16.5t-30 7.5q-11 0 -22.5 -5t-20.5 -13.5t-15 -20.5t-6 -27q0 -26 16.5 -51.5t36.5 -52t36.5 -54.5t16.5 -59q0 -29 -10.5 -54t-30 -43.5t-49 -29t-66.5 -10.5q-63 0 -101.5 21.5t-38.5 50.5zM349 670q7 11 14 14t15 3q15 0 25 -9t10 -24q0 -14 -16 -30
l-132 -137l-26 21z" />
    <glyph glyph-name="Scircumflex" unicode="&#x15c;" horiz-adv-x="541" 
d="M86 234h33q-7 -41 -5 -79.5t17 -69t46 -49t82 -18.5q53 0 86 31.5t33 90.5q0 27 -8.5 49.5t-22.5 43t-31 38.5t-35 36q-19 19 -38 39.5t-34.5 44t-25 51.5t-9.5 64q0 44 16 78.5t43 58t63 35.5t77 12q34 0 58.5 -5.5t42.5 -12t30.5 -12t21.5 -5.5q11 0 18 6t14 24h29
l-71 -226h-33q5 35 5 70t-11 63t-35.5 45.5t-67.5 17.5q-53 0 -83.5 -30.5t-30.5 -85.5q0 -43 24.5 -77t66.5 -77q21 -21 41.5 -43.5t37 -48t27 -54.5t10.5 -63q0 -43 -16.5 -78.5t-45 -61t-67.5 -39.5t-85 -14q-41 0 -69 8t-48 18t-34.5 18t-27.5 8t-20 -9.5t-14 -20.5h-29
zM318 721l-21 25l129 118q9 8 18 14.5t19 6.5q12 0 18 -6.5t11 -15.5l66 -123l-29 -17l-79 93z" />
    <glyph glyph-name="scircumflex" unicode="&#x15d;" horiz-adv-x="326" 
d="M-30 63q0 16 10 27t26 11q17 0 28.5 -11t22.5 -32q8 -14 23 -24t44 -10q13 0 27 3t26 10t19.5 19t7.5 31q0 28 -16.5 51.5t-36 47.5t-35.5 50.5t-16 59.5q0 28 11.5 55.5t32.5 50t51 36.5t68 14q16 0 33 -4t31 -11t23 -17.5t9 -23.5t-8.5 -23t-25.5 -10q-16 0 -27 7.5
t-21.5 16.5t-22.5 16.5t-30 7.5q-11 0 -22.5 -5t-20.5 -13.5t-15 -20.5t-6 -27q0 -26 16.5 -51.5t36.5 -52t36.5 -54.5t16.5 -59q0 -29 -10.5 -54t-30 -43.5t-49 -29t-66.5 -10.5q-63 0 -101.5 21.5t-38.5 50.5zM147 506l139 169q10 13 19 18t19 5q12 0 20.5 -6.5
t10.5 -22.5l28 -176l-33 -7l-43 129l-136 -130z" />
    <glyph glyph-name="Scedilla" unicode="&#x15e;" horiz-adv-x="541" 
d="M129 -161q2 -2 18 -9.5t41 -7.5q20 0 35.5 10t15.5 34q0 20 -12 27t-24 7q-16 0 -22 -4t-10 -6l-15 12l50 85q-28 4 -48 12t-35 16t-26.5 14t-22.5 6q-13 0 -20 -9.5t-14 -20.5h-29l75 229h33q-7 -41 -5 -79.5t17 -69t46 -49t82 -18.5q53 0 86 31.5t33 90.5
q0 27 -8.5 49.5t-22.5 43t-31 38.5t-35 36q-19 19 -38 39.5t-34.5 44t-25 51.5t-9.5 64q0 44 16 78.5t43 58t63 35.5t77 12q34 0 58.5 -5.5t42.5 -12t30.5 -12t21.5 -5.5q11 0 18 6t14 24h29l-71 -226h-33q5 35 5 70t-11 63t-35.5 45.5t-67.5 17.5q-53 0 -83.5 -30.5
t-30.5 -85.5q0 -43 24.5 -77t66.5 -77q21 -21 41.5 -43.5t37 -48t27 -54.5t10.5 -63q0 -43 -16.5 -78.5t-45 -61t-67.5 -39.5t-85 -14h-2l-30 -51q3 1 7.5 2t12.5 1q23 0 43.5 -13.5t20.5 -46.5q0 -23 -9.5 -40t-24.5 -28t-34 -16t-38 -5q-41 0 -62.5 11t-25.5 13z" />
    <glyph glyph-name="scedilla" unicode="&#x15f;" horiz-adv-x="326" 
d="M-6 -161q2 -2 18 -9.5t41 -7.5q20 0 35.5 10t15.5 34q0 20 -12 27t-24 7q-16 0 -22 -4t-10 -6l-15 12l54 91q-48 5 -76.5 24.5t-28.5 45.5q0 16 10 27t26 11q17 0 28.5 -11t22.5 -32q8 -14 23 -24t44 -10q13 0 27 3t26 10t19.5 19t7.5 31q0 28 -16.5 51.5t-36 47.5
t-35.5 50.5t-16 59.5q0 28 11.5 55.5t32.5 50t51 36.5t68 14q16 0 33 -4t31 -11t23 -17.5t9 -23.5t-8.5 -23t-25.5 -10q-16 0 -27 7.5t-21.5 16.5t-22.5 16.5t-30 7.5q-11 0 -22.5 -5t-20.5 -13.5t-15 -20.5t-6 -27q0 -26 16.5 -51.5t36.5 -52t36.5 -54.5t16.5 -59
q0 -56 -37.5 -95t-107.5 -42l-35 -59q3 1 7.5 2t12.5 1q23 0 43.5 -13.5t20.5 -46.5q0 -23 -9.5 -40t-24.5 -28t-34 -16t-38 -5q-41 0 -62.5 11t-25.5 13z" />
    <glyph glyph-name="Scaron" unicode="&#x160;" horiz-adv-x="541" 
d="M86 234h33q-7 -41 -5 -79.5t17 -69t46 -49t82 -18.5q53 0 86 31.5t33 90.5q0 27 -8.5 49.5t-22.5 43t-31 38.5t-35 36q-19 19 -38 39.5t-34.5 44t-25 51.5t-9.5 64q0 44 16 78.5t43 58t63 35.5t77 12q34 0 58.5 -5.5t42.5 -12t30.5 -12t21.5 -5.5q11 0 18 6t14 24h29
l-71 -226h-33q5 35 5 70t-11 63t-35.5 45.5t-67.5 17.5q-53 0 -83.5 -30.5t-30.5 -85.5q0 -43 24.5 -77t66.5 -77q21 -21 41.5 -43.5t37 -48t27 -54.5t10.5 -63q0 -43 -16.5 -78.5t-45 -61t-67.5 -39.5t-85 -14q-41 0 -69 8t-48 18t-34.5 18t-27.5 8t-20 -9.5t-14 -20.5h-29
zM338 878l29 17l79 -93l132 95l21 -25l-129 -118q-9 -8 -18 -14.5t-19 -6.5q-12 0 -18 6.5t-11 15.5z" />
    <glyph glyph-name="scaron" unicode="&#x161;" horiz-adv-x="326" 
d="M-30 63q0 16 10 27t26 11q17 0 28.5 -11t22.5 -32q8 -14 23 -24t44 -10q13 0 27 3t26 10t19.5 19t7.5 31q0 28 -16.5 51.5t-36 47.5t-35.5 50.5t-16 59.5q0 28 11.5 55.5t32.5 50t51 36.5t68 14q16 0 33 -4t31 -11t23 -17.5t9 -23.5t-8.5 -23t-25.5 -10q-16 0 -27 7.5
t-21.5 16.5t-22.5 16.5t-30 7.5q-11 0 -22.5 -5t-20.5 -13.5t-15 -20.5t-6 -27q0 -26 16.5 -51.5t36.5 -52t36.5 -54.5t16.5 -59q0 -29 -10.5 -54t-30 -43.5t-49 -29t-66.5 -10.5q-63 0 -101.5 21.5t-38.5 50.5zM316 508q-10 -13 -19 -18t-19 -5q-12 0 -20.5 6.5t-10.5 22.5
l-28 176l33 7l43 -129l136 130l24 -21z" />
    <glyph glyph-name="Tcommaaccent" unicode="&#x162;" horiz-adv-x="620" 
d="M101 32l60 4q35 3 49 45l184 549h-131q-12 0 -23 -11l-91 -111h-34l57 165h560l-50 -165h-30l-18 106q-2 8 -6 12t-13 4h-132l-162 -488q-11 -35 -16 -50t-5 -26t7.5 -18.5t28.5 -9.5l70 -6l-12 -32h-304zM136 -217q38 23 52.5 38t14.5 29q0 12 -15 15q-9 2 -21 12
t-12 31q0 22 14 35t34 13q26 0 41 -19.5t15 -43.5q0 -45 -29.5 -78.5t-76.5 -58.5z" />
    <glyph glyph-name="tcommaaccent" unicode="&#x163;" horiz-adv-x="293" 
d="M163 386h-61l16 45h65l35 87l73 23l8 -8l-44 -102h93l-14 -45h-98l-131 -302q-5 -10 -6 -19.5t8 -9.5q10 0 27 10t34.5 24t33 28t23.5 22l21 -20q-13 -15 -37 -36.5t-52 -40.5t-58 -32.5t-55 -13.5q-14 0 -22.5 9t-8.5 23q0 11 6 28zM-48 -217q38 23 52.5 38t14.5 29
q0 12 -15 15q-9 2 -21 12t-12 31q0 22 14 35t34 13q26 0 41 -19.5t15 -43.5q0 -45 -29.5 -78.5t-76.5 -58.5z" />
    <glyph glyph-name="Tcaron" unicode="&#x164;" horiz-adv-x="620" 
d="M101 32l60 4q35 3 49 45l184 549h-131q-12 0 -23 -11l-91 -111h-34l57 165h560l-50 -165h-30l-18 106q-2 8 -6 12t-13 4h-132l-162 -488q-11 -35 -16 -50t-5 -26t7.5 -18.5t28.5 -9.5l70 -6l-12 -32h-304zM366 878l29 17l79 -93l132 95l21 -25l-129 -118q-9 -8 -18 -14.5
t-19 -6.5q-12 0 -18 6.5t-11 15.5z" />
    <glyph glyph-name="tcaron" unicode="&#x165;" horiz-adv-x="293" 
d="M163 386h-61l16 45h65l35 87l73 23l8 -8l-44 -102h93l-14 -45h-98l-131 -302q-5 -10 -6 -19.5t8 -9.5q10 0 27 10t34.5 24t33 28t23.5 22l21 -20q-13 -15 -37 -36.5t-52 -40.5t-58 -32.5t-55 -13.5q-14 0 -22.5 9t-8.5 23q0 11 6 28zM339 489l72 167q8 19 18.5 26t22.5 7
q14 0 23.5 -7.5t9.5 -20.5t-12 -31l-104 -154z" />
    <glyph glyph-name="Tbar" unicode="&#x166;" horiz-adv-x="620" 
d="M101 32l60 4q35 3 49 45l84 251h-153l15 46h153l85 252h-131q-12 0 -23 -11l-91 -111h-34l57 165h560l-50 -165h-30l-18 106q-2 8 -6 12t-13 4h-132l-84 -252h152l-15 -46h-152l-63 -190q-11 -35 -16 -50t-5 -26t7.5 -18.5t28.5 -9.5l70 -6l-12 -32h-304z" />
    <glyph glyph-name="tbar" unicode="&#x167;" horiz-adv-x="293" 
d="M96 233h-64l14 40h67l50 113h-61l16 45h65l35 87l73 23l8 -8l-44 -102h93l-14 -45h-98l-49 -113h105l-14 -40h-109l-64 -149q-5 -10 -6 -19.5t8 -9.5q10 0 27 10t34.5 24t33 28t23.5 22l21 -20q-13 -15 -37 -36.5t-52 -40.5t-58 -32.5t-55 -13.5q-14 0 -22.5 9t-8.5 23
q0 11 6 28z" />
    <glyph glyph-name="Utilde" unicode="&#x168;" horiz-adv-x="672" 
d="M213 533q11 35 16 49.5t5 25.5t-7.5 19.5t-24.5 10.5l-46 3l12 32h257l-11 -32l-42 -4q-35 -4 -49 -45l-120 -357q-8 -23 -12.5 -47.5t-4.5 -45.5q0 -54 28.5 -82.5t94.5 -28.5q67 0 106 34.5t64 106.5l123 360q6 17 10.5 35t4.5 27q0 26 -17 36.5t-62 10.5l11 32h243
l-11 -32q-26 -2 -45 -6.5t-34.5 -17t-28.5 -37t-27 -64.5l-127 -360q-30 -84 -82.5 -128.5t-148.5 -44.5q-37 0 -71 7.5t-60 26.5t-41.5 50.5t-15.5 78.5q0 28 7.5 61t18.5 67zM347 758q21 51 46.5 75t60.5 24q22 0 43.5 -8t41.5 -18t38.5 -18t33.5 -8q13 0 21.5 5.5
t14.5 13.5t10 17t7 17l32 -12q-17 -48 -40 -71.5t-62 -23.5q-23 0 -44 8t-41 17.5t-38 17.5t-35 8q-12 0 -21 -6t-16 -15t-12 -19t-8 -17z" />
    <glyph glyph-name="utilde" unicode="&#x169;" horiz-adv-x="530" 
d="M159 335q7 17 9.5 26t2.5 14q0 8 -7 8q-9 0 -23 -11t-29 -26t-28.5 -30t-20.5 -23l-23 17q16 19 37.5 43t46.5 44.5t51 34.5t51 14q16 0 25.5 -8.5t9.5 -22.5q0 -13 -10 -38l-100 -263q-5 -11 -8 -22t-3 -20q0 -18 16 -18q22 0 50 25q11 10 34 34.5t49.5 57t51.5 67.5
t40 66l69 139h65l-138 -328q-7 -15 -11 -28.5t-4 -19.5q0 -13 10 -13q5 0 15.5 7.5t24 20.5t28 30t27.5 36l23 -15q-8 -13 -19.5 -27.5t-24 -28.5t-25 -26t-22.5 -21q-27 -24 -46 -31.5t-33 -7.5t-24.5 8t-10.5 24q0 17 5.5 36.5t13.5 39t16.5 38.5t15.5 35l-4 3
q-15 -19 -31.5 -40t-33 -40.5t-32 -36.5t-28.5 -27q-29 -23 -54 -31.5t-46 -8.5q-22 0 -37 12t-15 34q0 15 4.5 33.5t12.5 36.5zM202 551q21 51 46.5 75t60.5 24q22 0 43.5 -8t41.5 -18t38.5 -18t33.5 -8q13 0 21.5 5.5t14.5 13.5t10 17t7 17l32 -12q-17 -48 -40 -71.5
t-62 -23.5q-23 0 -44 8t-41 17.5t-38 17.5t-35 8q-12 0 -21 -6t-16 -15t-12 -19t-8 -17z" />
    <glyph glyph-name="Umacron" unicode="&#x16a;" horiz-adv-x="672" 
d="M213 533q11 35 16 49.5t5 25.5t-7.5 19.5t-24.5 10.5l-46 3l12 32h257l-11 -32l-42 -4q-35 -4 -49 -45l-120 -357q-8 -23 -12.5 -47.5t-4.5 -45.5q0 -54 28.5 -82.5t94.5 -28.5q67 0 106 34.5t64 106.5l123 360q6 17 10.5 35t4.5 27q0 26 -17 36.5t-62 10.5l11 32h243
l-11 -32q-26 -2 -45 -6.5t-34.5 -17t-28.5 -37t-27 -64.5l-127 -360q-30 -84 -82.5 -128.5t-148.5 -44.5q-37 0 -71 7.5t-60 26.5t-41.5 50.5t-15.5 78.5q0 28 7.5 61t18.5 67zM408 829h244l-18 -56h-245z" />
    <glyph glyph-name="umacron" unicode="&#x16b;" horiz-adv-x="530" 
d="M159 335q7 17 9.5 26t2.5 14q0 8 -7 8q-9 0 -23 -11t-29 -26t-28.5 -30t-20.5 -23l-23 17q16 19 37.5 43t46.5 44.5t51 34.5t51 14q16 0 25.5 -8.5t9.5 -22.5q0 -13 -10 -38l-100 -263q-5 -11 -8 -22t-3 -20q0 -18 16 -18q22 0 50 25q11 10 34 34.5t49.5 57t51.5 67.5
t40 66l69 139h65l-138 -328q-7 -15 -11 -28.5t-4 -19.5q0 -13 10 -13q5 0 15.5 7.5t24 20.5t28 30t27.5 36l23 -15q-8 -13 -19.5 -27.5t-24 -28.5t-25 -26t-22.5 -21q-27 -24 -46 -31.5t-33 -7.5t-24.5 8t-10.5 24q0 17 5.5 36.5t13.5 39t16.5 38.5t15.5 35l-4 3
q-15 -19 -31.5 -40t-33 -40.5t-32 -36.5t-28.5 -27q-29 -23 -54 -31.5t-46 -8.5q-22 0 -37 12t-15 34q0 15 4.5 33.5t12.5 36.5zM264 620h247l-19 -56h-247z" />
    <glyph glyph-name="Ubreve" unicode="&#x16c;" horiz-adv-x="672" 
d="M213 533q11 35 16 49.5t5 25.5t-7.5 19.5t-24.5 10.5l-46 3l12 32h257l-11 -32l-42 -4q-35 -4 -49 -45l-120 -357q-8 -23 -12.5 -47.5t-4.5 -45.5q0 -54 28.5 -82.5t94.5 -28.5q67 0 106 34.5t64 106.5l123 360q6 17 10.5 35t4.5 27q0 26 -17 36.5t-62 10.5l11 32h243
l-11 -32q-26 -2 -45 -6.5t-34.5 -17t-28.5 -37t-27 -64.5l-127 -360q-30 -84 -82.5 -128.5t-148.5 -44.5q-37 0 -71 7.5t-60 26.5t-41.5 50.5t-15.5 78.5q0 28 7.5 61t18.5 67zM415 903q-2 -45 17.5 -71t66.5 -26t82 28.5t55 72.5l32 -10q-26 -77 -74.5 -113t-102.5 -36
q-62 0 -93 37t-21 118h38z" />
    <glyph glyph-name="ubreve" unicode="&#x16d;" horiz-adv-x="530" 
d="M159 335q7 17 9.5 26t2.5 14q0 8 -7 8q-9 0 -23 -11t-29 -26t-28.5 -30t-20.5 -23l-23 17q16 19 37.5 43t46.5 44.5t51 34.5t51 14q16 0 25.5 -8.5t9.5 -22.5q0 -13 -10 -38l-100 -263q-5 -11 -8 -22t-3 -20q0 -18 16 -18q22 0 50 25q11 10 34 34.5t49.5 57t51.5 67.5
t40 66l69 139h65l-138 -328q-7 -15 -11 -28.5t-4 -19.5q0 -13 10 -13q5 0 15.5 7.5t24 20.5t28 30t27.5 36l23 -15q-8 -13 -19.5 -27.5t-24 -28.5t-25 -26t-22.5 -21q-27 -24 -46 -31.5t-33 -7.5t-24.5 8t-10.5 24q0 17 5.5 36.5t13.5 39t16.5 38.5t15.5 35l-4 3
q-15 -19 -31.5 -40t-33 -40.5t-32 -36.5t-28.5 -27q-29 -23 -54 -31.5t-46 -8.5q-22 0 -37 12t-15 34q0 15 4.5 33.5t12.5 36.5zM285 682q-2 -45 17.5 -71t66.5 -26t82 28.5t55 72.5l32 -10q-26 -77 -74.5 -113t-102.5 -36q-62 0 -93 37t-21 118h38z" />
    <glyph glyph-name="Uring" unicode="&#x16e;" horiz-adv-x="672" 
d="M213 533q11 35 16 49.5t5 25.5t-7.5 19.5t-24.5 10.5l-46 3l12 32h257l-11 -32l-42 -4q-35 -4 -49 -45l-120 -357q-8 -23 -12.5 -47.5t-4.5 -45.5q0 -54 28.5 -82.5t94.5 -28.5q67 0 106 34.5t64 106.5l123 360q6 17 10.5 35t4.5 27q0 26 -17 36.5t-62 10.5l11 32h243
l-11 -32q-26 -2 -45 -6.5t-34.5 -17t-28.5 -37t-27 -64.5l-127 -360q-30 -84 -82.5 -128.5t-148.5 -44.5q-37 0 -71 7.5t-60 26.5t-41.5 50.5t-15.5 78.5q0 28 7.5 61t18.5 67zM405 802q0 36 26 61.5t62 25.5q18 0 34 -7t28.5 -18.5t19.5 -27.5t7 -34q0 -36 -26.5 -61
t-62.5 -25t-62 25t-26 61zM493 750q23 0 37 14.5t14 37.5t-14 38t-37 15t-36.5 -15t-13.5 -38t13.5 -37.5t36.5 -14.5z" />
    <glyph glyph-name="uring" unicode="&#x16f;" horiz-adv-x="530" 
d="M159 335q7 17 9.5 26t2.5 14q0 8 -7 8q-9 0 -23 -11t-29 -26t-28.5 -30t-20.5 -23l-23 17q16 19 37.5 43t46.5 44.5t51 34.5t51 14q16 0 25.5 -8.5t9.5 -22.5q0 -13 -10 -38l-100 -263q-5 -11 -8 -22t-3 -20q0 -18 16 -18q22 0 50 25q11 10 34 34.5t49.5 57t51.5 67.5
t40 66l69 139h65l-138 -328q-7 -15 -11 -28.5t-4 -19.5q0 -13 10 -13q5 0 15.5 7.5t24 20.5t28 30t27.5 36l23 -15q-8 -13 -19.5 -27.5t-24 -28.5t-25 -26t-22.5 -21q-27 -24 -46 -31.5t-33 -7.5t-24.5 8t-10.5 24q0 17 5.5 36.5t13.5 39t16.5 38.5t15.5 35l-4 3
q-15 -19 -31.5 -40t-33 -40.5t-32 -36.5t-28.5 -27q-29 -23 -54 -31.5t-46 -8.5q-22 0 -37 12t-15 34q0 15 4.5 33.5t12.5 36.5zM280 620q0 36 26 61.5t62 25.5q18 0 34 -7t28.5 -18.5t19.5 -27.5t7 -34q0 -36 -26.5 -61t-62.5 -25t-62 25t-26 61zM368 568q23 0 37 14.5
t14 37.5t-14 38t-37 15t-36.5 -15t-13.5 -38t13.5 -37.5t36.5 -14.5z" />
    <glyph glyph-name="Uhungarumlaut" unicode="&#x170;" horiz-adv-x="672" 
d="M213 533q11 35 16 49.5t5 25.5t-7.5 19.5t-24.5 10.5l-46 3l12 32h257l-11 -32l-42 -4q-35 -4 -49 -45l-120 -357q-8 -23 -12.5 -47.5t-4.5 -45.5q0 -54 28.5 -82.5t94.5 -28.5q67 0 106 34.5t64 106.5l123 360q6 17 10.5 35t4.5 27q0 26 -17 36.5t-62 10.5l11 32h243
l-11 -32q-26 -2 -45 -6.5t-34.5 -17t-28.5 -37t-27 -64.5l-127 -360q-30 -84 -82.5 -128.5t-148.5 -44.5q-37 0 -71 7.5t-60 26.5t-41.5 50.5t-15.5 78.5q0 28 7.5 61t18.5 67zM405 722l-21 25l134 130q11 11 18 14t15 3q14 0 23 -10.5t9 -21.5q0 -9 -4.5 -17t-16.5 -16z
M562 722l-21 25l134 130q11 11 18 14t15 3q14 0 23 -10.5t9 -21.5q0 -9 -4.5 -17t-16.5 -16z" />
    <glyph glyph-name="uhungarumlaut" unicode="&#x171;" horiz-adv-x="530" 
d="M159 335q7 17 9.5 26t2.5 14q0 8 -7 8q-9 0 -23 -11t-29 -26t-28.5 -30t-20.5 -23l-23 17q16 19 37.5 43t46.5 44.5t51 34.5t51 14q16 0 25.5 -8.5t9.5 -22.5q0 -13 -10 -38l-100 -263q-5 -11 -8 -22t-3 -20q0 -18 16 -18q22 0 50 25q11 10 34 34.5t49.5 57t51.5 67.5
t40 66l69 139h65l-138 -328q-7 -15 -11 -28.5t-4 -19.5q0 -13 10 -13q5 0 15.5 7.5t24 20.5t28 30t27.5 36l23 -15q-8 -13 -19.5 -27.5t-24 -28.5t-25 -26t-22.5 -21q-27 -24 -46 -31.5t-33 -7.5t-24.5 8t-10.5 24q0 17 5.5 36.5t13.5 39t16.5 38.5t15.5 35l-4 3
q-15 -19 -31.5 -40t-33 -40.5t-32 -36.5t-28.5 -27q-29 -23 -54 -31.5t-46 -8.5q-22 0 -37 12t-15 34q0 15 4.5 33.5t12.5 36.5zM369 672q7 11 14 14t15 3q15 0 25 -9t10 -24q0 -14 -16 -30l-132 -137l-26 21zM515 672q7 11 14 14t15 3q15 0 25 -9t10 -24q0 -14 -16 -30
l-132 -137l-26 21z" />
    <glyph glyph-name="Uogonek" unicode="&#x172;" horiz-adv-x="672" 
d="M444 -147q-8 -13 -18.5 -25.5t-24 -22.5t-31 -16t-40.5 -6q-38 0 -59 17t-21 52q0 41 26.5 74t62.5 61q-12 -2 -24.5 -3t-26.5 -1q-37 0 -71 7.5t-60 26.5t-41.5 50.5t-15.5 78.5q0 28 7.5 61t18.5 67l87 259q11 35 16 49.5t5 25.5t-7.5 19.5t-24.5 10.5l-46 3l12 32h257
l-11 -32l-42 -4q-35 -4 -49 -45l-120 -357q-8 -23 -12.5 -47.5t-4.5 -45.5q0 -54 28.5 -82.5t94.5 -28.5q67 0 106 34.5t64 106.5l123 360q6 17 10.5 35t4.5 27q0 26 -17 36.5t-62 10.5l11 32h243l-11 -32q-26 -2 -45 -6.5t-34.5 -17t-28.5 -37t-27 -64.5l-127 -360
q-18 -51 -43 -87t-62 -57q-15 -12 -32 -27.5t-31.5 -33.5t-24.5 -39t-10 -43q0 -19 11.5 -28.5t28.5 -9.5q23 0 38 12.5t25 26.5z" />
    <glyph glyph-name="uogonek" unicode="&#x173;" horiz-adv-x="530" 
d="M159 335q7 17 9.5 26t2.5 14q0 8 -7 8q-9 0 -23 -11t-29 -26t-28.5 -30t-20.5 -23l-23 17q16 19 37.5 43t46.5 44.5t51 34.5t51 14q16 0 25.5 -8.5t9.5 -22.5q0 -13 -10 -38l-100 -263q-5 -11 -8 -22t-3 -20q0 -18 16 -18q22 0 50 25q11 10 34 34.5t49.5 57t51.5 67.5
t40 66l69 139h65l-138 -328q-7 -15 -11 -28.5t-4 -19.5q0 -13 10 -13q5 0 15.5 7.5t24 20.5t28 30t27.5 36l23 -15q-8 -13 -19.5 -27.5t-24 -28.5t-25 -26t-22.5 -21q-27 -24 -47 -32q-14 -12 -28.5 -26.5t-26 -31t-19 -34.5t-7.5 -37t11.5 -28.5t28.5 -9.5q23 0 38 12.5
t25 26.5l25 -17q-8 -13 -18.5 -25.5t-24 -22.5t-31 -16t-40.5 -6q-38 0 -59 17t-21 52q0 44 29.5 78.5t69.5 63.5q-8 4 -13.5 11t-5.5 18q0 17 5.5 36.5t13.5 39t16.5 38.5t15.5 35l-4 3q-15 -19 -31.5 -40t-33 -40.5t-32 -36.5t-28.5 -27q-29 -23 -54 -31.5t-46 -8.5
q-22 0 -37 12t-15 34q0 15 4.5 33.5t12.5 36.5z" />
    <glyph glyph-name="Wcircumflex" unicode="&#x174;" horiz-adv-x="915" 
d="M180 -17l31 580q1 28 -3.5 43.5t-14 23t-24.5 9.5t-34 2l11 32h243l-11 -32q-28 0 -43.5 -5t-23.5 -15t-10.5 -26t-3.5 -37l-25 -429l232 343l6 99q2 42 -9 56t-50 14l11 32h243l-11 -32q-32 0 -50.5 -5t-29 -15t-14.5 -26t-5 -37l-24 -414l233 356q9 15 19.5 30t18.5 30
t13.5 28t5.5 24q0 29 -60 29l11 32h238l-11 -32q-22 -1 -40.5 -5.5t-37 -16.5t-39.5 -35t-47 -61l-356 -540h-46l25 402l-272 -402h-46zM491 721l-21 25l129 118q9 8 18 14.5t19 6.5q12 0 18 -6.5t11 -15.5l66 -123l-29 -17l-79 93z" />
    <glyph glyph-name="wcircumflex" unicode="&#x175;" horiz-adv-x="729" 
d="M179 382q-48 0 -68.5 -15.5t-20.5 -36.5q0 -5 2 -8.5t7 -3.5t7.5 2.5t5 6t6.5 6t12 2.5q14 0 20 -8t6 -19q0 -20 -13 -29.5t-32 -9.5q-28 0 -39.5 16.5t-11.5 38.5q0 16 8.5 37t28 39t50 30.5t74.5 12.5h157l7 -9q-7 -9 -19 -23.5t-24.5 -29t-23.5 -27.5t-17 -20
q-15 -19 -37.5 -44t-44 -54t-37 -60t-15.5 -61q-1 -26 13 -45t50 -19q35 0 63.5 14.5t46.5 31.5q-1 13 -1.5 22t-0.5 16q1 57 16.5 111.5t39.5 97t52.5 68.5t55.5 26t40 -14.5t12 -47.5q0 -24 -10.5 -57t-30 -70.5t-47.5 -75t-65 -70.5q3 -11 7.5 -20t12 -16.5t18.5 -11.5
t29 -4q28 0 53.5 12.5t47.5 33t39.5 47t30 54.5t19.5 56t8 51q0 26 -9.5 39.5t-21 23t-21 19.5t-9.5 29q0 15 11.5 28.5t32.5 13.5q18 0 31 -9t21.5 -24t12.5 -34t4 -39q-1 -63 -23.5 -127.5t-60 -116t-87.5 -84.5t-106 -33q-27 0 -44 7t-27 17.5t-15 22.5t-7 22
q-9 -8 -25 -19.5t-36.5 -22.5t-44.5 -19t-50 -8q-32 0 -51.5 9t-30.5 22.5t-14.5 29.5t-3.5 31q0 25 7.5 47.5t19.5 42.5t27 38.5t30 35.5q29 34 62.5 70t59.5 65h-119zM396 139q21 21 39.5 49t32 58t22 59.5t8.5 53.5q0 17 -4 27.5t-16 10.5q-13 0 -27 -19t-26.5 -50
t-20.5 -70.5t-9 -79.5q0 -7 -0.5 -18.5t1.5 -20.5zM354 506l139 169q10 13 19 18t19 5q12 0 20.5 -6.5t10.5 -22.5l28 -176l-33 -7l-43 129l-136 -130z" />
    <glyph glyph-name="Ycircumflex" unicode="&#x176;" horiz-adv-x="687" 
d="M153 0l11 32l45 4q35 4 49 45l78 229l-90 251q-9 26 -20.5 41.5t-25 24t-30 11.5t-35.5 3l11 32h257l-11 -32q-36 0 -50 -9t-14 -26q0 -9 3 -21t8 -26l68 -201l171 185q23 26 32.5 41.5t9.5 28.5q0 16 -16.5 22t-47.5 6l11 32h255l-11 -32q-22 -1 -42.5 -6t-43 -18
t-48 -34.5t-56.5 -55.5l-194 -210l-59 -177q-12 -35 -16.5 -49.5t-4.5 -25.5t9.5 -19.5t26.5 -10.5l52 -3l-12 -32h-270zM382 721l-21 25l129 118q9 8 18 14.5t19 6.5q12 0 18 -6.5t11 -15.5l66 -123l-29 -17l-79 93z" />
    <glyph glyph-name="ycircumflex" unicode="&#x177;" horiz-adv-x="471" 
d="M40 279q12 33 26 64.5t30.5 55.5t36.5 38.5t45 14.5q28 0 45.5 -23t25.5 -65q6 -30 10.5 -69t8 -82t6 -87t3.5 -84q24 36 45 74t36.5 74t24.5 67.5t9 54.5q0 19 -3.5 31.5t-7 23t-7 20.5t-3.5 23q0 20 12.5 33t35.5 13t35 -14t12 -37q0 -25 -10 -64t-28.5 -86t-44.5 -99
t-56.5 -102.5t-65.5 -97t-72 -81.5q-38 -37 -83.5 -59t-87.5 -22t-59 16.5t-17 34.5q0 19 14 32t31 13t26.5 -7t17 -15t15 -15t20.5 -7q14 0 31.5 8.5t36 23t37 34t35.5 41.5q0 43 -2 95.5t-5.5 104.5t-8 98.5t-9.5 77.5q-4 22 -8 35.5t-7.5 20.5t-8 9t-10.5 2
q-9 0 -19.5 -12.5t-20.5 -31.5t-19.5 -41t-16.5 -41zM180 506l139 169q10 13 19 18t19 5q12 0 20.5 -6.5t10.5 -22.5l28 -176l-33 -7l-43 129l-136 -130z" />
    <glyph glyph-name="Ydieresis" unicode="&#x178;" horiz-adv-x="687" 
d="M153 0l11 32l45 4q35 4 49 45l78 229l-90 251q-9 26 -20.5 41.5t-25 24t-30 11.5t-35.5 3l11 32h257l-11 -32q-36 0 -50 -9t-14 -26q0 -9 3 -21t8 -26l68 -201l171 185q23 26 32.5 41.5t9.5 28.5q0 16 -16.5 22t-47.5 6l11 32h255l-11 -32q-22 -1 -42.5 -6t-43 -18
t-48 -34.5t-56.5 -55.5l-194 -210l-59 -177q-12 -35 -16.5 -49.5t-4.5 -25.5t9.5 -19.5t26.5 -10.5l52 -3l-12 -32h-270zM547 796q0 21 14 37t39 16q17 0 28.5 -11.5t11.5 -28.5q0 -20 -15 -36.5t-38 -16.5q-19 0 -29.5 11.5t-10.5 28.5zM365 796q0 21 14 37t39 16
q17 0 28.5 -11.5t11.5 -28.5q0 -20 -15 -36.5t-38 -16.5q-19 0 -29.5 11.5t-10.5 28.5z" />
    <glyph glyph-name="Zacute" unicode="&#x179;" horiz-adv-x="590" 
d="M-17 0l15 45l502 585h-234q-8 0 -13 -3t-10 -8l-98 -116h-38l79 170h434l-15 -45l-500 -584h308q8 0 13 3t10 8l98 115h38l-79 -170h-510zM396 722l-21 25l134 130q11 11 18 14t15 3q14 0 23 -10.5t9 -21.5q0 -9 -4.5 -17t-16.5 -16z" />
    <glyph glyph-name="zacute" unicode="&#x17a;" horiz-adv-x="437" 
d="M136 133q28 -15 47 -30.5t35.5 -28.5t33.5 -21.5t40 -8.5q12 0 24.5 6t22.5 16t16 23t6 27q0 18 -13 18q-9 0 -17.5 -5.5t-24.5 -5.5q-17 0 -26 11t-9 25q0 18 14 29.5t39 11.5q28 0 49.5 -18.5t21.5 -52.5q0 -31 -12.5 -56.5t-33 -43.5t-47 -28t-55.5 -10q-30 0 -54 14
t-45 31t-38.5 31t-33.5 14q-20 0 -34 -18t-24 -39q-9 -19 -20.5 -26t-22.5 -7q-25 0 -25 23t27 46q14 12 40.5 31.5t60.5 46.5l252 200q-23 10 -41 20.5t-34.5 19.5t-33 14.5t-37.5 5.5q-26 0 -44 -16t-18 -35q0 -11 5 -15t19 -4q16 0 24 -10t8 -23q0 -20 -14 -30t-32 -10
q-25 0 -38 18t-13 44t11 48.5t29.5 39.5t43.5 26.5t54 9.5q30 0 54 -7.5t44 -17t36.5 -17t33.5 -7.5q15 0 26 10.5t15 24.5q10 29 33 29q26 0 26 -21q0 -17 -15 -27q-6 -4 -15.5 -12t-21 -18.5t-24 -21.5t-23.5 -20zM401 672q7 11 14 14t15 3q15 0 25 -9t10 -24
q0 -14 -16 -30l-132 -137l-26 21z" />
    <glyph glyph-name="Zdotaccent" unicode="&#x17b;" horiz-adv-x="590" 
d="M-17 0l15 45l502 585h-234q-8 0 -13 -3t-10 -8l-98 -116h-38l79 170h434l-15 -45l-500 -584h308q8 0 13 3t10 8l98 115h38l-79 -170h-510zM381 804q0 23 16 41t43 18q20 0 32.5 -12.5t12.5 -31.5q0 -23 -16.5 -41.5t-42.5 -18.5q-22 0 -33.5 13.5t-11.5 31.5z" />
    <glyph glyph-name="zdotaccent" unicode="&#x17c;" horiz-adv-x="437" 
d="M136 133q28 -15 47 -30.5t35.5 -28.5t33.5 -21.5t40 -8.5q12 0 24.5 6t22.5 16t16 23t6 27q0 18 -13 18q-9 0 -17.5 -5.5t-24.5 -5.5q-17 0 -26 11t-9 25q0 18 14 29.5t39 11.5q28 0 49.5 -18.5t21.5 -52.5q0 -31 -12.5 -56.5t-33 -43.5t-47 -28t-55.5 -10q-30 0 -54 14
t-45 31t-38.5 31t-33.5 14q-20 0 -34 -18t-24 -39q-9 -19 -20.5 -26t-22.5 -7q-25 0 -25 23t27 46q14 12 40.5 31.5t60.5 46.5l252 200q-23 10 -41 20.5t-34.5 19.5t-33 14.5t-37.5 5.5q-26 0 -44 -16t-18 -35q0 -11 5 -15t19 -4q16 0 24 -10t8 -23q0 -20 -14 -30t-32 -10
q-25 0 -38 18t-13 44t11 48.5t29.5 39.5t43.5 26.5t54 9.5q30 0 54 -7.5t44 -17t36.5 -17t33.5 -7.5q15 0 26 10.5t15 24.5q10 29 33 29q26 0 26 -21q0 -17 -15 -27q-6 -4 -15.5 -12t-21 -18.5t-24 -21.5t-23.5 -20zM288 575q0 23 16 41t43 18q20 0 32.5 -12.5t12.5 -31.5
q0 -23 -16.5 -41.5t-42.5 -18.5q-22 0 -33.5 13.5t-11.5 31.5z" />
    <glyph glyph-name="Zcaron" unicode="&#x17d;" horiz-adv-x="590" 
d="M-17 0l15 45l502 585h-234q-8 0 -13 -3t-10 -8l-98 -116h-38l79 170h434l-15 -45l-500 -584h308q8 0 13 3t10 8l98 115h38l-79 -170h-510zM327 878l29 17l79 -93l132 95l21 -25l-129 -118q-9 -8 -18 -14.5t-19 -6.5q-12 0 -18 6.5t-11 15.5z" />
    <glyph glyph-name="zcaron" unicode="&#x17e;" horiz-adv-x="437" 
d="M136 133q28 -15 47 -30.5t35.5 -28.5t33.5 -21.5t40 -8.5q12 0 24.5 6t22.5 16t16 23t6 27q0 18 -13 18q-9 0 -17.5 -5.5t-24.5 -5.5q-17 0 -26 11t-9 25q0 18 14 29.5t39 11.5q28 0 49.5 -18.5t21.5 -52.5q0 -31 -12.5 -56.5t-33 -43.5t-47 -28t-55.5 -10q-30 0 -54 14
t-45 31t-38.5 31t-33.5 14q-20 0 -34 -18t-24 -39q-9 -19 -20.5 -26t-22.5 -7q-25 0 -25 23t27 46q14 12 40.5 31.5t60.5 46.5l252 200q-23 10 -41 20.5t-34.5 19.5t-33 14.5t-37.5 5.5q-26 0 -44 -16t-18 -35q0 -11 5 -15t19 -4q16 0 24 -10t8 -23q0 -20 -14 -30t-32 -10
q-25 0 -38 18t-13 44t11 48.5t29.5 39.5t43.5 26.5t54 9.5q30 0 54 -7.5t44 -17t36.5 -17t33.5 -7.5q15 0 26 10.5t15 24.5q10 29 33 29q26 0 26 -21q0 -17 -15 -27q-6 -4 -15.5 -12t-21 -18.5t-24 -21.5t-23.5 -20zM355 508q-10 -13 -19 -18t-19 -5q-12 0 -20.5 6.5
t-10.5 22.5l-28 176l33 7l43 -129l136 130l24 -21z" />
    <glyph glyph-name="longs" unicode="&#x17f;" horiz-adv-x="190" 
d="M125 431q12 39 28 86.5t41 89.5t62 70.5t90 28.5q31 0 52.5 -13t21.5 -37q0 -21 -11.5 -32.5t-30.5 -11.5t-27.5 8t-13 17t-9.5 17t-17 8q-15 0 -28.5 -16t-24 -37t-17.5 -43t-11 -34q-10 -32 -19.5 -64t-19.5 -64l-50 -172q-14 -47 -30 -94.5t-33 -91t-34 -81t-33 -65.5
q-11 -19 -25 -36.5t-32 -31t-40 -21.5t-48 -8t-48.5 12t-22.5 36q0 21 13 31.5t30 10.5q18 0 25.5 -7t12.5 -15.5t10.5 -15.5t17.5 -7q15 0 29.5 17t27 42.5t22.5 55t18 54.5z" />
    <glyph glyph-name="florin" unicode="&#x192;" 
d="M253 386h-134l16 45h132q12 39 28 86.5t41 89.5t62 70.5t90 28.5q31 0 52.5 -13t21.5 -37q0 -21 -11.5 -32.5t-30.5 -11.5t-27.5 8t-13 17t-9.5 17t-17 8q-15 0 -28.5 -16t-24 -37t-17.5 -43t-11 -34l-31 -101h149l-16 -45h-147q-22 -66 -39 -127.5t-35.5 -121.5
t-42 -119t-57.5 -118q-11 -19 -25 -36.5t-32 -31t-40 -21.5t-48 -8t-48.5 12t-22.5 36q0 21 13 31.5t30 10.5q18 0 25.5 -7t12.5 -15.5t10.5 -15.5t17.5 -7q15 0 29.5 17t27 42.5t22.5 55t18 54.5z" />
    <glyph glyph-name="Scommaaccent" unicode="&#x218;" horiz-adv-x="541" 
d="M86 234h33q-7 -41 -5 -79.5t17 -69t46 -49t82 -18.5q53 0 86 31.5t33 90.5q0 27 -8.5 49.5t-22.5 43t-31 38.5t-35 36q-19 19 -38 39.5t-34.5 44t-25 51.5t-9.5 64q0 44 16 78.5t43 58t63 35.5t77 12q34 0 58.5 -5.5t42.5 -12t30.5 -12t21.5 -5.5q11 0 18 6t14 24h29
l-71 -226h-33q5 35 5 70t-11 63t-35.5 45.5t-67.5 17.5q-53 0 -83.5 -30.5t-30.5 -85.5q0 -43 24.5 -77t66.5 -77q21 -21 41.5 -43.5t37 -48t27 -54.5t10.5 -63q0 -43 -16.5 -78.5t-45 -61t-67.5 -39.5t-85 -14q-41 0 -69 8t-48 18t-34.5 18t-27.5 8t-20 -9.5t-14 -20.5h-29
zM128 -217q38 23 52.5 38t14.5 29q0 12 -15 15q-9 2 -21 12t-12 31q0 22 14 35t34 13q26 0 41 -19.5t15 -43.5q0 -45 -29.5 -78.5t-76.5 -58.5z" />
    <glyph glyph-name="scommaaccent" unicode="&#x219;" horiz-adv-x="326" 
d="M-30 63q0 16 10 27t26 11q17 0 28.5 -11t22.5 -32q8 -14 23 -24t44 -10q13 0 27 3t26 10t19.5 19t7.5 31q0 28 -16.5 51.5t-36 47.5t-35.5 50.5t-16 59.5q0 28 11.5 55.5t32.5 50t51 36.5t68 14q16 0 33 -4t31 -11t23 -17.5t9 -23.5t-8.5 -23t-25.5 -10q-16 0 -27 7.5
t-21.5 16.5t-22.5 16.5t-30 7.5q-11 0 -22.5 -5t-20.5 -13.5t-15 -20.5t-6 -27q0 -26 16.5 -51.5t36.5 -52t36.5 -54.5t16.5 -59q0 -29 -10.5 -54t-30 -43.5t-49 -29t-66.5 -10.5q-63 0 -101.5 21.5t-38.5 50.5zM9 -217q38 23 52.5 38t14.5 29q0 12 -15 15q-9 2 -21 12
t-12 31q0 22 14 35t34 13q26 0 41 -19.5t15 -43.5q0 -45 -29.5 -78.5t-76.5 -58.5z" />
    <glyph glyph-name="uni021A" unicode="&#x21a;" horiz-adv-x="620" 
d="M101 32l60 4q35 3 49 45l184 549h-131q-12 0 -23 -11l-91 -111h-34l57 165h560l-50 -165h-30l-18 106q-2 8 -6 12t-13 4h-132l-162 -488q-11 -35 -16 -50t-5 -26t7.5 -18.5t28.5 -9.5l70 -6l-12 -32h-304zM136 -217q38 23 52.5 38t14.5 29q0 12 -15 15q-9 2 -21 12
t-12 31q0 22 14 35t34 13q26 0 41 -19.5t15 -43.5q0 -45 -29.5 -78.5t-76.5 -58.5z" />
    <glyph glyph-name="uni021B" unicode="&#x21b;" horiz-adv-x="293" 
d="M163 386h-61l16 45h65l35 87l73 23l8 -8l-44 -102h93l-14 -45h-98l-131 -302q-5 -10 -6 -19.5t8 -9.5q10 0 27 10t34.5 24t33 28t23.5 22l21 -20q-13 -15 -37 -36.5t-52 -40.5t-58 -32.5t-55 -13.5q-14 0 -22.5 9t-8.5 23q0 11 6 28zM-48 -217q38 23 52.5 38t14.5 29
q0 12 -15 15q-9 2 -21 12t-12 31q0 22 14 35t34 13q26 0 41 -19.5t15 -43.5q0 -45 -29.5 -78.5t-76.5 -58.5z" />
    <glyph glyph-name="dotlessj" unicode="&#x237;" horiz-adv-x="257" 
d="M163 334q6 15 9.5 28t3.5 19q0 13 -10 13q-6 0 -17.5 -9t-25 -23t-28 -32t-27.5 -37l-23 15q17 26 43 57t50 52q26 23 45 29t31 6q17 0 30 -11.5t13 -34.5q0 -15 -8.5 -40t-16.5 -44l-142 -340q-41 -96 -92 -137.5t-99 -41.5q-37 0 -57 13.5t-20 39.5q0 23 13 35t30 12
t28 -7.5t11 -26.5q0 -10 0.5 -19.5t14.5 -9.5q13 0 25 9.5t23 25t21 35.5t19 42z" />
    <glyph glyph-name="apostrophe" unicode="&#x2bc;" horiz-adv-x="250" 
d="M52 581q57 40 57 75q0 9 -4.5 12t-10.5 4q-10 2 -21.5 10t-11.5 28q0 21 13 32.5t33 11.5q23 0 36.5 -16.5t13.5 -42.5q0 -44 -25 -78.5t-63 -58.5z" />
    <glyph glyph-name="circumflex" unicode="&#x2c6;" horiz-adv-x="500" 
d="M99 506l139 169q10 13 19 18t19 5q12 0 20.5 -6.5t10.5 -22.5l28 -176l-33 -7l-43 129l-136 -130z" />
    <glyph glyph-name="caron" unicode="&#x2c7;" horiz-adv-x="500" 
d="M280 508q-10 -13 -19 -18t-19 -5q-12 0 -20.5 6.5t-10.5 22.5l-28 176l33 7l43 -129l136 130l24 -21z" />
    <glyph glyph-name="uni02C9" unicode="&#x2c9;" horiz-adv-x="500" 
d="M129 620h247l-19 -56h-247z" />
    <glyph glyph-name="breve" unicode="&#x2d8;" horiz-adv-x="500" 
d="M168 682q-2 -45 17.5 -71t66.5 -26t82 28.5t55 72.5l32 -10q-26 -77 -74.5 -113t-102.5 -36q-62 0 -93 37t-21 118h38z" />
    <glyph glyph-name="dotaccent" unicode="&#x2d9;" horiz-adv-x="500" 
d="M196 575q0 23 16 41t43 18q20 0 32.5 -12.5t12.5 -31.5q0 -23 -16.5 -41.5t-42.5 -18.5q-22 0 -33.5 13.5t-11.5 31.5z" />
    <glyph glyph-name="ring" unicode="&#x2da;" horiz-adv-x="500" 
d="M162 620q0 36 26 61.5t62 25.5q18 0 34 -7t28.5 -18.5t19.5 -27.5t7 -34q0 -36 -26.5 -61t-62.5 -25t-62 25t-26 61zM250 568q23 0 37 14.5t14 37.5t-14 38t-37 15t-36.5 -15t-13.5 -38t13.5 -37.5t36.5 -14.5z" />
    <glyph glyph-name="ogonek" unicode="&#x2db;" horiz-adv-x="500" 
d="M349 -147q-8 -13 -18.5 -25.5t-24 -22.5t-31 -16t-40.5 -6q-38 0 -59 17t-21 52q0 25 11 47.5t28.5 42t40 37t45.5 33.5l40 1q-15 -12 -32 -27.5t-32 -34t-25 -39.5t-10 -43q0 -19 11.5 -28.5t28.5 -9.5q23 0 38 12.5t25 26.5z" />
    <glyph glyph-name="tilde" unicode="&#x2dc;" horiz-adv-x="500" 
d="M74 551q21 51 46.5 75t60.5 24q22 0 43.5 -8t41.5 -18t38.5 -18t33.5 -8q13 0 21.5 5.5t14.5 13.5t10 17t7 17l32 -12q-17 -48 -40 -71.5t-62 -23.5q-23 0 -44 8t-41 17.5t-38 17.5t-35 8q-12 0 -21 -6t-16 -15t-12 -19t-8 -17z" />
    <glyph glyph-name="hungarumlaut" unicode="&#x2dd;" horiz-adv-x="500" 
d="M220 672q7 11 14 14t15 3q15 0 25 -9t10 -24q0 -14 -16 -30l-132 -137l-26 21zM366 672q7 11 14 14t15 3q15 0 25 -9t10 -24q0 -14 -16 -30l-132 -137l-26 21z" />
    <glyph glyph-name="pi" unicode="&#x3c0;" horiz-adv-x="559" 
d="M215 373h-49q-23 0 -34.5 -9t-25.5 -25h-36l66 104h445l-34 -70h-97l-50 -131q-20 -54 -29.5 -86t-9.5 -57q0 -18 10 -30.5t30 -12.5q15 0 25 4t17.5 10.5t12.5 14.5t9 15h29q-5 -15 -15 -34t-26.5 -35.5t-38.5 -28t-49 -11.5q-38 0 -53.5 18t-15.5 51q0 23 11.5 58.5
t25.5 70.5l71 184h-140l-83 -206q-22 -55 -42.5 -89t-41 -53.5t-42 -26.5t-46.5 -7q-73 0 -73 53q0 23 12.5 35t30.5 12q32 0 35 -30q1 -10 1.5 -19.5t14.5 -9.5q26 0 48.5 30.5t40.5 74.5z" />
    <glyph glyph-name="Wgrave" unicode="&#x1e80;" horiz-adv-x="915" 
d="M180 -17l31 580q1 28 -3.5 43.5t-14 23t-24.5 9.5t-34 2l11 32h243l-11 -32q-28 0 -43.5 -5t-23.5 -15t-10.5 -26t-3.5 -37l-25 -429l232 343l6 99q2 42 -9 56t-50 14l11 32h243l-11 -32q-32 0 -50.5 -5t-29 -15t-14.5 -26t-5 -37l-24 -414l233 356q9 15 19.5 30t18.5 30
t13.5 28t5.5 24q0 29 -60 29l11 32h238l-11 -32q-22 -1 -40.5 -5.5t-37 -16.5t-39.5 -35t-47 -61l-356 -540h-46l25 402l-272 -402h-46zM475 829q-12 8 -16.5 16t-4.5 17q0 11 9 21.5t23 10.5q8 0 15 -3t18 -14l134 -130l-21 -25z" />
    <glyph glyph-name="wgrave" unicode="&#x1e81;" horiz-adv-x="729" 
d="M179 382q-48 0 -68.5 -15.5t-20.5 -36.5q0 -5 2 -8.5t7 -3.5t7.5 2.5t5 6t6.5 6t12 2.5q14 0 20 -8t6 -19q0 -20 -13 -29.5t-32 -9.5q-28 0 -39.5 16.5t-11.5 38.5q0 16 8.5 37t28 39t50 30.5t74.5 12.5h157l7 -9q-7 -9 -19 -23.5t-24.5 -29t-23.5 -27.5t-17 -20
q-15 -19 -37.5 -44t-44 -54t-37 -60t-15.5 -61q-1 -26 13 -45t50 -19q35 0 63.5 14.5t46.5 31.5q-1 13 -1.5 22t-0.5 16q1 57 16.5 111.5t39.5 97t52.5 68.5t55.5 26t40 -14.5t12 -47.5q0 -24 -10.5 -57t-30 -70.5t-47.5 -75t-65 -70.5q3 -11 7.5 -20t12 -16.5t18.5 -11.5
t29 -4q28 0 53.5 12.5t47.5 33t39.5 47t30 54.5t19.5 56t8 51q0 26 -9.5 39.5t-21 23t-21 19.5t-9.5 29q0 15 11.5 28.5t32.5 13.5q18 0 31 -9t21.5 -24t12.5 -34t4 -39q-1 -63 -23.5 -127.5t-60 -116t-87.5 -84.5t-106 -33q-27 0 -44 7t-27 17.5t-15 22.5t-7 22
q-9 -8 -25 -19.5t-36.5 -22.5t-44.5 -19t-50 -8q-32 0 -51.5 9t-30.5 22.5t-14.5 29.5t-3.5 31q0 25 7.5 47.5t19.5 42.5t27 38.5t30 35.5q29 34 62.5 70t59.5 65h-119zM396 139q21 21 39.5 49t32 58t22 59.5t8.5 53.5q0 17 -4 27.5t-16 10.5q-13 0 -27 -19t-26.5 -50
t-20.5 -70.5t-9 -79.5q0 -7 -0.5 -18.5t1.5 -20.5zM479 489l-132 137q-16 16 -16 30q0 15 10 24t25 9q8 0 15 -3t14 -14l110 -162z" />
    <glyph glyph-name="Wacute" unicode="&#x1e82;" horiz-adv-x="915" 
d="M180 -17l31 580q1 28 -3.5 43.5t-14 23t-24.5 9.5t-34 2l11 32h243l-11 -32q-28 0 -43.5 -5t-23.5 -15t-10.5 -26t-3.5 -37l-25 -429l232 343l6 99q2 42 -9 56t-50 14l11 32h243l-11 -32q-32 0 -50.5 -5t-29 -15t-14.5 -26t-5 -37l-24 -414l233 356q9 15 19.5 30t18.5 30
t13.5 28t5.5 24q0 29 -60 29l11 32h238l-11 -32q-22 -1 -40.5 -5.5t-37 -16.5t-39.5 -35t-47 -61l-356 -540h-46l25 402l-272 -402h-46zM578 722l-21 25l134 130q11 11 18 14t15 3q14 0 23 -10.5t9 -21.5q0 -9 -4.5 -17t-16.5 -16z" />
    <glyph glyph-name="wacute" unicode="&#x1e83;" horiz-adv-x="729" 
d="M179 382q-48 0 -68.5 -15.5t-20.5 -36.5q0 -5 2 -8.5t7 -3.5t7.5 2.5t5 6t6.5 6t12 2.5q14 0 20 -8t6 -19q0 -20 -13 -29.5t-32 -9.5q-28 0 -39.5 16.5t-11.5 38.5q0 16 8.5 37t28 39t50 30.5t74.5 12.5h157l7 -9q-7 -9 -19 -23.5t-24.5 -29t-23.5 -27.5t-17 -20
q-15 -19 -37.5 -44t-44 -54t-37 -60t-15.5 -61q-1 -26 13 -45t50 -19q35 0 63.5 14.5t46.5 31.5q-1 13 -1.5 22t-0.5 16q1 57 16.5 111.5t39.5 97t52.5 68.5t55.5 26t40 -14.5t12 -47.5q0 -24 -10.5 -57t-30 -70.5t-47.5 -75t-65 -70.5q3 -11 7.5 -20t12 -16.5t18.5 -11.5
t29 -4q28 0 53.5 12.5t47.5 33t39.5 47t30 54.5t19.5 56t8 51q0 26 -9.5 39.5t-21 23t-21 19.5t-9.5 29q0 15 11.5 28.5t32.5 13.5q18 0 31 -9t21.5 -24t12.5 -34t4 -39q-1 -63 -23.5 -127.5t-60 -116t-87.5 -84.5t-106 -33q-27 0 -44 7t-27 17.5t-15 22.5t-7 22
q-9 -8 -25 -19.5t-36.5 -22.5t-44.5 -19t-50 -8q-32 0 -51.5 9t-30.5 22.5t-14.5 29.5t-3.5 31q0 25 7.5 47.5t19.5 42.5t27 38.5t30 35.5q29 34 62.5 70t59.5 65h-119zM396 139q21 21 39.5 49t32 58t22 59.5t8.5 53.5q0 17 -4 27.5t-16 10.5q-13 0 -27 -19t-26.5 -50
t-20.5 -70.5t-9 -79.5q0 -7 -0.5 -18.5t1.5 -20.5zM546 672q7 11 14 14t15 3q15 0 25 -9t10 -24q0 -14 -16 -30l-132 -137l-26 21z" />
    <glyph glyph-name="Wdieresis" unicode="&#x1e84;" horiz-adv-x="915" 
d="M180 -17l31 580q1 28 -3.5 43.5t-14 23t-24.5 9.5t-34 2l11 32h243l-11 -32q-28 0 -43.5 -5t-23.5 -15t-10.5 -26t-3.5 -37l-25 -429l232 343l6 99q2 42 -9 56t-50 14l11 32h243l-11 -32q-32 0 -50.5 -5t-29 -15t-14.5 -26t-5 -37l-24 -414l233 356q9 15 19.5 30t18.5 30
t13.5 28t5.5 24q0 29 -60 29l11 32h238l-11 -32q-22 -1 -40.5 -5.5t-37 -16.5t-39.5 -35t-47 -61l-356 -540h-46l25 402l-272 -402h-46zM643 796q0 21 14 37t39 16q17 0 28.5 -11.5t11.5 -28.5q0 -20 -15 -36.5t-38 -16.5q-19 0 -29.5 11.5t-10.5 28.5zM461 796q0 21 14 37
t39 16q17 0 28.5 -11.5t11.5 -28.5q0 -20 -15 -36.5t-38 -16.5q-19 0 -29.5 11.5t-10.5 28.5z" />
    <glyph glyph-name="wdieresis" unicode="&#x1e85;" horiz-adv-x="729" 
d="M179 382q-48 0 -68.5 -15.5t-20.5 -36.5q0 -5 2 -8.5t7 -3.5t7.5 2.5t5 6t6.5 6t12 2.5q14 0 20 -8t6 -19q0 -20 -13 -29.5t-32 -9.5q-28 0 -39.5 16.5t-11.5 38.5q0 16 8.5 37t28 39t50 30.5t74.5 12.5h157l7 -9q-7 -9 -19 -23.5t-24.5 -29t-23.5 -27.5t-17 -20
q-15 -19 -37.5 -44t-44 -54t-37 -60t-15.5 -61q-1 -26 13 -45t50 -19q35 0 63.5 14.5t46.5 31.5q-1 13 -1.5 22t-0.5 16q1 57 16.5 111.5t39.5 97t52.5 68.5t55.5 26t40 -14.5t12 -47.5q0 -24 -10.5 -57t-30 -70.5t-47.5 -75t-65 -70.5q3 -11 7.5 -20t12 -16.5t18.5 -11.5
t29 -4q28 0 53.5 12.5t47.5 33t39.5 47t30 54.5t19.5 56t8 51q0 26 -9.5 39.5t-21 23t-21 19.5t-9.5 29q0 15 11.5 28.5t32.5 13.5q18 0 31 -9t21.5 -24t12.5 -34t4 -39q-1 -63 -23.5 -127.5t-60 -116t-87.5 -84.5t-106 -33q-27 0 -44 7t-27 17.5t-15 22.5t-7 22
q-9 -8 -25 -19.5t-36.5 -22.5t-44.5 -19t-50 -8q-32 0 -51.5 9t-30.5 22.5t-14.5 29.5t-3.5 31q0 25 7.5 47.5t19.5 42.5t27 38.5t30 35.5q29 34 62.5 70t59.5 65h-119zM396 139q21 21 39.5 49t32 58t22 59.5t8.5 53.5q0 17 -4 27.5t-16 10.5q-13 0 -27 -19t-26.5 -50
t-20.5 -70.5t-9 -79.5q0 -7 -0.5 -18.5t1.5 -20.5zM530 595q0 21 14 37t39 16q17 0 28.5 -11.5t11.5 -28.5q0 -20 -15 -36.5t-38 -16.5q-19 0 -29.5 11.5t-10.5 28.5zM348 595q0 21 14 37t39 16q17 0 28.5 -11.5t11.5 -28.5q0 -20 -15 -36.5t-38 -16.5q-19 0 -29.5 11.5
t-10.5 28.5z" />
    <glyph glyph-name="Ygrave" unicode="&#x1ef2;" horiz-adv-x="687" 
d="M153 0l11 32l45 4q35 4 49 45l78 229l-90 251q-9 26 -20.5 41.5t-25 24t-30 11.5t-35.5 3l11 32h257l-11 -32q-36 0 -50 -9t-14 -26q0 -9 3 -21t8 -26l68 -201l171 185q23 26 32.5 41.5t9.5 28.5q0 16 -16.5 22t-47.5 6l11 32h255l-11 -32q-22 -1 -42.5 -6t-43 -18
t-48 -34.5t-56.5 -55.5l-194 -210l-59 -177q-12 -35 -16.5 -49.5t-4.5 -25.5t9.5 -19.5t26.5 -10.5l52 -3l-12 -32h-270zM372 829q-12 8 -16.5 16t-4.5 17q0 11 9 21.5t23 10.5q8 0 15 -3t18 -14l134 -130l-21 -25z" />
    <glyph glyph-name="ygrave" unicode="&#x1ef3;" horiz-adv-x="471" 
d="M40 279q12 33 26 64.5t30.5 55.5t36.5 38.5t45 14.5q28 0 45.5 -23t25.5 -65q6 -30 10.5 -69t8 -82t6 -87t3.5 -84q24 36 45 74t36.5 74t24.5 67.5t9 54.5q0 19 -3.5 31.5t-7 23t-7 20.5t-3.5 23q0 20 12.5 33t35.5 13t35 -14t12 -37q0 -25 -10 -64t-28.5 -86t-44.5 -99
t-56.5 -102.5t-65.5 -97t-72 -81.5q-38 -37 -83.5 -59t-87.5 -22t-59 16.5t-17 34.5q0 19 14 32t31 13t26.5 -7t17 -15t15 -15t20.5 -7q14 0 31.5 8.5t36 23t37 34t35.5 41.5q0 43 -2 95.5t-5.5 104.5t-8 98.5t-9.5 77.5q-4 22 -8 35.5t-7.5 20.5t-8 9t-10.5 2
q-9 0 -19.5 -12.5t-20.5 -31.5t-19.5 -41t-16.5 -41zM320 489l-132 137q-16 16 -16 30q0 15 10 24t25 9q8 0 15 -3t14 -14l110 -162z" />
    <glyph glyph-name="endash" unicode="&#x2013;" horiz-adv-x="500" 
d="M11 279h500l-21 -56h-500z" />
    <glyph glyph-name="emdash" unicode="&#x2014;" horiz-adv-x="1000" 
d="M11 279h1000l-21 -56h-1000z" />
    <glyph glyph-name="quoteleft" unicode="&#x2018;" horiz-adv-x="260" 
d="M320 689q-11 -9 -24.5 -21.5t-25.5 -26.5t-20.5 -29t-8.5 -28q0 -11 5 -14.5t10 -4.5q16 -2 27 -12t11 -31q0 -25 -15 -38t-38 -13q-26 0 -41 19.5t-15 47.5q0 54 33.5 96.5t80.5 77.5z" />
    <glyph glyph-name="quoteright" unicode="&#x2019;" horiz-adv-x="260" 
d="M180 488q10 9 24 21.5t26 26.5t20.5 29t8.5 28q0 11 -5 14.5t-10 4.5q-16 2 -27 12t-11 31q0 25 15 38t38 13q26 0 41 -19.5t15 -47.5q0 -54 -33.5 -96.5t-80.5 -77.5z" />
    <glyph glyph-name="quotesinglbase" unicode="&#x201a;" horiz-adv-x="260" 
d="M-9 -134q10 9 24 21.5t26 26.5t20.5 29t8.5 28q0 11 -5 14.5t-10 4.5q-16 2 -27 12t-11 31q0 25 15 38t38 13q26 0 41 -19.5t15 -47.5q0 -54 -33.5 -96.5t-80.5 -77.5z" />
    <glyph glyph-name="quotedblleft" unicode="&#x201c;" horiz-adv-x="366" 
d="M292 689q-11 -9 -24.5 -21.5t-25.5 -26.5t-20.5 -29t-8.5 -28q0 -11 5 -14.5t10 -4.5q16 -2 27 -12t11 -31q0 -25 -15 -38t-38 -13q-26 0 -41 19.5t-15 47.5q0 54 33.5 96.5t80.5 77.5zM455 689q-11 -9 -24.5 -21.5t-25.5 -26.5t-20.5 -29t-8.5 -28q0 -11 5 -14.5
t10 -4.5q16 -2 27 -12t11 -31q0 -25 -15 -38t-38 -13q-26 0 -41 19.5t-15 47.5q0 54 33.5 96.5t80.5 77.5z" />
    <glyph glyph-name="quotedblright" unicode="&#x201d;" horiz-adv-x="366" 
d="M152 488q10 9 24 21.5t26 26.5t20.5 29t8.5 28q0 11 -5 14.5t-10 4.5q-16 2 -27 12t-11 31q0 25 15 38t38 13q26 0 41 -19.5t15 -47.5q0 -54 -33.5 -96.5t-80.5 -77.5zM315 488q10 9 24 21.5t26 26.5t20.5 29t8.5 28q0 11 -5 14.5t-10 4.5q-16 2 -27 12t-11 31
q0 25 15 38t38 13q26 0 41 -19.5t15 -47.5q0 -54 -33.5 -96.5t-80.5 -77.5z" />
    <glyph glyph-name="quotedblbase" unicode="&#x201e;" horiz-adv-x="366" 
d="M-9 -134q10 9 24 21.5t26 26.5t20.5 29t8.5 28q0 11 -5 14.5t-10 4.5q-16 2 -27 12t-11 31q0 25 15 38t38 13q26 0 41 -19.5t15 -47.5q0 -54 -33.5 -96.5t-80.5 -77.5zM156 -134q10 9 24 21.5t26 26.5t20.5 29t8.5 28q0 11 -5 14.5t-10 4.5q-16 2 -27 12t-11 31
q0 25 15 38t38 13q26 0 41 -19.5t15 -47.5q0 -54 -33.5 -96.5t-80.5 -77.5z" />
    <glyph glyph-name="dagger" unicode="&#x2020;" horiz-adv-x="412" 
d="M66 -108q40 115 71.5 232t46.5 220q26 34 47 67.5t38 71.5l-17 -1q-20 -1 -33.5 -5t-24.5 -8.5t-22 -8t-27 -3.5q-19 0 -31.5 12t-12.5 29q0 22 14.5 37.5t43.5 15.5q15 0 27 -4t23 -9t24 -10.5t31 -9.5l15 -3l7 22q5 17 7.5 37.5t2.5 31.5q0 16 1 34t6.5 32.5t17 24
t33.5 9.5q23 0 34.5 -10t11.5 -25q0 -18 -9.5 -34.5t-22.5 -33t-26.5 -34t-21.5 -38.5l-6 -16l16 2q17 2 31 7.5t26 11.5t24.5 10.5t26.5 4.5q25 0 35 -11t10 -27q0 -26 -15.5 -41t-43.5 -15q-16 0 -26.5 3t-21 7t-23 8t-31.5 6l-20 2q-8 -32 -12 -70.5t-2 -74.5
q-26 -51 -50 -106.5t-47.5 -113t-45 -115t-41.5 -111.5h-38z" />
    <glyph glyph-name="daggerdbl" unicode="&#x2021;" horiz-adv-x="449" 
d="M161 83l-16 -2q-17 -2 -31 -7.5t-26 -11.5t-24.5 -10.5t-26.5 -4.5q-25 0 -35 11t-10 27q0 26 15.5 41t43.5 15q16 0 26.5 -3t21 -7t22.5 -8t32 -6l20 -2q4 16 7.5 40.5t6 52t4 54t1.5 47.5q13 17 26 39t25 46t23 47t20 42l-17 -1q-20 -1 -33.5 -5t-24.5 -8.5t-22 -8
t-27 -3.5q-19 0 -31.5 12t-12.5 29q0 22 14.5 37.5t43.5 15.5q15 0 27 -4t23 -9t24 -10.5t31 -9.5l15 -3l7 22q5 17 7.5 37.5t2.5 31.5q0 16 1 34t6.5 32.5t17 24t33.5 9.5q23 0 34.5 -10t11.5 -25q0 -18 -9.5 -34.5t-22.5 -33t-26.5 -34t-21.5 -38.5l-6 -16l16 2
q17 2 31 7.5t26 11.5t24.5 10.5t26.5 4.5q25 0 35 -11t10 -27q0 -26 -15.5 -41t-43.5 -15q-16 0 -26.5 3t-21 7.5t-23 8t-31.5 5.5l-19 2q-4 -16 -8 -38.5t-7.5 -47.5t-6 -49.5t-3.5 -45.5q-11 -18 -23 -42t-24 -49.5t-23 -50t-20 -45.5l18 1q20 1 33.5 5t24.5 8.5t22 8
t27 3.5q19 0 31.5 -12t12.5 -29q0 -22 -14.5 -37.5t-43.5 -15.5q-15 0 -27 3.5t-23 9t-24 11t-31 9.5l-15 3l-7 -22q-5 -17 -7.5 -37.5t-2.5 -31.5q0 -17 -1 -34.5t-6.5 -32t-17 -24t-33.5 -9.5q-23 0 -34.5 10t-11.5 25q0 18 9.5 34.5t22.5 33t26.5 34t21.5 38.5z" />
    <glyph glyph-name="bullet" unicode="&#x2022;" horiz-adv-x="402" 
d="M193 173q-4 0 -5.5 7.5t-9.5 22.5q-8 14 -15.5 27.5t-17.5 26.5q-10 12 -21.5 23t-22.5 20q-14 11 -20 13.5t-6 6.5t8 7t25 13q16 10 32 20.5t30 22.5q14 13 27.5 26.5t25.5 27.5q14 15 18.5 22.5t8.5 7.5t5.5 -7.5t9.5 -22.5q8 -14 15.5 -27.5t17.5 -26.5
q10 -12 21.5 -23t22.5 -20q14 -11 20.5 -13.5t6.5 -6.5t-8.5 -6.5t-25.5 -13.5q-34 -19 -62 -43q-14 -13 -27.5 -26.5t-25.5 -27.5q-14 -15 -18.5 -22.5t-8.5 -7.5z" />
    <glyph glyph-name="ellipsis" unicode="&#x2026;" horiz-adv-x="798" 
d="M-1 41q0 26 17.5 45.5t47.5 19.5q22 0 36 -14t14 -35q0 -25 -18.5 -45.5t-46.5 -20.5q-24 0 -37 15t-13 35zM278 41q0 26 17.5 45.5t47.5 19.5q22 0 36 -14t14 -35q0 -25 -18.5 -45.5t-46.5 -20.5q-24 0 -37 15t-13 35zM555 41q0 26 17.5 45.5t47.5 19.5q22 0 36 -14
t14 -35q0 -25 -18.5 -45.5t-46.5 -20.5q-24 0 -37 15t-13 35z" />
    <glyph glyph-name="perthousand" unicode="&#x2030;" horiz-adv-x="1023" 
d="M601 673h61l-500 -690h-61zM196 340q-41 0 -69 30t-28 88q0 37 13 75t37 69t57.5 51t74.5 20q19 0 37.5 -6t32 -18.5t22 -33t8.5 -49.5q0 -41 -13.5 -81.5t-37.5 -72.5t-58 -52t-76 -20zM208 374q26 0 46 20t33.5 51t20.5 66.5t7 67.5q0 26 -9 43t-33 17q-27 0 -47.5 -21
t-34 -51t-20 -63.5t-6.5 -58.5q0 -32 8.5 -51.5t34.5 -19.5zM489 -17q-41 0 -69 30t-28 88q0 37 13 75t37 69t57.5 51t74.5 20q19 0 37.5 -6t32 -18.5t22 -33t8.5 -49.5q0 -41 -13.5 -81.5t-37.5 -72.5t-58 -52t-76 -20zM501 17q26 0 46 20t33.5 51t20.5 66.5t7 67.5
q0 26 -9 43t-33 17q-27 0 -47.5 -21t-34 -51t-20 -63.5t-6.5 -58.5q0 -32 8.5 -51.5t34.5 -19.5zM802 -17q-41 0 -69 30t-28 88q0 37 13 75t37 69t57.5 51t74.5 20q19 0 37.5 -6t32 -18.5t22 -33t8.5 -49.5q0 -41 -13.5 -81.5t-37.5 -72.5t-58 -52t-76 -20zM814 17
q26 0 46 20t33.5 51t20.5 66.5t7 67.5q0 26 -9 43t-33 17q-27 0 -47.5 -21t-34 -51t-20 -63.5t-6.5 -58.5q0 -32 8.5 -51.5t34.5 -19.5z" />
    <glyph glyph-name="guilsinglleft" unicode="&#x2039;" horiz-adv-x="233" 
d="M45 220q-2 3 -3.5 8.5t-1.5 7.5q0 11 13 21l177 139l18 -19l-135 -149l36 -172l-27 -9z" />
    <glyph glyph-name="guilsinglright" unicode="&#x203a;" horiz-adv-x="233" 
d="M-13 66l135 149l-36 172l27 9l77 -173q2 -3 3.5 -8.5t1.5 -7.5q0 -11 -13 -21l-177 -139z" />
    <glyph glyph-name="fraction" unicode="&#x2044;" horiz-adv-x="180" 
d="M337 666h61l-492 -666h-61z" />
    <glyph glyph-name="zerosuperior" unicode="&#x2070;" horiz-adv-x="350" 
d="M193 295q-55 0 -82 33.5t-27 87.5q0 43 14.5 89t42 83t66.5 61t88 24q54 0 82 -32t28 -85q0 -45 -14.5 -91.5t-41.5 -84t-66.5 -61.5t-89.5 -24zM200 326q31 0 56 27.5t43 66.5t28 81.5t10 72.5q0 28 -8.5 48t-38.5 20q-33 0 -58.5 -28.5t-43 -68.5t-26.5 -82.5t-9 -70.5
q0 -15 1.5 -27t6.5 -20.5t14 -13.5t25 -5z" />
    <glyph glyph-name="foursuperior" unicode="&#x2074;" horiz-adv-x="350" 
d="M110 435l249 236h54l-88 -238h48l-17 -39h-46l-32 -92h-55l33 92h-164zM271 433l63 172l-182 -172h119z" />
    <glyph glyph-name="fivesuperior" unicode="&#x2075;" horiz-adv-x="350" 
d="M209 666h142q9 0 16 9.5t13 19.5l25 -7l-21 -60q-2 -6 -6.5 -7.5t-11.5 -1.5h-138l-32 -86q2 1 16 2.5t37 1.5q53 0 81 -26.5t28 -64.5q0 -30 -13 -57.5t-36 -48.5t-55 -33t-70 -12q-53 0 -77.5 15.5t-24.5 30.5q0 11 7 21t24 10q14 0 21.5 -7t17.5 -19q7 -8 20.5 -13.5
t30.5 -5.5q18 0 34.5 9t28.5 24t19 34t7 39q0 33 -19 47.5t-51 14.5q-13 0 -29 -2.5t-26 -4.5q-5 -1 -8 -1.5t-6 -0.5q-13 0 -7 16z" />
    <glyph glyph-name="sixsuperior" unicode="&#x2076;" horiz-adv-x="350" 
d="M396 657q-27 -10 -55 -23.5t-53.5 -29t-46.5 -34t-36 -39.5q8 6 28 16t52 10q42 0 64.5 -21.5t22.5 -59.5q0 -31 -14.5 -63t-39.5 -58.5t-58.5 -43t-70.5 -16.5q-43 0 -67 22.5t-24 68.5q0 51 20.5 97t58 84.5t91 69t118.5 50.5zM193 324q23 0 44 14t37.5 36t26 48.5
t9.5 51.5q0 49 -43 49q-27 0 -48.5 -16t-37 -39.5t-23.5 -50t-8 -47.5q0 -20 10 -33t33 -13z" />
    <glyph glyph-name="sevensuperior" unicode="&#x2077;" horiz-adv-x="350" 
d="M177 688h26q0 -13 3.5 -17.5t15.5 -4.5h172l9 -19q-61 -81 -110 -158.5t-74 -149.5q-8 -22 -16.5 -33t-22.5 -11q-17 0 -23 6.5t-6 17.5q0 7 3 15.5t6 16.5q13 30 39 70.5t54.5 79.5t54 71t36.5 46h-141q-19 0 -27.5 -10t-15.5 -21h-31z" />
    <glyph glyph-name="eightsuperior" unicode="&#x2078;" horiz-adv-x="350" 
d="M219 295q-33 0 -57.5 8t-40.5 21.5t-24 30t-8 33.5q0 24 9 40.5t25.5 29.5t39 23t49.5 20l-7 7q-11 11 -23 28t-12 41q0 46 35.5 71t86.5 25q49 0 79.5 -21t30.5 -53q0 -19 -8 -32.5t-22 -24t-32.5 -18.5t-40.5 -16l16 -15q22 -20 35 -40.5t13 -49.5q0 -26 -11 -46.5
t-30 -34t-44.5 -20.5t-53.5 -7h-5zM235 483q-18 -9 -33.5 -17t-27.5 -18t-18.5 -23.5t-6.5 -31.5q0 -31 21 -49.5t56 -18.5q36 0 58 17t22 46q0 19 -13 35.5t-37 39.5zM276 525q13 6 26 13t24 16t18 20t7 24q0 19 -13.5 33t-48.5 14q-31 0 -47.5 -15t-16.5 -35
q0 -13 8.5 -25t21.5 -25z" />
    <glyph glyph-name="ninesuperior" unicode="&#x2079;" horiz-adv-x="350" 
d="M91 311q27 10 55 23.5t53.5 29t46.5 34t36 39.5q-8 -6 -28 -16t-52 -10q-42 0 -64.5 21.5t-22.5 59.5q0 33 14.5 65.5t39 58t56.5 41.5t67 16q96 0 96 -91q0 -50 -20.5 -95.5t-58 -84.5t-90.5 -70t-118 -51zM220 445q27 0 48.5 16t37 39.5t23.5 50t8 47.5q0 20 -10 33
t-33 13t-44 -13.5t-37.5 -34.5t-26 -48t-9.5 -54q0 -49 43 -49z" />
    <glyph glyph-name="zeroinferior" unicode="&#x2080;" horiz-adv-x="350" 
d="M119 -5q-55 0 -82 33.5t-27 87.5q0 43 14.5 89t42 83t66.5 61t88 24q54 0 82 -32t28 -85q0 -45 -14.5 -91.5t-41.5 -84t-66.5 -61.5t-89.5 -24zM126 26q31 0 56 27.5t43 66.5t28 81.5t10 72.5q0 28 -8.5 48t-38.5 20q-33 0 -58.5 -28.5t-43 -68.5t-26.5 -82.5t-9 -70.5
q0 -15 1.5 -27t6.5 -20.5t14 -13.5t25 -5z" />
    <glyph glyph-name="oneinferior" unicode="&#x2081;" horiz-adv-x="350" 
d="M28 28l27 2q26 2 38.5 15.5t17.5 25.5l74 195q8 21 8 27t-6 6q-2 0 -8 -1.5t-12 -3.5l-41 -11l-8 29q48 14 80 29t55 32h31l-111 -294q-3 -8 -5 -15.5t-2 -12.5q0 -9 8.5 -14t29.5 -7l24 -2l-8 -26h-202z" />
    <glyph glyph-name="twoinferior" unicode="&#x2082;" horiz-adv-x="350" 
d="M213 54l30 35h29l-43 -87h-241q10 31 27.5 58t39.5 49.5t46.5 42.5t48.5 38q46 35 74.5 59.5t28.5 52.5q0 17 -12 26.5t-34 9.5q-23 0 -43.5 -10t-36.5 -22.5t-27 -24t-14 -14.5l-25 23q12 13 28 27.5t37 27t46.5 20.5t54.5 8q43 0 68.5 -18.5t25.5 -51.5q0 -22 -8.5 -39
t-24.5 -32t-37.5 -29t-47.5 -30q-35 -21 -59.5 -38t-42 -31t-28.5 -26t-18 -24h158z" />
    </font>
</defs>
</svg>
