<?xml version="1.0" standalone="no"?>
<!DOCTYPE svg PUBLIC "-//W3C//DTD SVG 20010904//EN"
 "http://www.w3.org/TR/2001/REC-SVG-20010904/DTD/svg10.dtd">
<svg version="1.0" xmlns="http://www.w3.org/2000/svg"
 width="500.000000pt" height="500.000000pt" viewBox="0 0 500.000000 500.000000"
 preserveAspectRatio="xMidYMid meet">
<metadata>
Created by potrace 1.11, written by Peter Selinger 2001-2013
</metadata>
<g transform="translate(0.000000,500.000000) scale(0.100000,-0.100000)"
fill="#000000" stroke="none">
<path d="M0 2500 l0 -2500 2500 0 2500 0 0 2500 0 2500 -2500 0 -2500 0 0
-2500z m1538 1539 c85 -21 216 -81 290 -131 107 -73 223 -203 284 -320 l25
-47 54 55 c208 213 494 370 789 435 351 76 718 28 1040 -137 60 -30 149 -83
197 -117 113 -79 291 -257 370 -370 340 -483 383 -1104 113 -1626 -328 -634
-1046 -968 -1735 -809 -247 57 -494 181 -678 341 l-74 65 -44 -55 c-82 -104
-232 -218 -373 -284 -531 -248 -1162 -47 -1455 465 -53 94 -107 243 -126 351
-15 86 -22 435 -10 467 4 10 21 20 38 23 56 11 575 1 587 -11 6 -6 11 -80 14
-185 3 -194 17 -257 75 -348 203 -316 666 -284 829 56 36 76 37 80 37 193 -1
137 -20 196 -93 293 -64 83 -124 120 -360 222 -202 88 -229 106 -217 144 3 10
89 76 192 147 112 77 197 144 213 166 73 100 62 236 -25 323 -95 94 -249 97
-342 6 -49 -47 -72 -95 -85 -179 -15 -99 -18 -102 -93 -102 -89 0 -98 14 -85
132 14 138 69 238 172 314 283 208 688 5 688 -346 0 -156 -68 -274 -218 -380
-51 -35 -92 -67 -92 -70 0 -3 21 -14 48 -24 263 -105 405 -251 463 -474 25
-94 27 -241 4 -327 -28 -111 -89 -219 -168 -298 -127 -128 -256 -185 -433
-194 -240 -12 -449 92 -582 290 -69 103 -102 213 -109 355 l-6 112 -140 0
-140 0 5 -127 c8 -196 51 -337 150 -490 87 -134 199 -237 341 -313 147 -80
278 -113 447 -113 321 0 607 155 786 428 82 124 85 124 204 1 51 -52 115 -113
144 -135 347 -267 784 -359 1201 -251 527 136 928 573 1019 1109 21 122 21
339 0 462 -96 571 -561 1035 -1138 1134 -113 19 -334 19 -454 0 -114 -19 -261
-65 -369 -116 -270 -128 -528 -387 -658 -659 -31 -67 -35 -71 -29 -35 26 173
-18 371 -114 511 -86 128 -221 230 -367 280 -105 36 -283 45 -390 20 -155 -37
-321 -145 -409 -269 -90 -126 -131 -244 -142 -406 -4 -53 -11 -102 -17 -108
-6 -8 -35 -13 -78 -13 -57 0 -70 3 -79 19 -27 52 0 270 50 400 124 320 401
533 750 575 67 8 231 -5 308 -25z m2045 -473 c110 -28 255 -93 346 -156 211
-143 380 -383 448 -637 24 -88 27 -115 27 -273 0 -158 -3 -185 -27 -273 -82
-306 -284 -560 -560 -703 -168 -87 -319 -124 -507 -124 -295 0 -553 104 -763
309 -213 206 -321 445 -334 737 -14 322 84 586 305 816 165 171 364 278 604
324 115 22 339 12 461 -20z"/>
<path d="M3154 3406 c-134 -26 -236 -67 -349 -140 -354 -231 -501 -673 -359
-1080 141 -404 579 -664 1004 -595 195 31 356 115 505 264 135 135 207 262
252 441 25 104 23 324 -6 429 -44 165 -135 318 -257 436 -171 163 -368 246
-604 254 -73 3 -141 0 -186 -9z"/>
</g>
</svg>
